G75*
G70*
%OFA0B0*%
%FSLAX24Y24*%
%IPPOS*%
%LPD*%
%AMOC8*
5,1,8,0,0,1.08239X$1,22.5*
%
%ADD10C,0.0000*%
%ADD11C,0.0100*%
%ADD12C,0.0120*%
%ADD13OC8,0.0600*%
%ADD14R,0.0630X0.0710*%
%ADD15R,0.0787X0.0591*%
%ADD16R,0.0591X0.0787*%
%ADD17C,0.0520*%
%ADD18R,0.0260X0.0800*%
%ADD19R,0.0500X0.0220*%
%ADD20R,0.0220X0.0500*%
%ADD21R,0.0591X0.0591*%
%ADD22C,0.0600*%
%ADD23R,0.0591X0.0512*%
%ADD24R,0.0512X0.0591*%
%ADD25R,0.0600X0.0600*%
%ADD26R,0.0590X0.0790*%
%ADD27R,0.1500X0.0790*%
%ADD28R,0.0394X0.0433*%
%ADD29C,0.0320*%
%ADD30C,0.0240*%
D10*
X000873Y001262D02*
X000875Y001312D01*
X000881Y001362D01*
X000891Y001411D01*
X000905Y001459D01*
X000922Y001506D01*
X000943Y001551D01*
X000968Y001595D01*
X000996Y001636D01*
X001028Y001675D01*
X001062Y001712D01*
X001099Y001746D01*
X001139Y001776D01*
X001181Y001803D01*
X001225Y001827D01*
X001271Y001848D01*
X001318Y001864D01*
X001366Y001877D01*
X001416Y001886D01*
X001465Y001891D01*
X001516Y001892D01*
X001566Y001889D01*
X001615Y001882D01*
X001664Y001871D01*
X001712Y001856D01*
X001758Y001838D01*
X001803Y001816D01*
X001846Y001790D01*
X001887Y001761D01*
X001926Y001729D01*
X001962Y001694D01*
X001994Y001656D01*
X002024Y001616D01*
X002051Y001573D01*
X002074Y001529D01*
X002093Y001483D01*
X002109Y001435D01*
X002121Y001386D01*
X002129Y001337D01*
X002133Y001287D01*
X002133Y001237D01*
X002129Y001187D01*
X002121Y001138D01*
X002109Y001089D01*
X002093Y001041D01*
X002074Y000995D01*
X002051Y000951D01*
X002024Y000908D01*
X001994Y000868D01*
X001962Y000830D01*
X001926Y000795D01*
X001887Y000763D01*
X001846Y000734D01*
X001803Y000708D01*
X001758Y000686D01*
X001712Y000668D01*
X001664Y000653D01*
X001615Y000642D01*
X001566Y000635D01*
X001516Y000632D01*
X001465Y000633D01*
X001416Y000638D01*
X001366Y000647D01*
X001318Y000660D01*
X001271Y000676D01*
X001225Y000697D01*
X001181Y000721D01*
X001139Y000748D01*
X001099Y000778D01*
X001062Y000812D01*
X001028Y000849D01*
X000996Y000888D01*
X000968Y000929D01*
X000943Y000973D01*
X000922Y001018D01*
X000905Y001065D01*
X000891Y001113D01*
X000881Y001162D01*
X000875Y001212D01*
X000873Y001262D01*
X017663Y008992D02*
X017665Y009042D01*
X017671Y009092D01*
X017681Y009141D01*
X017695Y009189D01*
X017712Y009236D01*
X017733Y009281D01*
X017758Y009325D01*
X017786Y009366D01*
X017818Y009405D01*
X017852Y009442D01*
X017889Y009476D01*
X017929Y009506D01*
X017971Y009533D01*
X018015Y009557D01*
X018061Y009578D01*
X018108Y009594D01*
X018156Y009607D01*
X018206Y009616D01*
X018255Y009621D01*
X018306Y009622D01*
X018356Y009619D01*
X018405Y009612D01*
X018454Y009601D01*
X018502Y009586D01*
X018548Y009568D01*
X018593Y009546D01*
X018636Y009520D01*
X018677Y009491D01*
X018716Y009459D01*
X018752Y009424D01*
X018784Y009386D01*
X018814Y009346D01*
X018841Y009303D01*
X018864Y009259D01*
X018883Y009213D01*
X018899Y009165D01*
X018911Y009116D01*
X018919Y009067D01*
X018923Y009017D01*
X018923Y008967D01*
X018919Y008917D01*
X018911Y008868D01*
X018899Y008819D01*
X018883Y008771D01*
X018864Y008725D01*
X018841Y008681D01*
X018814Y008638D01*
X018784Y008598D01*
X018752Y008560D01*
X018716Y008525D01*
X018677Y008493D01*
X018636Y008464D01*
X018593Y008438D01*
X018548Y008416D01*
X018502Y008398D01*
X018454Y008383D01*
X018405Y008372D01*
X018356Y008365D01*
X018306Y008362D01*
X018255Y008363D01*
X018206Y008368D01*
X018156Y008377D01*
X018108Y008390D01*
X018061Y008406D01*
X018015Y008427D01*
X017971Y008451D01*
X017929Y008478D01*
X017889Y008508D01*
X017852Y008542D01*
X017818Y008579D01*
X017786Y008618D01*
X017758Y008659D01*
X017733Y008703D01*
X017712Y008748D01*
X017695Y008795D01*
X017681Y008843D01*
X017671Y008892D01*
X017665Y008942D01*
X017663Y008992D01*
X000573Y012032D02*
X000575Y012082D01*
X000581Y012132D01*
X000591Y012181D01*
X000605Y012229D01*
X000622Y012276D01*
X000643Y012321D01*
X000668Y012365D01*
X000696Y012406D01*
X000728Y012445D01*
X000762Y012482D01*
X000799Y012516D01*
X000839Y012546D01*
X000881Y012573D01*
X000925Y012597D01*
X000971Y012618D01*
X001018Y012634D01*
X001066Y012647D01*
X001116Y012656D01*
X001165Y012661D01*
X001216Y012662D01*
X001266Y012659D01*
X001315Y012652D01*
X001364Y012641D01*
X001412Y012626D01*
X001458Y012608D01*
X001503Y012586D01*
X001546Y012560D01*
X001587Y012531D01*
X001626Y012499D01*
X001662Y012464D01*
X001694Y012426D01*
X001724Y012386D01*
X001751Y012343D01*
X001774Y012299D01*
X001793Y012253D01*
X001809Y012205D01*
X001821Y012156D01*
X001829Y012107D01*
X001833Y012057D01*
X001833Y012007D01*
X001829Y011957D01*
X001821Y011908D01*
X001809Y011859D01*
X001793Y011811D01*
X001774Y011765D01*
X001751Y011721D01*
X001724Y011678D01*
X001694Y011638D01*
X001662Y011600D01*
X001626Y011565D01*
X001587Y011533D01*
X001546Y011504D01*
X001503Y011478D01*
X001458Y011456D01*
X001412Y011438D01*
X001364Y011423D01*
X001315Y011412D01*
X001266Y011405D01*
X001216Y011402D01*
X001165Y011403D01*
X001116Y011408D01*
X001066Y011417D01*
X001018Y011430D01*
X000971Y011446D01*
X000925Y011467D01*
X000881Y011491D01*
X000839Y011518D01*
X000799Y011548D01*
X000762Y011582D01*
X000728Y011619D01*
X000696Y011658D01*
X000668Y011699D01*
X000643Y011743D01*
X000622Y011788D01*
X000605Y011835D01*
X000591Y011883D01*
X000581Y011932D01*
X000575Y011982D01*
X000573Y012032D01*
X015493Y018952D02*
X015495Y019002D01*
X015501Y019052D01*
X015511Y019101D01*
X015525Y019149D01*
X015542Y019196D01*
X015563Y019241D01*
X015588Y019285D01*
X015616Y019326D01*
X015648Y019365D01*
X015682Y019402D01*
X015719Y019436D01*
X015759Y019466D01*
X015801Y019493D01*
X015845Y019517D01*
X015891Y019538D01*
X015938Y019554D01*
X015986Y019567D01*
X016036Y019576D01*
X016085Y019581D01*
X016136Y019582D01*
X016186Y019579D01*
X016235Y019572D01*
X016284Y019561D01*
X016332Y019546D01*
X016378Y019528D01*
X016423Y019506D01*
X016466Y019480D01*
X016507Y019451D01*
X016546Y019419D01*
X016582Y019384D01*
X016614Y019346D01*
X016644Y019306D01*
X016671Y019263D01*
X016694Y019219D01*
X016713Y019173D01*
X016729Y019125D01*
X016741Y019076D01*
X016749Y019027D01*
X016753Y018977D01*
X016753Y018927D01*
X016749Y018877D01*
X016741Y018828D01*
X016729Y018779D01*
X016713Y018731D01*
X016694Y018685D01*
X016671Y018641D01*
X016644Y018598D01*
X016614Y018558D01*
X016582Y018520D01*
X016546Y018485D01*
X016507Y018453D01*
X016466Y018424D01*
X016423Y018398D01*
X016378Y018376D01*
X016332Y018358D01*
X016284Y018343D01*
X016235Y018332D01*
X016186Y018325D01*
X016136Y018322D01*
X016085Y018323D01*
X016036Y018328D01*
X015986Y018337D01*
X015938Y018350D01*
X015891Y018366D01*
X015845Y018387D01*
X015801Y018411D01*
X015759Y018438D01*
X015719Y018468D01*
X015682Y018502D01*
X015648Y018539D01*
X015616Y018578D01*
X015588Y018619D01*
X015563Y018663D01*
X015542Y018708D01*
X015525Y018755D01*
X015511Y018803D01*
X015501Y018852D01*
X015495Y018902D01*
X015493Y018952D01*
D11*
X000333Y019822D02*
X000333Y000222D01*
X019933Y000222D01*
X019933Y011122D01*
X019933Y019822D01*
X017533Y019822D01*
X000333Y019822D01*
X001343Y018906D02*
X001356Y018904D01*
X002049Y018904D01*
X002238Y018715D01*
X003309Y018715D01*
X003309Y019156D01*
X003369Y019173D01*
X004821Y018652D02*
X004821Y015566D01*
X004506Y015251D01*
X004506Y015062D01*
X004493Y015032D01*
X004443Y014999D01*
X004443Y014180D01*
X003466Y013204D01*
X003435Y013235D01*
X003435Y014495D01*
X002994Y014936D01*
X002933Y014996D01*
X003687Y014495D02*
X003939Y014747D01*
X003939Y014999D01*
X003993Y015032D01*
X004993Y015032D02*
X005010Y014999D01*
X005199Y014810D01*
X005199Y014621D01*
X005325Y014495D01*
X006144Y014495D01*
X006144Y015377D01*
X006900Y016133D01*
X006900Y017708D01*
X008348Y019156D01*
X008370Y019187D01*
X008915Y018715D02*
X009356Y019156D01*
X009370Y019187D01*
X008915Y018715D02*
X008915Y017141D01*
X008474Y016700D01*
X009797Y016637D02*
X009797Y018086D01*
X009671Y018211D01*
X009659Y018222D01*
X010364Y018211D02*
X010407Y018222D01*
X010364Y018211D02*
X010364Y017204D01*
X010363Y017182D01*
X010238Y016700D02*
X009923Y016385D01*
X009923Y015755D01*
X007277Y015755D01*
X006900Y015377D01*
X006900Y013928D01*
X005514Y012542D01*
X005493Y012532D01*
X005199Y012731D02*
X005199Y013172D01*
X005199Y012731D02*
X005010Y012542D01*
X004993Y012532D01*
X004493Y012532D02*
X004443Y012479D01*
X004443Y011975D01*
X004191Y011723D01*
X006333Y011723D01*
X006373Y011722D01*
X007492Y011722D02*
X007529Y011660D01*
X008348Y011660D01*
X008348Y011597D01*
X008474Y011471D01*
X009293Y011471D01*
X009293Y012542D01*
X009343Y012562D01*
X009293Y012605D01*
X009293Y012920D01*
X009104Y013109D01*
X009167Y013613D02*
X009797Y012983D01*
X009797Y012605D01*
X009843Y012562D01*
X009860Y012542D01*
X009860Y012290D01*
X010427Y011723D01*
X010473Y011722D01*
X010994Y011660D02*
X011561Y011660D01*
X011592Y011722D01*
X011624Y011723D01*
X012254Y012353D01*
X012254Y013298D01*
X013766Y013298D01*
X013766Y014558D01*
X013892Y014558D01*
X013766Y014558D02*
X013766Y014810D01*
X013514Y015062D01*
X013493Y015112D01*
X012632Y015062D02*
X012593Y015112D01*
X012632Y015062D02*
X013514Y014180D01*
X013514Y013991D01*
X013766Y013298D02*
X015277Y013298D01*
X015333Y013287D01*
X014963Y013613D02*
X014963Y014243D01*
X015277Y014558D01*
X015333Y014587D01*
X017823Y014002D02*
X017823Y012332D01*
X018233Y011922D01*
X018803Y012332D02*
X018803Y013682D01*
X018943Y013822D01*
X018953Y014132D01*
X018983Y014172D01*
X018983Y015942D01*
X019013Y015972D01*
X018763Y016202D02*
X018743Y016222D01*
X018743Y017232D01*
X018993Y017142D02*
X019223Y017372D01*
X019223Y017912D01*
X019232Y017916D01*
X019643Y018502D02*
X019233Y018912D01*
X019232Y018916D01*
X019643Y018502D02*
X019643Y016832D01*
X019483Y016672D01*
X018983Y016672D02*
X018993Y017022D01*
X018993Y017142D01*
X017983Y016672D02*
X017953Y016712D01*
X017813Y016852D01*
X017813Y018502D01*
X018223Y018912D01*
X018232Y018916D01*
X014396Y019156D02*
X014396Y018211D01*
X014373Y018182D01*
X013388Y018211D02*
X013373Y018182D01*
X013325Y018149D01*
X012821Y017645D01*
X012821Y016007D01*
X012443Y015629D01*
X011939Y015629D01*
X011939Y014117D01*
X011435Y013613D01*
X011435Y013109D01*
X010994Y012668D01*
X010933Y012648D01*
X010490Y012920D02*
X010490Y012353D01*
X010427Y012290D01*
X010490Y012920D02*
X010522Y012952D01*
X010490Y012983D01*
X010175Y012983D01*
X008569Y014589D01*
X008600Y014621D01*
X008600Y014810D01*
X008789Y014999D01*
X008843Y015062D01*
X008343Y015062D02*
X008285Y015062D01*
X007340Y015062D01*
X007333Y015096D01*
X008348Y014369D02*
X008569Y014589D01*
X008348Y014369D02*
X007340Y014369D01*
X007333Y014348D01*
X007340Y014306D01*
X007340Y013487D01*
X007333Y013456D01*
X008789Y012542D02*
X008843Y012562D01*
X008789Y012542D02*
X008789Y011912D01*
X008600Y011723D01*
X010522Y012952D02*
X010931Y013361D01*
X010933Y013396D01*
X010931Y013424D01*
X010931Y013991D01*
X011750Y014810D01*
X011750Y015692D01*
X011813Y015755D01*
X011813Y017645D01*
X012317Y018149D01*
X012373Y018182D01*
X012380Y018211D01*
X012380Y019156D01*
X012370Y019178D01*
X013370Y019178D02*
X013388Y019156D01*
X013388Y018211D01*
X014370Y019178D02*
X014396Y019156D01*
X010931Y017456D02*
X010931Y015125D01*
X010933Y015096D01*
X010931Y015062D01*
X009860Y015062D01*
X009843Y015062D01*
X009356Y014999D02*
X009356Y014810D01*
X010049Y014117D01*
X010931Y013991D02*
X010931Y014306D01*
X010933Y014348D01*
X011498Y014936D02*
X011498Y015314D01*
X011183Y015629D01*
X009343Y015062D02*
X009356Y014999D01*
X012002Y013676D02*
X012002Y013298D01*
X012002Y013676D02*
X012821Y014495D01*
X017823Y014002D02*
X017953Y014132D01*
X017983Y014172D01*
X017933Y014222D01*
X017933Y015312D01*
X018163Y015072D02*
X018163Y015792D01*
X017933Y016022D01*
X018483Y015812D02*
X018483Y014172D01*
X018483Y013112D01*
X018233Y012922D01*
X018803Y012332D02*
X019233Y011922D01*
X019233Y012922D02*
X019453Y013142D01*
X019453Y014132D01*
X019483Y014172D01*
X019483Y014732D01*
X019503Y014752D01*
X018713Y015612D02*
X018763Y015662D01*
X018763Y016202D01*
X018533Y015862D02*
X018483Y015812D01*
X018483Y016672D02*
X017983Y016672D01*
X018953Y013832D02*
X018943Y013822D01*
X011759Y009422D02*
X011692Y009434D01*
X010748Y009434D01*
X010707Y009422D01*
X010669Y009356D01*
X010669Y008726D01*
X010748Y008647D01*
X010748Y007466D01*
X010590Y007308D01*
X010354Y007308D01*
X010348Y007269D01*
X010348Y007584D02*
X010275Y007623D01*
X009724Y007623D01*
X009724Y006993D01*
X010348Y006639D02*
X010354Y006600D01*
X010590Y006600D01*
X010748Y006442D01*
X010748Y006285D01*
X012322Y006285D01*
X012322Y006442D01*
X012363Y006457D01*
X012401Y006521D01*
X012401Y007387D01*
X012480Y007466D01*
X012532Y007497D01*
X012559Y007545D01*
X012559Y008489D01*
X012532Y008492D01*
X012559Y008568D01*
X012559Y008647D01*
X013031Y008647D01*
X013346Y008883D02*
X013346Y007860D01*
X013976Y007230D01*
X014291Y007230D01*
X014606Y006915D01*
X014606Y003608D01*
X014763Y003450D01*
X015000Y003214D02*
X014055Y003214D01*
X013818Y003293D02*
X013818Y003056D01*
X015393Y001482D01*
X015157Y001324D02*
X015236Y001245D01*
X016653Y001245D01*
X016732Y001324D01*
X017519Y001324D01*
X017519Y001482D01*
X017834Y001797D01*
X017878Y001852D01*
X017834Y002820D02*
X016889Y001875D01*
X016878Y001852D01*
X015314Y002426D02*
X016338Y003450D01*
X016338Y004631D01*
X016259Y004710D01*
X016259Y005340D01*
X015866Y005497D02*
X015314Y005497D01*
X015393Y005812D02*
X015393Y006442D01*
X015363Y006457D01*
X015314Y006521D01*
X015314Y006993D01*
X015236Y007072D01*
X014921Y006442D02*
X014863Y006457D01*
X014921Y006442D02*
X014921Y006285D01*
X015078Y006127D01*
X015078Y004867D01*
X014370Y004631D02*
X014370Y006442D01*
X014363Y006457D01*
X013897Y006442D02*
X013863Y006457D01*
X013897Y006521D01*
X013897Y007072D01*
X013110Y007860D01*
X011929Y007623D02*
X011692Y007387D01*
X011377Y007387D01*
X011413Y007497D01*
X011377Y007466D01*
X011377Y007387D01*
X011377Y007230D01*
X010905Y007230D01*
X011850Y007151D02*
X011850Y006757D01*
X011850Y007151D02*
X011929Y007230D01*
X013346Y006442D02*
X013363Y006457D01*
X013346Y006442D02*
X013346Y005891D01*
X013267Y005812D01*
X013661Y005497D02*
X013346Y005182D01*
X013346Y004789D01*
X013346Y004080D01*
X013363Y004037D01*
X012874Y004080D02*
X012863Y004037D01*
X012874Y004080D02*
X012874Y004552D01*
X012795Y004631D01*
X013031Y004789D02*
X013346Y004789D01*
X013031Y004789D02*
X011771Y006049D01*
X010748Y006049D02*
X010748Y006285D01*
X010748Y006049D02*
X010354Y006049D01*
X010348Y006009D01*
X010275Y005970D01*
X010039Y005970D01*
X009881Y006127D01*
X009881Y006363D02*
X009881Y006442D01*
X009881Y006363D02*
X010275Y006363D01*
X010348Y006324D01*
X010348Y005694D02*
X010354Y005655D01*
X010826Y005182D01*
X010826Y003608D01*
X011112Y003322D01*
X011433Y003322D01*
X011771Y002983D01*
X011771Y002505D01*
X012007Y002269D01*
X014291Y002269D01*
X014291Y002190D01*
X013283Y001852D02*
X013267Y001875D01*
X012244Y001875D01*
X012183Y001852D01*
X011771Y001797D02*
X011771Y001639D01*
X012086Y001324D01*
X015157Y001324D01*
X017834Y002820D02*
X017834Y003686D01*
X017883Y003698D01*
X017913Y003765D01*
X017913Y004789D01*
X017883Y004795D01*
X017913Y004867D01*
X017913Y005891D01*
X017883Y005895D01*
X017913Y005970D01*
X017913Y006993D01*
X017883Y006995D01*
X016883Y006995D02*
X016811Y006993D01*
X016338Y006521D01*
X016338Y005970D01*
X015866Y005497D01*
X015787Y005812D02*
X015787Y006442D01*
X015863Y006457D01*
X014842Y005812D02*
X014842Y004080D01*
X014863Y004037D01*
X014363Y004037D02*
X014291Y004080D01*
X014291Y004237D01*
X014133Y004395D01*
X014133Y004631D01*
X013661Y005104D01*
X013897Y005497D02*
X014133Y005261D01*
X013897Y005497D02*
X013897Y006442D01*
X011929Y004474D02*
X011141Y005261D01*
X010354Y005261D02*
X010354Y005182D01*
X009803Y005182D01*
X009760Y005107D01*
X009488Y005104D02*
X009445Y005107D01*
X009488Y005104D02*
X009488Y004080D01*
X009330Y003844D02*
X010118Y003844D01*
X010118Y004001D01*
X010158Y004007D01*
X010196Y004080D01*
X010196Y004395D01*
X010354Y004552D01*
X009251Y004395D02*
X008858Y004789D01*
X008858Y005104D01*
X008815Y005107D01*
X008543Y005104D02*
X008500Y005107D01*
X008543Y005104D02*
X008543Y004631D01*
X009330Y003844D01*
X008622Y003765D02*
X008622Y002899D01*
X007992Y002269D01*
X007992Y001954D01*
X007972Y001882D01*
X008550Y001393D02*
X008134Y000977D01*
X007972Y000977D01*
X007930Y000977D01*
X006853Y000977D02*
X006811Y001009D01*
X006338Y001009D01*
X006853Y001882D02*
X006811Y001954D01*
X006102Y002663D01*
X005236Y002663D01*
X004606Y002033D01*
X004370Y002033D01*
X004304Y001962D01*
X004291Y001954D01*
X003818Y001954D01*
X003031Y002269D02*
X002983Y002582D01*
X003031Y002269D02*
X003031Y001088D01*
X004291Y001088D01*
X004309Y001062D01*
X004370Y001009D01*
X004370Y000930D01*
X004763Y000930D01*
X004842Y001009D01*
X007794Y003407D02*
X007794Y003800D01*
X006841Y004753D01*
X006841Y004871D01*
X006750Y004963D01*
X006695Y005018D01*
X006695Y005280D01*
X006666Y005309D01*
X006666Y005508D01*
X006852Y005694D01*
X006968Y005694D01*
X006968Y006009D02*
X006476Y006009D01*
X006203Y005737D01*
X005419Y005737D01*
X004968Y005286D01*
X004968Y004794D01*
X004617Y004443D01*
X004524Y004443D01*
X004368Y004286D01*
X001983Y004185D02*
X002007Y003844D01*
X002007Y004867D01*
X001983Y005288D01*
X002007Y004946D01*
X002007Y006363D01*
X001983Y006785D01*
X002007Y006442D01*
X002007Y007466D01*
X001983Y007889D01*
X002007Y007545D01*
X002007Y008332D01*
X003582Y008332D01*
X003582Y006285D01*
X004370Y006285D01*
X004373Y006236D01*
X004448Y006285D01*
X005708Y006285D01*
X005773Y006236D01*
X005861Y006324D01*
X006968Y006324D01*
X007486Y006324D01*
X007489Y006327D01*
X006968Y006324D02*
X006889Y006285D01*
X006259Y006600D02*
X006257Y006600D01*
X006081Y006424D01*
X005960Y006424D01*
X005773Y006236D01*
X005787Y006285D01*
X006259Y006600D02*
X006574Y006915D01*
X006889Y006915D01*
X006968Y006954D01*
X007286Y007569D02*
X007776Y007079D01*
X007776Y005751D01*
X007870Y005107D02*
X007913Y005104D01*
X007913Y004631D01*
X007598Y004631D02*
X007598Y005104D01*
X007555Y005107D01*
X008185Y005107D02*
X008228Y005104D01*
X008228Y004159D01*
X008622Y003765D01*
X010275Y003450D02*
X010669Y003056D01*
X010669Y002505D01*
X010905Y002269D01*
X011299Y002269D01*
X011771Y001797D01*
X011083Y001852D02*
X011063Y001875D01*
X010039Y001875D01*
X009983Y001852D01*
X011929Y003765D02*
X012401Y003293D01*
X013818Y003293D01*
X015000Y003214D02*
X015314Y003529D01*
X015314Y004001D01*
X015363Y004037D01*
X013863Y004037D02*
X013818Y004080D01*
X013818Y004552D01*
X013740Y004631D01*
X012401Y004631D02*
X012401Y004080D01*
X012363Y004037D01*
X011929Y003765D02*
X011929Y004474D01*
X009173Y005182D02*
X009130Y005107D01*
X009173Y005182D02*
X009173Y005576D01*
X007866Y007340D02*
X007362Y007844D01*
X006984Y007844D01*
X006968Y007899D01*
X006968Y007584D02*
X006983Y007569D01*
X007286Y007569D01*
X006984Y007529D02*
X006968Y007584D01*
X006417Y007387D02*
X006417Y008411D01*
X007519Y008411D01*
X007555Y008487D01*
X007834Y008411D02*
X007870Y008487D01*
X007834Y008411D02*
X007834Y008017D01*
X007677Y007860D01*
X008149Y007860D02*
X008149Y008411D01*
X008185Y008487D01*
X008464Y008411D02*
X008500Y008487D01*
X008543Y008489D01*
X008543Y008962D01*
X008779Y009198D01*
X009015Y008962D02*
X008858Y008804D01*
X008858Y008489D01*
X008815Y008487D01*
X009130Y008487D02*
X009173Y008411D01*
X009173Y007938D01*
X009488Y008017D02*
X009488Y008411D01*
X009445Y008487D01*
X009760Y008487D02*
X009803Y008411D01*
X009803Y007938D01*
X010348Y007899D02*
X010354Y007938D01*
X010511Y008096D01*
X010511Y008253D01*
X010905Y008883D02*
X011220Y008568D01*
X011377Y008568D01*
X011413Y008492D01*
X009959Y009422D02*
X009881Y009434D01*
X007834Y009434D01*
X007126Y009356D02*
X007126Y009041D01*
X007283Y008883D01*
X007126Y009356D02*
X007107Y009422D01*
X005708Y009356D02*
X005708Y009198D01*
X005708Y009356D02*
X005236Y009356D01*
X005207Y009422D01*
X004459Y009422D02*
X004448Y009434D01*
X003031Y009434D01*
X002982Y009582D01*
X003582Y008332D02*
X004370Y008332D01*
X004413Y008397D01*
X005532Y008397D02*
X005551Y008332D01*
X005866Y008332D01*
X006102Y008096D01*
X008464Y008017D02*
X008464Y008411D01*
X014483Y008652D02*
X014527Y008647D01*
X015551Y008647D01*
X015583Y008652D01*
X005892Y015440D02*
X005514Y015062D01*
X005493Y015032D01*
X005892Y015440D02*
X005892Y016448D01*
X006333Y016196D02*
X006363Y016182D01*
X006333Y016196D02*
X006333Y016763D01*
X005829Y016763D01*
X005073Y017645D02*
X005640Y018211D01*
X005669Y018222D01*
X005892Y017708D02*
X006396Y018211D01*
X006417Y018222D01*
X006837Y018652D02*
X004821Y018652D01*
X003369Y018173D02*
X003309Y018149D01*
X003309Y017897D01*
X002364Y016952D01*
X002303Y016906D01*
X001356Y016952D02*
X001333Y016946D01*
X001356Y016952D02*
X002364Y017960D01*
X002364Y018149D01*
X002369Y018173D01*
X001860Y018149D02*
X001860Y018086D01*
X001860Y018149D02*
X001356Y018149D01*
X001343Y018158D01*
X001333Y016198D02*
X001356Y016196D01*
X001356Y015566D01*
X002364Y015566D01*
X002364Y016133D02*
X002303Y016158D01*
X002364Y016133D02*
X002805Y016133D01*
X001356Y015566D02*
X001356Y014999D01*
X001333Y014996D01*
X002933Y014248D02*
X002994Y014243D01*
X002994Y013802D01*
X003466Y013204D02*
X003340Y013078D01*
X003372Y013046D01*
X003372Y012983D01*
X003624Y012731D01*
X003340Y013078D02*
X002994Y012731D01*
X002933Y012687D01*
X006837Y018652D02*
X007340Y019156D01*
X007370Y019187D01*
D12*
X007790Y019189D02*
X007950Y019189D01*
X007950Y019307D02*
X007790Y019307D01*
X007790Y019361D02*
X007544Y019607D01*
X007196Y019607D01*
X006950Y019361D01*
X006950Y019013D01*
X006953Y019009D01*
X006830Y018886D01*
X006830Y019147D01*
X006410Y019147D01*
X006410Y019227D01*
X006830Y019227D01*
X006830Y019508D01*
X006819Y019548D01*
X006798Y019585D01*
X006771Y019612D01*
X010982Y019612D01*
X010971Y019606D01*
X010942Y019576D01*
X010921Y019539D01*
X010910Y019499D01*
X010910Y019218D01*
X011329Y019218D01*
X011329Y019138D01*
X010910Y019138D01*
X010910Y018857D01*
X010921Y018816D01*
X010942Y018779D01*
X010971Y018750D01*
X011008Y018729D01*
X011049Y018718D01*
X011330Y018718D01*
X011330Y019137D01*
X011410Y019137D01*
X011410Y018718D01*
X011691Y018718D01*
X011731Y018729D01*
X011768Y018750D01*
X011798Y018779D01*
X011819Y018816D01*
X011830Y018857D01*
X011830Y019138D01*
X011410Y019138D01*
X011410Y019218D01*
X011830Y019218D01*
X011830Y019499D01*
X011819Y019539D01*
X011798Y019576D01*
X011768Y019606D01*
X011757Y019612D01*
X015666Y019612D01*
X015453Y019399D01*
X015333Y019109D01*
X015333Y018795D01*
X015453Y018504D01*
X015675Y018282D01*
X015965Y018162D01*
X016280Y018162D01*
X016570Y018282D01*
X016792Y018504D01*
X016912Y018795D01*
X016912Y019109D01*
X016792Y019399D01*
X016580Y019612D01*
X016941Y019612D01*
X016893Y011162D01*
X000543Y011221D01*
X000543Y011575D01*
X000755Y011362D01*
X001045Y011242D01*
X001360Y011242D01*
X001650Y011362D01*
X001872Y011584D01*
X001992Y011875D01*
X001992Y012189D01*
X001872Y012479D01*
X001650Y012701D01*
X001360Y012822D01*
X001045Y012822D01*
X000755Y012701D01*
X000543Y012489D01*
X000543Y019612D01*
X004157Y019612D01*
X003909Y019363D01*
X003909Y019213D01*
X004328Y019213D01*
X004328Y019133D01*
X003909Y019133D01*
X003909Y018982D01*
X004178Y018713D01*
X004329Y018713D01*
X004329Y019132D01*
X004409Y019132D01*
X004409Y018713D01*
X004559Y018713D01*
X004829Y018982D01*
X004829Y019133D01*
X004409Y019133D01*
X004409Y019213D01*
X004829Y019213D01*
X004829Y019363D01*
X004580Y019612D01*
X005968Y019612D01*
X005942Y019585D01*
X005921Y019548D01*
X005910Y019508D01*
X005910Y019227D01*
X006329Y019227D01*
X006329Y019147D01*
X005910Y019147D01*
X005910Y018866D01*
X005921Y018825D01*
X005922Y018822D01*
X004891Y018822D01*
X004750Y018822D01*
X004651Y018723D01*
X004651Y018484D01*
X004543Y018593D01*
X004195Y018593D01*
X003949Y018347D01*
X003949Y017999D01*
X004195Y017753D01*
X004543Y017753D01*
X004651Y017861D01*
X004651Y017487D01*
X004537Y017602D01*
X004189Y017602D01*
X003943Y017356D01*
X003943Y017008D01*
X004189Y016762D01*
X004537Y016762D01*
X004651Y016876D01*
X004651Y016487D01*
X004537Y016602D01*
X004189Y016602D01*
X003943Y016356D01*
X003943Y016008D01*
X004189Y015762D01*
X004537Y015762D01*
X004651Y015876D01*
X004651Y015636D01*
X004566Y015552D01*
X004313Y015552D01*
X004243Y015481D01*
X004243Y014582D01*
X004273Y014552D01*
X004273Y014250D01*
X003605Y013582D01*
X003605Y014269D01*
X003639Y014255D01*
X003735Y014255D01*
X003823Y014291D01*
X003890Y014359D01*
X003927Y014447D01*
X003927Y014495D01*
X003944Y014512D01*
X004172Y014512D01*
X004243Y014582D01*
X004243Y015481D01*
X004172Y015552D01*
X003813Y015552D01*
X003743Y015481D01*
X003743Y014791D01*
X003687Y014735D01*
X003639Y014735D01*
X003551Y014698D01*
X003511Y014659D01*
X003505Y014665D01*
X003348Y014822D01*
X003348Y015301D01*
X003278Y015372D01*
X002588Y015372D01*
X002517Y015301D01*
X002517Y014690D01*
X002586Y014622D01*
X002517Y014553D01*
X002517Y013942D01*
X002588Y013872D01*
X002763Y013872D01*
X002754Y013850D01*
X002754Y013754D01*
X002763Y013733D01*
X002715Y013733D01*
X002674Y013722D01*
X002637Y013701D01*
X002608Y013671D01*
X002587Y013635D01*
X002576Y013594D01*
X002576Y013395D01*
X002894Y013395D01*
X002894Y013318D01*
X002576Y013318D01*
X002576Y013119D01*
X002587Y013078D01*
X002608Y013042D01*
X002637Y013012D01*
X002661Y012998D01*
X002616Y012953D01*
X002616Y012421D01*
X002686Y012351D01*
X003179Y012351D01*
X003249Y012421D01*
X003249Y012746D01*
X003309Y012806D01*
X003384Y012731D01*
X003384Y012683D01*
X003420Y012595D01*
X003488Y012528D01*
X003576Y012491D01*
X003672Y012491D01*
X003703Y012504D01*
X003703Y012111D01*
X003714Y012070D01*
X003735Y012033D01*
X003764Y012004D01*
X003801Y011983D01*
X003841Y011972D01*
X003988Y011972D01*
X003988Y012526D01*
X003998Y012526D01*
X003998Y011972D01*
X004144Y011972D01*
X004184Y011983D01*
X004221Y012004D01*
X004251Y012033D01*
X004265Y012059D01*
X004273Y012052D01*
X004273Y012046D01*
X004190Y011963D01*
X004143Y011963D01*
X004055Y011927D01*
X003987Y011859D01*
X003951Y011771D01*
X003951Y011676D01*
X003987Y011587D01*
X004055Y011520D01*
X004143Y011483D01*
X004239Y011483D01*
X005938Y011483D01*
X005938Y011553D02*
X005938Y011317D01*
X006008Y011247D01*
X006737Y011247D01*
X006808Y011317D01*
X006808Y012126D01*
X006737Y012197D01*
X006008Y012197D01*
X005938Y012126D01*
X005938Y011893D01*
X004601Y011893D01*
X004613Y011905D01*
X004613Y012012D01*
X004672Y012012D01*
X004743Y012082D01*
X004813Y012012D01*
X005172Y012012D01*
X005243Y012082D01*
X005313Y012012D01*
X005672Y012012D01*
X005743Y012082D01*
X005743Y012531D01*
X006970Y013758D01*
X007069Y013858D01*
X007069Y013972D01*
X007170Y013972D01*
X007170Y013793D01*
X007086Y013793D01*
X007016Y013723D01*
X007016Y013190D01*
X007061Y013145D01*
X007037Y013132D01*
X007008Y013102D01*
X006987Y013065D01*
X006976Y013025D01*
X006976Y012826D01*
X007294Y012826D01*
X007294Y012749D01*
X006976Y012749D01*
X006976Y012549D01*
X006987Y012509D01*
X007008Y012472D01*
X007037Y012443D01*
X007074Y012421D01*
X007115Y012411D01*
X007294Y012411D01*
X007294Y012748D01*
X007371Y012748D01*
X007371Y012411D01*
X007551Y012411D01*
X007591Y012421D01*
X007628Y012443D01*
X007657Y012472D01*
X007679Y012509D01*
X007689Y012549D01*
X007689Y012749D01*
X007371Y012749D01*
X007371Y012826D01*
X007689Y012826D01*
X007689Y013025D01*
X007679Y013065D01*
X007657Y013102D01*
X007628Y013132D01*
X007604Y013145D01*
X007649Y013190D01*
X007649Y013723D01*
X007579Y013793D01*
X007510Y013793D01*
X007510Y013972D01*
X007678Y013972D01*
X007748Y014042D01*
X007748Y014199D01*
X008419Y014199D01*
X008518Y014299D01*
X008569Y014349D01*
X009081Y013837D01*
X009031Y013816D01*
X008964Y013749D01*
X008927Y013661D01*
X008927Y013565D01*
X008964Y013477D01*
X009031Y013410D01*
X009119Y013373D01*
X009167Y013373D01*
X009218Y013322D01*
X009152Y013349D01*
X009056Y013349D01*
X008968Y013313D01*
X008901Y013245D01*
X008864Y013157D01*
X008864Y013082D01*
X008663Y013082D01*
X008615Y013034D01*
X008601Y013060D01*
X008571Y013090D01*
X008534Y013111D01*
X008494Y013122D01*
X008348Y013122D01*
X008348Y012567D01*
X008338Y012567D01*
X008338Y013122D01*
X008191Y013122D01*
X008151Y013111D01*
X008114Y013090D01*
X008085Y013060D01*
X008064Y013023D01*
X008053Y012983D01*
X008053Y012567D01*
X008337Y012567D01*
X008337Y012557D01*
X008053Y012557D01*
X008053Y012141D01*
X008064Y012100D01*
X008085Y012063D01*
X008114Y012034D01*
X008151Y012013D01*
X008191Y012002D01*
X008338Y012002D01*
X008338Y012556D01*
X008348Y012556D01*
X008348Y012002D01*
X008494Y012002D01*
X008534Y012013D01*
X008571Y012034D01*
X008601Y012063D01*
X008615Y012089D01*
X008619Y012085D01*
X008619Y011983D01*
X008600Y011963D01*
X008553Y011963D01*
X008464Y011927D01*
X008397Y011859D01*
X008385Y011830D01*
X008278Y011830D01*
X007927Y011830D01*
X007927Y012126D01*
X007857Y012197D01*
X007128Y012197D01*
X007057Y012126D01*
X007057Y011317D01*
X007128Y011247D01*
X007857Y011247D01*
X007927Y011317D01*
X007927Y011490D01*
X008215Y011490D01*
X008278Y011427D01*
X008304Y011401D01*
X008404Y011301D01*
X009223Y011301D01*
X009364Y011301D01*
X009463Y011401D01*
X009463Y012042D01*
X009522Y012042D01*
X009593Y012112D01*
X009663Y012042D01*
X009868Y012042D01*
X010038Y011872D01*
X010038Y011317D01*
X010108Y011247D01*
X010837Y011247D01*
X010908Y011317D01*
X010908Y011436D01*
X010946Y011420D01*
X011042Y011420D01*
X011130Y011457D01*
X011157Y011484D01*
X011157Y011317D01*
X011228Y011247D01*
X011957Y011247D01*
X012027Y011317D01*
X012027Y011886D01*
X012424Y012283D01*
X012424Y012424D01*
X012424Y013128D01*
X012684Y013128D01*
X012633Y013076D01*
X012633Y012187D01*
X012703Y012117D01*
X014302Y012117D01*
X014373Y012187D01*
X014373Y013076D01*
X014321Y013128D01*
X015016Y013128D01*
X015016Y013021D01*
X015086Y012951D01*
X015579Y012951D01*
X015649Y013021D01*
X015649Y013553D01*
X015604Y013598D01*
X015628Y013612D01*
X015657Y013642D01*
X015679Y013678D01*
X015689Y013719D01*
X015689Y013918D01*
X015371Y013918D01*
X015371Y013995D01*
X015689Y013995D01*
X015689Y014194D01*
X015679Y014235D01*
X015657Y014271D01*
X015629Y014300D01*
X015649Y014321D01*
X015649Y014853D01*
X015604Y014898D01*
X015628Y014912D01*
X015657Y014942D01*
X015679Y014978D01*
X015689Y015019D01*
X015689Y015218D01*
X015371Y015218D01*
X015371Y015295D01*
X015294Y015295D01*
X015294Y015633D01*
X015115Y015633D01*
X015074Y015622D01*
X015037Y015601D01*
X015008Y015571D01*
X014987Y015535D01*
X014976Y015494D01*
X014976Y015295D01*
X015294Y015295D01*
X015294Y015218D01*
X014976Y015218D01*
X014976Y015019D01*
X014987Y014978D01*
X015008Y014942D01*
X015037Y014912D01*
X015061Y014898D01*
X015016Y014853D01*
X015016Y014537D01*
X014892Y014413D01*
X014793Y014313D01*
X014793Y013782D01*
X014759Y013749D01*
X014723Y013661D01*
X014723Y013565D01*
X014759Y013477D01*
X014768Y013468D01*
X013936Y013468D01*
X013936Y014318D01*
X013939Y014318D01*
X014028Y014354D01*
X014095Y014422D01*
X014132Y014510D01*
X014132Y014557D01*
X014333Y014557D01*
X014333Y015052D01*
X014452Y015052D01*
X014452Y014557D01*
X014709Y014557D01*
X014749Y014568D01*
X014786Y014589D01*
X014816Y014618D01*
X014837Y014655D01*
X014848Y014696D01*
X014848Y015052D01*
X014453Y015052D01*
X014453Y015172D01*
X014848Y015172D01*
X014848Y015528D01*
X014837Y015568D01*
X014816Y015605D01*
X014786Y015635D01*
X014749Y015656D01*
X014709Y015667D01*
X014452Y015667D01*
X014452Y015172D01*
X014333Y015172D01*
X014333Y015667D01*
X014076Y015667D01*
X014036Y015656D01*
X013999Y015635D01*
X013970Y015605D01*
X013949Y015568D01*
X013938Y015528D01*
X013938Y015172D01*
X014332Y015172D01*
X014332Y015052D01*
X013938Y015052D01*
X013938Y014798D01*
X013936Y014798D01*
X013936Y014880D01*
X013908Y014908D01*
X013908Y015556D01*
X013837Y015627D01*
X013148Y015627D01*
X013078Y015556D01*
X013078Y014856D01*
X013008Y014926D01*
X013008Y015556D01*
X012937Y015627D01*
X012681Y015627D01*
X012991Y015936D01*
X012991Y015960D01*
X013189Y015762D01*
X013537Y015762D01*
X013783Y016008D01*
X013783Y016356D01*
X013537Y016602D01*
X013189Y016602D01*
X012991Y016404D01*
X012991Y016903D01*
X013172Y016722D01*
X013323Y016722D01*
X013323Y017141D01*
X013403Y017141D01*
X013403Y016722D01*
X013553Y016722D01*
X013823Y016991D01*
X013823Y017142D01*
X013403Y017142D01*
X013403Y017222D01*
X013823Y017222D01*
X013823Y017372D01*
X013553Y017642D01*
X013403Y017642D01*
X013403Y017222D01*
X013323Y017222D01*
X013323Y017642D01*
X013172Y017642D01*
X012991Y017460D01*
X012991Y017574D01*
X013189Y017772D01*
X013199Y017762D01*
X013547Y017762D01*
X013793Y018008D01*
X013793Y018356D01*
X013558Y018591D01*
X013558Y018772D01*
X013790Y019004D01*
X013790Y019352D01*
X013544Y019598D01*
X013196Y019598D01*
X012950Y019352D01*
X012950Y019004D01*
X013196Y018758D01*
X013218Y018758D01*
X013218Y018602D01*
X013199Y018602D01*
X012953Y018356D01*
X012953Y018017D01*
X012750Y017815D01*
X012651Y017715D01*
X012651Y017487D01*
X012537Y017602D01*
X012189Y017602D01*
X011983Y017396D01*
X011983Y017574D01*
X012185Y017776D01*
X012199Y017762D01*
X012547Y017762D01*
X012793Y018008D01*
X012793Y018356D01*
X012550Y018598D01*
X012550Y018764D01*
X012790Y019004D01*
X012790Y019352D01*
X012544Y019598D01*
X012196Y019598D01*
X011950Y019352D01*
X011950Y019004D01*
X012196Y018758D01*
X012210Y018758D01*
X012210Y018602D01*
X012199Y018602D01*
X011953Y018356D01*
X011953Y018025D01*
X011833Y017905D01*
X011833Y018142D01*
X011413Y018142D01*
X011413Y018222D01*
X011833Y018222D01*
X011833Y018503D01*
X011822Y018543D01*
X011801Y018580D01*
X011771Y018610D01*
X011734Y018631D01*
X011694Y018642D01*
X011413Y018642D01*
X011413Y018222D01*
X011333Y018222D01*
X011333Y018642D01*
X011051Y018642D01*
X011011Y018631D01*
X010974Y018610D01*
X010945Y018580D01*
X010924Y018543D01*
X010913Y018503D01*
X010913Y018222D01*
X011332Y018222D01*
X011332Y018142D01*
X010913Y018142D01*
X010913Y017861D01*
X010924Y017820D01*
X010945Y017783D01*
X010974Y017754D01*
X011011Y017733D01*
X011051Y017722D01*
X011333Y017722D01*
X011333Y018141D01*
X011413Y018141D01*
X011413Y017722D01*
X011650Y017722D01*
X011643Y017715D01*
X011643Y017574D01*
X011643Y017495D01*
X011537Y017602D01*
X011189Y017602D01*
X011147Y017560D01*
X011134Y017592D01*
X011067Y017659D01*
X010979Y017696D01*
X010883Y017696D01*
X010795Y017659D01*
X010728Y017592D01*
X010691Y017503D01*
X010691Y017447D01*
X010537Y017602D01*
X010534Y017602D01*
X010534Y017806D01*
X010712Y017806D01*
X010782Y017877D01*
X010782Y018567D01*
X010712Y018637D01*
X010101Y018637D01*
X010033Y018569D01*
X009964Y018637D01*
X009353Y018637D01*
X009283Y018567D01*
X009283Y017877D01*
X009353Y017806D01*
X009627Y017806D01*
X009627Y017511D01*
X009537Y017602D01*
X009189Y017602D01*
X009085Y017498D01*
X009085Y018645D01*
X009207Y018767D01*
X009544Y018767D01*
X009790Y019013D01*
X009790Y019361D01*
X009544Y019607D01*
X009196Y019607D01*
X008950Y019361D01*
X008950Y019013D01*
X008961Y019001D01*
X008745Y018786D01*
X008745Y018645D01*
X008745Y017393D01*
X008537Y017602D01*
X008189Y017602D01*
X007943Y017356D01*
X007943Y017008D01*
X008189Y016762D01*
X008240Y016762D01*
X008234Y016747D01*
X008234Y016652D01*
X008255Y016602D01*
X008189Y016602D01*
X007943Y016356D01*
X007943Y016008D01*
X008026Y015925D01*
X007700Y015925D01*
X007783Y016008D01*
X007783Y016356D01*
X007537Y016602D01*
X007189Y016602D01*
X007069Y016483D01*
X007069Y016881D01*
X007189Y016762D01*
X007537Y016762D01*
X007783Y017008D01*
X007783Y017356D01*
X007537Y017602D01*
X007189Y017602D01*
X007069Y017483D01*
X007069Y017637D01*
X008199Y018767D01*
X008544Y018767D01*
X008790Y019013D01*
X008790Y019361D01*
X008544Y019607D01*
X008196Y019607D01*
X007950Y019361D01*
X007950Y019013D01*
X007957Y019005D01*
X006730Y017778D01*
X006730Y017637D01*
X006730Y017409D01*
X006537Y017602D01*
X006189Y017602D01*
X005943Y017356D01*
X005943Y017008D01*
X006018Y016933D01*
X005998Y016933D01*
X005965Y016966D01*
X005876Y017003D01*
X005781Y017003D01*
X005775Y017000D01*
X005783Y017008D01*
X005783Y017356D01*
X005537Y017602D01*
X005313Y017602D01*
X005313Y017644D01*
X005475Y017806D01*
X005673Y017806D01*
X005652Y017755D01*
X005652Y017660D01*
X005688Y017572D01*
X005756Y017504D01*
X005844Y017468D01*
X005939Y017468D01*
X006028Y017504D01*
X006095Y017572D01*
X006132Y017660D01*
X006132Y017707D01*
X006231Y017806D01*
X006722Y017806D01*
X006792Y017877D01*
X006792Y018482D01*
X006907Y018482D01*
X007006Y018582D01*
X007193Y018769D01*
X007196Y018767D01*
X007544Y018767D01*
X007790Y019013D01*
X007790Y019361D01*
X007724Y019426D02*
X008015Y019426D01*
X008133Y019544D02*
X007606Y019544D01*
X007133Y019544D02*
X006820Y019544D01*
X006830Y019426D02*
X007015Y019426D01*
X006950Y019307D02*
X006830Y019307D01*
X006950Y019189D02*
X006410Y019189D01*
X006370Y019187D02*
X006333Y019219D01*
X004380Y019219D01*
X004369Y019173D01*
X004317Y019156D01*
X003939Y018778D01*
X003939Y015755D01*
X002931Y015755D01*
X002490Y015314D01*
X002490Y013361D01*
X002553Y013361D01*
X002553Y012290D01*
X003120Y012290D01*
X003309Y012479D01*
X003939Y012479D01*
X003993Y012532D01*
X004002Y012542D01*
X004002Y012794D01*
X004380Y013172D01*
X004313Y013052D02*
X004265Y013004D01*
X004251Y013030D01*
X004221Y013060D01*
X004184Y013081D01*
X004144Y013092D01*
X003998Y013092D01*
X003998Y012537D01*
X003988Y012537D01*
X003988Y013092D01*
X003841Y013092D01*
X003801Y013081D01*
X003764Y013060D01*
X003735Y013030D01*
X003714Y012993D01*
X003704Y012958D01*
X003672Y012971D01*
X003624Y012971D01*
X003549Y013046D01*
X003636Y013133D01*
X004513Y014010D01*
X004613Y014110D01*
X004613Y014512D01*
X004672Y014512D01*
X004743Y014582D01*
X004813Y014512D01*
X005068Y014512D01*
X005155Y014425D01*
X005254Y014325D01*
X006073Y014325D01*
X006214Y014325D01*
X006314Y014425D01*
X006314Y015306D01*
X006970Y015963D01*
X006979Y015972D01*
X007116Y015834D01*
X007107Y015825D01*
X006730Y015447D01*
X006730Y015306D01*
X006730Y013998D01*
X005728Y012996D01*
X005672Y013052D01*
X005409Y013052D01*
X005439Y013124D01*
X005439Y013220D01*
X005402Y013308D01*
X005335Y013376D01*
X005246Y013412D01*
X005151Y013412D01*
X005063Y013376D01*
X004995Y013308D01*
X004959Y013220D01*
X004959Y013124D01*
X004989Y013052D01*
X004813Y013052D01*
X004743Y012981D01*
X004743Y012082D01*
X004743Y012981D01*
X004672Y013052D01*
X004313Y013052D01*
X004286Y013024D02*
X004254Y013024D01*
X003998Y013024D02*
X003988Y013024D01*
X003988Y012906D02*
X003998Y012906D01*
X003988Y012787D02*
X003998Y012787D01*
X003988Y012669D02*
X003998Y012669D01*
X003988Y012550D02*
X003998Y012550D01*
X003988Y012432D02*
X003998Y012432D01*
X003988Y012313D02*
X003998Y012313D01*
X003988Y012195D02*
X003998Y012195D01*
X003988Y012076D02*
X003998Y012076D01*
X004129Y011958D02*
X001992Y011958D01*
X001992Y012076D02*
X003712Y012076D01*
X003703Y012195D02*
X001990Y012195D01*
X001941Y012313D02*
X003703Y012313D01*
X003703Y012432D02*
X003249Y012432D01*
X003249Y012550D02*
X003465Y012550D01*
X003390Y012669D02*
X003249Y012669D01*
X003291Y012787D02*
X003327Y012787D01*
X003571Y013024D02*
X003731Y013024D01*
X003646Y013143D02*
X004959Y013143D01*
X004976Y013261D02*
X003765Y013261D01*
X003883Y013380D02*
X005074Y013380D01*
X005324Y013380D02*
X006111Y013380D01*
X005993Y013261D02*
X005421Y013261D01*
X005439Y013143D02*
X005874Y013143D01*
X005756Y013024D02*
X005700Y013024D01*
X005999Y012787D02*
X007294Y012787D01*
X007277Y012794D02*
X007333Y012787D01*
X007340Y012731D01*
X008285Y012731D01*
X008285Y012605D01*
X008343Y012562D01*
X008338Y012550D02*
X008348Y012550D01*
X008338Y012432D02*
X008348Y012432D01*
X008338Y012313D02*
X008348Y012313D01*
X008338Y012195D02*
X008348Y012195D01*
X008338Y012076D02*
X008348Y012076D01*
X008539Y011958D02*
X007927Y011958D01*
X007927Y012076D02*
X008077Y012076D01*
X008053Y012195D02*
X007859Y012195D01*
X008053Y012313D02*
X005743Y012313D01*
X005743Y012195D02*
X006006Y012195D01*
X005938Y012076D02*
X005737Y012076D01*
X005938Y011958D02*
X004613Y011958D01*
X004737Y012076D02*
X004749Y012076D01*
X004743Y012195D02*
X004743Y012195D01*
X004743Y012313D02*
X004743Y012313D01*
X004743Y012432D02*
X004743Y012432D01*
X004743Y012550D02*
X004743Y012550D01*
X004743Y012669D02*
X004743Y012669D01*
X004743Y012787D02*
X004743Y012787D01*
X004743Y012906D02*
X004743Y012906D01*
X004700Y013024D02*
X004786Y013024D01*
X005243Y012535D02*
X005243Y012082D01*
X005243Y012535D01*
X005243Y012535D01*
X005243Y012432D02*
X005243Y012432D01*
X005243Y012313D02*
X005243Y012313D01*
X005243Y012195D02*
X005243Y012195D01*
X005237Y012076D02*
X005249Y012076D01*
X005743Y012432D02*
X007056Y012432D01*
X006976Y012550D02*
X005762Y012550D01*
X005881Y012669D02*
X006976Y012669D01*
X006976Y012906D02*
X006118Y012906D01*
X006236Y013024D02*
X006976Y013024D01*
X007057Y013143D02*
X006355Y013143D01*
X006396Y012983D02*
X006396Y012794D01*
X007277Y012794D01*
X007371Y012787D02*
X008053Y012787D01*
X008053Y012669D02*
X007689Y012669D01*
X007689Y012550D02*
X008053Y012550D01*
X008053Y012432D02*
X007609Y012432D01*
X007371Y012432D02*
X007294Y012432D01*
X007294Y012550D02*
X007371Y012550D01*
X007371Y012669D02*
X007294Y012669D01*
X007689Y012906D02*
X008053Y012906D01*
X008064Y013024D02*
X007689Y013024D01*
X007608Y013143D02*
X008864Y013143D01*
X008917Y013261D02*
X007649Y013261D01*
X007649Y013380D02*
X009103Y013380D01*
X008955Y013499D02*
X007649Y013499D01*
X007649Y013617D02*
X008927Y013617D01*
X008958Y013736D02*
X007636Y013736D01*
X007510Y013854D02*
X009064Y013854D01*
X008945Y013973D02*
X007679Y013973D01*
X007748Y014091D02*
X008827Y014091D01*
X008708Y014210D02*
X008430Y014210D01*
X008548Y014328D02*
X008589Y014328D01*
X007170Y013854D02*
X007066Y013854D01*
X007029Y013736D02*
X006948Y013736D01*
X007016Y013617D02*
X006829Y013617D01*
X006710Y013499D02*
X007016Y013499D01*
X007016Y013380D02*
X006592Y013380D01*
X006473Y013261D02*
X007016Y013261D01*
X006348Y013617D02*
X004120Y013617D01*
X004002Y013499D02*
X006230Y013499D01*
X006467Y013736D02*
X004239Y013736D01*
X004357Y013854D02*
X006585Y013854D01*
X006704Y013973D02*
X004476Y013973D01*
X004595Y014091D02*
X006730Y014091D01*
X006730Y014210D02*
X004613Y014210D01*
X004613Y014328D02*
X005251Y014328D01*
X005132Y014447D02*
X004613Y014447D01*
X004726Y014565D02*
X004759Y014565D01*
X004743Y014582D02*
X004743Y015247D01*
X004743Y015247D01*
X004743Y014582D01*
X004743Y014684D02*
X004743Y014684D01*
X004743Y014803D02*
X004743Y014803D01*
X004743Y014921D02*
X004743Y014921D01*
X004743Y015040D02*
X004743Y015040D01*
X004743Y015158D02*
X004743Y015158D01*
X004243Y015158D02*
X004243Y015158D01*
X004243Y015040D02*
X004243Y015040D01*
X004243Y014921D02*
X004243Y014921D01*
X004243Y014803D02*
X004243Y014803D01*
X004243Y014684D02*
X004243Y014684D01*
X004226Y014565D02*
X004259Y014565D01*
X004273Y014447D02*
X003927Y014447D01*
X003860Y014328D02*
X004273Y014328D01*
X004232Y014210D02*
X003605Y014210D01*
X003605Y014091D02*
X004114Y014091D01*
X003995Y013973D02*
X003605Y013973D01*
X003605Y013854D02*
X003877Y013854D01*
X003758Y013736D02*
X003605Y013736D01*
X003605Y013617D02*
X003640Y013617D01*
X002931Y013361D02*
X002933Y013356D01*
X002931Y013361D02*
X002553Y013361D01*
X002490Y013361D02*
X001356Y013361D01*
X001356Y014243D01*
X001333Y014248D01*
X001393Y014210D02*
X002517Y014210D01*
X002517Y014328D02*
X001788Y014328D01*
X001788Y014308D02*
X001788Y014525D01*
X001777Y014565D01*
X001756Y014602D01*
X001726Y014632D01*
X001703Y014645D01*
X001748Y014690D01*
X001748Y015301D01*
X001678Y015372D01*
X001526Y015372D01*
X001526Y015396D01*
X002195Y015396D01*
X002228Y015362D01*
X002316Y015326D01*
X002412Y015326D01*
X002500Y015362D01*
X002568Y015430D01*
X002604Y015518D01*
X002604Y015614D01*
X002568Y015702D01*
X002500Y015769D01*
X002470Y015782D01*
X002648Y015782D01*
X002718Y015852D01*
X002718Y015909D01*
X002757Y015893D01*
X002853Y015893D01*
X002941Y015929D01*
X002981Y015969D01*
X003189Y015762D01*
X003537Y015762D01*
X003783Y016008D01*
X003783Y016356D01*
X003537Y016602D01*
X003189Y016602D01*
X002943Y016356D01*
X002943Y016335D01*
X002941Y016336D01*
X002853Y016373D01*
X002757Y016373D01*
X002718Y016356D01*
X002718Y016463D01*
X002649Y016532D01*
X002718Y016600D01*
X002718Y017065D01*
X002943Y017290D01*
X002943Y017008D01*
X003189Y016762D01*
X003537Y016762D01*
X003783Y017008D01*
X003783Y017356D01*
X003537Y017602D01*
X003254Y017602D01*
X003379Y017727D01*
X003406Y017753D01*
X003543Y017753D01*
X003789Y017999D01*
X003789Y018347D01*
X003543Y018593D01*
X003427Y018593D01*
X003479Y018645D01*
X003479Y018753D01*
X003543Y018753D01*
X003789Y018999D01*
X003789Y019347D01*
X003543Y019593D01*
X003195Y019593D01*
X002949Y019347D01*
X002949Y018999D01*
X003062Y018885D01*
X002675Y018885D01*
X002789Y018999D01*
X002789Y019347D01*
X002543Y019593D01*
X002195Y019593D01*
X001949Y019347D01*
X001949Y019074D01*
X001758Y019074D01*
X001758Y019211D01*
X001688Y019282D01*
X000998Y019282D01*
X000927Y019211D01*
X000927Y018600D01*
X000996Y018532D01*
X000927Y018463D01*
X000927Y017852D01*
X000998Y017782D01*
X001688Y017782D01*
X001758Y017852D01*
X001758Y017868D01*
X001812Y017846D01*
X001908Y017846D01*
X001996Y017882D01*
X002031Y017917D01*
X002056Y017892D01*
X001486Y017322D01*
X000988Y017322D01*
X000917Y017251D01*
X000917Y016640D01*
X000986Y016572D01*
X000917Y016503D01*
X000917Y015892D01*
X000988Y015822D01*
X001186Y015822D01*
X001186Y015636D01*
X001186Y015495D01*
X001186Y015372D01*
X000988Y015372D01*
X000917Y015301D01*
X000917Y014690D01*
X000962Y014645D01*
X000939Y014632D01*
X000909Y014602D01*
X000888Y014565D01*
X000877Y014525D01*
X000877Y014308D01*
X001272Y014308D01*
X001272Y014188D01*
X000877Y014188D01*
X000877Y013971D01*
X000888Y013930D01*
X000909Y013894D01*
X000939Y013864D01*
X000976Y013843D01*
X001016Y013832D01*
X001273Y013832D01*
X001273Y014188D01*
X001392Y014188D01*
X001392Y013832D01*
X001649Y013832D01*
X001690Y013843D01*
X001726Y013864D01*
X001756Y013894D01*
X001777Y013930D01*
X001788Y013971D01*
X001788Y014188D01*
X001393Y014188D01*
X001393Y014308D01*
X001788Y014308D01*
X001788Y014447D02*
X002517Y014447D01*
X002530Y014565D02*
X001777Y014565D01*
X001742Y014684D02*
X002523Y014684D01*
X002517Y014803D02*
X001748Y014803D01*
X001748Y014921D02*
X002517Y014921D01*
X002517Y015040D02*
X001748Y015040D01*
X001748Y015158D02*
X002517Y015158D01*
X002517Y015277D02*
X001748Y015277D01*
X001526Y015395D02*
X002195Y015395D01*
X002533Y015395D02*
X003743Y015395D01*
X003743Y015277D02*
X003348Y015277D01*
X003348Y015158D02*
X003743Y015158D01*
X003743Y015040D02*
X003348Y015040D01*
X003348Y014921D02*
X003743Y014921D01*
X003743Y014803D02*
X003368Y014803D01*
X003486Y014684D02*
X003537Y014684D01*
X004243Y015277D02*
X004243Y015277D01*
X004243Y015395D02*
X004243Y015395D01*
X004210Y015514D02*
X004275Y015514D01*
X004647Y015632D02*
X002596Y015632D01*
X002602Y015514D02*
X003775Y015514D01*
X003644Y015869D02*
X004081Y015869D01*
X003962Y015988D02*
X003763Y015988D01*
X003783Y016107D02*
X003943Y016107D01*
X003943Y016225D02*
X003783Y016225D01*
X003783Y016344D02*
X003943Y016344D01*
X004049Y016462D02*
X003676Y016462D01*
X003558Y016581D02*
X004168Y016581D01*
X004133Y016818D02*
X003593Y016818D01*
X003711Y016936D02*
X004014Y016936D01*
X003943Y017055D02*
X003783Y017055D01*
X003783Y017173D02*
X003943Y017173D01*
X003943Y017292D02*
X003783Y017292D01*
X003728Y017411D02*
X003997Y017411D01*
X004116Y017529D02*
X003609Y017529D01*
X003556Y017766D02*
X004181Y017766D01*
X004063Y017885D02*
X003674Y017885D01*
X003789Y018003D02*
X003949Y018003D01*
X003949Y018122D02*
X003789Y018122D01*
X003789Y018240D02*
X003949Y018240D01*
X003961Y018359D02*
X003776Y018359D01*
X003658Y018477D02*
X004079Y018477D01*
X004651Y018596D02*
X003430Y018596D01*
X003479Y018714D02*
X004176Y018714D01*
X004329Y018714D02*
X004409Y018714D01*
X004409Y018833D02*
X004329Y018833D01*
X004329Y018952D02*
X004409Y018952D01*
X004409Y019070D02*
X004329Y019070D01*
X004328Y019189D02*
X003789Y019189D01*
X003789Y019307D02*
X003909Y019307D01*
X003971Y019426D02*
X003709Y019426D01*
X003591Y019544D02*
X004090Y019544D01*
X004329Y019544D02*
X004409Y019544D01*
X004409Y019612D02*
X004409Y019213D01*
X004329Y019213D01*
X004329Y019612D01*
X004409Y019612D01*
X004409Y019426D02*
X004329Y019426D01*
X004329Y019307D02*
X004409Y019307D01*
X004409Y019189D02*
X006329Y019189D01*
X005910Y019307D02*
X004829Y019307D01*
X004766Y019426D02*
X005910Y019426D01*
X005919Y019544D02*
X004648Y019544D01*
X004829Y019070D02*
X005910Y019070D01*
X005910Y018952D02*
X004798Y018952D01*
X004679Y018833D02*
X005918Y018833D01*
X006830Y018952D02*
X006895Y018952D01*
X006950Y019070D02*
X006830Y019070D01*
X007139Y018714D02*
X007666Y018714D01*
X007610Y018833D02*
X007785Y018833D01*
X007728Y018952D02*
X007903Y018952D01*
X007950Y019070D02*
X007790Y019070D01*
X008147Y018714D02*
X008745Y018714D01*
X008745Y018596D02*
X008028Y018596D01*
X007910Y018477D02*
X008745Y018477D01*
X008745Y018359D02*
X007791Y018359D01*
X007673Y018240D02*
X008745Y018240D01*
X008745Y018122D02*
X007554Y018122D01*
X007436Y018003D02*
X008745Y018003D01*
X008745Y017885D02*
X007317Y017885D01*
X007199Y017766D02*
X008745Y017766D01*
X008745Y017648D02*
X007080Y017648D01*
X007069Y017529D02*
X007116Y017529D01*
X006730Y017529D02*
X006609Y017529D01*
X006728Y017411D02*
X006730Y017411D01*
X006730Y017648D02*
X006127Y017648D01*
X006116Y017529D02*
X006053Y017529D01*
X005997Y017411D02*
X005728Y017411D01*
X005731Y017529D02*
X005609Y017529D01*
X005657Y017648D02*
X005316Y017648D01*
X005435Y017766D02*
X005656Y017766D01*
X006191Y017766D02*
X006730Y017766D01*
X006792Y017885D02*
X006836Y017885D01*
X006792Y018003D02*
X006955Y018003D01*
X007073Y018122D02*
X006792Y018122D01*
X006792Y018240D02*
X007192Y018240D01*
X007310Y018359D02*
X006792Y018359D01*
X006792Y018477D02*
X007429Y018477D01*
X007548Y018596D02*
X007020Y018596D01*
X007609Y017529D02*
X008116Y017529D01*
X007997Y017411D02*
X007728Y017411D01*
X007783Y017292D02*
X007943Y017292D01*
X007943Y017173D02*
X007783Y017173D01*
X007783Y017055D02*
X007943Y017055D01*
X008014Y016936D02*
X007711Y016936D01*
X007593Y016818D02*
X008133Y016818D01*
X008234Y016699D02*
X007069Y016699D01*
X007069Y016581D02*
X007168Y016581D01*
X007133Y016818D02*
X007069Y016818D01*
X007558Y016581D02*
X008168Y016581D01*
X008049Y016462D02*
X007676Y016462D01*
X007783Y016344D02*
X007943Y016344D01*
X007943Y016225D02*
X007783Y016225D01*
X007783Y016107D02*
X007943Y016107D01*
X007962Y015988D02*
X007763Y015988D01*
X007081Y015869D02*
X006877Y015869D01*
X006758Y015751D02*
X007033Y015751D01*
X006915Y015632D02*
X006640Y015632D01*
X006521Y015514D02*
X006796Y015514D01*
X006730Y015395D02*
X006402Y015395D01*
X006314Y015277D02*
X006730Y015277D01*
X006730Y015158D02*
X006314Y015158D01*
X006314Y015040D02*
X006730Y015040D01*
X006730Y014921D02*
X006314Y014921D01*
X006314Y014803D02*
X006730Y014803D01*
X006730Y014684D02*
X006314Y014684D01*
X006314Y014565D02*
X006730Y014565D01*
X006730Y014447D02*
X006314Y014447D01*
X006217Y014328D02*
X006730Y014328D01*
X008338Y013024D02*
X008348Y013024D01*
X008338Y012906D02*
X008348Y012906D01*
X008338Y012787D02*
X008348Y012787D01*
X008338Y012669D02*
X008348Y012669D01*
X008608Y012076D02*
X008619Y012076D01*
X008389Y011839D02*
X007927Y011839D01*
X007927Y011483D02*
X008222Y011483D01*
X008278Y011427D02*
X008278Y011427D01*
X008304Y011401D02*
X008304Y011401D01*
X008340Y011365D02*
X007927Y011365D01*
X007057Y011365D02*
X006808Y011365D01*
X006808Y011483D02*
X007057Y011483D01*
X007057Y011602D02*
X006808Y011602D01*
X006808Y011720D02*
X007057Y011720D01*
X007057Y011839D02*
X006808Y011839D01*
X006808Y011958D02*
X007057Y011958D01*
X007057Y012076D02*
X006808Y012076D01*
X006739Y012195D02*
X007126Y012195D01*
X005938Y011553D02*
X004360Y011553D01*
X004327Y011520D01*
X004239Y011483D01*
X004143Y011483D02*
X001771Y011483D01*
X001880Y011602D02*
X003981Y011602D01*
X003951Y011720D02*
X001929Y011720D01*
X001978Y011839D02*
X003979Y011839D01*
X002616Y012432D02*
X001892Y012432D01*
X001801Y012550D02*
X002616Y012550D01*
X002616Y012669D02*
X001683Y012669D01*
X001443Y012787D02*
X002616Y012787D01*
X002616Y012906D02*
X000543Y012906D01*
X000543Y013024D02*
X002625Y013024D01*
X002576Y013143D02*
X000543Y013143D01*
X000543Y013261D02*
X002576Y013261D01*
X002894Y013380D02*
X000543Y013380D01*
X000543Y013499D02*
X002576Y013499D01*
X002582Y013617D02*
X000543Y013617D01*
X000543Y013736D02*
X002762Y013736D01*
X002756Y013854D02*
X001709Y013854D01*
X001788Y013973D02*
X002517Y013973D01*
X002517Y014091D02*
X001788Y014091D01*
X001392Y014091D02*
X001273Y014091D01*
X001273Y013973D02*
X001392Y013973D01*
X001392Y013854D02*
X001273Y013854D01*
X000956Y013854D02*
X000543Y013854D01*
X000543Y013973D02*
X000877Y013973D01*
X000877Y014091D02*
X000543Y014091D01*
X000543Y014210D02*
X001272Y014210D01*
X000877Y014328D02*
X000543Y014328D01*
X000543Y014447D02*
X000877Y014447D01*
X000888Y014565D02*
X000543Y014565D01*
X000543Y014684D02*
X000923Y014684D01*
X000917Y014803D02*
X000543Y014803D01*
X000543Y014921D02*
X000917Y014921D01*
X000917Y015040D02*
X000543Y015040D01*
X000543Y015158D02*
X000917Y015158D01*
X000917Y015277D02*
X000543Y015277D01*
X000543Y015395D02*
X001186Y015395D01*
X001186Y015514D02*
X000543Y015514D01*
X000543Y015632D02*
X001186Y015632D01*
X001186Y015751D02*
X000543Y015751D01*
X000543Y015869D02*
X000940Y015869D01*
X000917Y015988D02*
X000543Y015988D01*
X000543Y016107D02*
X000917Y016107D01*
X000917Y016225D02*
X000543Y016225D01*
X000543Y016344D02*
X000917Y016344D01*
X000917Y016462D02*
X000543Y016462D01*
X000543Y016581D02*
X000977Y016581D01*
X000917Y016699D02*
X000543Y016699D01*
X000543Y016818D02*
X000917Y016818D01*
X000917Y016936D02*
X000543Y016936D01*
X000543Y017055D02*
X000917Y017055D01*
X000917Y017173D02*
X000543Y017173D01*
X000543Y017292D02*
X000958Y017292D01*
X000543Y017411D02*
X001575Y017411D01*
X001693Y017529D02*
X000543Y017529D01*
X000543Y017648D02*
X001812Y017648D01*
X001930Y017766D02*
X000543Y017766D01*
X000543Y017885D02*
X000927Y017885D01*
X000927Y018003D02*
X000543Y018003D01*
X000543Y018122D02*
X000927Y018122D01*
X000927Y018240D02*
X000543Y018240D01*
X000543Y018359D02*
X000927Y018359D01*
X000941Y018477D02*
X000543Y018477D01*
X000543Y018596D02*
X000931Y018596D01*
X000927Y018714D02*
X000543Y018714D01*
X000543Y018833D02*
X000927Y018833D01*
X000927Y018952D02*
X000543Y018952D01*
X000543Y019070D02*
X000927Y019070D01*
X000927Y019189D02*
X000543Y019189D01*
X000543Y019307D02*
X001949Y019307D01*
X001949Y019189D02*
X001758Y019189D01*
X002028Y019426D02*
X000543Y019426D01*
X000543Y019544D02*
X002146Y019544D01*
X002591Y019544D02*
X003146Y019544D01*
X003028Y019426D02*
X002709Y019426D01*
X002789Y019307D02*
X002949Y019307D01*
X002949Y019189D02*
X002789Y019189D01*
X002789Y019070D02*
X002949Y019070D01*
X002996Y018952D02*
X002741Y018952D01*
X003623Y018833D02*
X004058Y018833D01*
X003939Y018952D02*
X003741Y018952D01*
X003789Y019070D02*
X003909Y019070D01*
X004561Y018714D02*
X004651Y018714D01*
X004651Y017766D02*
X004556Y017766D01*
X004651Y017648D02*
X003300Y017648D01*
X002943Y017173D02*
X002826Y017173D01*
X002718Y017055D02*
X002943Y017055D01*
X003014Y016936D02*
X002718Y016936D01*
X002718Y016818D02*
X003133Y016818D01*
X003168Y016581D02*
X002698Y016581D01*
X002718Y016699D02*
X004651Y016699D01*
X004651Y016581D02*
X004558Y016581D01*
X004593Y016818D02*
X004651Y016818D01*
X005783Y017055D02*
X005943Y017055D01*
X005943Y017173D02*
X005783Y017173D01*
X005783Y017292D02*
X005943Y017292D01*
X005994Y016936D02*
X006014Y016936D01*
X004651Y017529D02*
X004609Y017529D01*
X003049Y016462D02*
X002718Y016462D01*
X002923Y016344D02*
X002943Y016344D01*
X003081Y015869D02*
X002718Y015869D01*
X002518Y015751D02*
X004651Y015751D01*
X004644Y015869D02*
X004651Y015869D01*
X002049Y017885D02*
X001999Y017885D01*
X008609Y017529D02*
X008745Y017529D01*
X008745Y017411D02*
X008728Y017411D01*
X009085Y017529D02*
X009116Y017529D01*
X009085Y017648D02*
X009627Y017648D01*
X009627Y017766D02*
X009085Y017766D01*
X009085Y017885D02*
X009283Y017885D01*
X009283Y018003D02*
X009085Y018003D01*
X009085Y018122D02*
X009283Y018122D01*
X009283Y018240D02*
X009085Y018240D01*
X009085Y018359D02*
X009283Y018359D01*
X009283Y018477D02*
X009085Y018477D01*
X009085Y018596D02*
X009312Y018596D01*
X009155Y018714D02*
X012210Y018714D01*
X012193Y018596D02*
X011785Y018596D01*
X011833Y018477D02*
X012074Y018477D01*
X011956Y018359D02*
X011833Y018359D01*
X011833Y018240D02*
X011953Y018240D01*
X011953Y018122D02*
X011833Y018122D01*
X011833Y018003D02*
X011931Y018003D01*
X012175Y017766D02*
X012194Y017766D01*
X012056Y017648D02*
X012651Y017648D01*
X012651Y017529D02*
X012609Y017529D01*
X012551Y017766D02*
X012702Y017766D01*
X012669Y017885D02*
X012821Y017885D01*
X012788Y018003D02*
X012939Y018003D01*
X012953Y018122D02*
X012793Y018122D01*
X012793Y018240D02*
X012953Y018240D01*
X012956Y018359D02*
X012789Y018359D01*
X012671Y018477D02*
X013074Y018477D01*
X013193Y018596D02*
X012552Y018596D01*
X012550Y018714D02*
X013218Y018714D01*
X013120Y018833D02*
X012619Y018833D01*
X012737Y018952D02*
X013002Y018952D01*
X012950Y019070D02*
X012790Y019070D01*
X012790Y019189D02*
X012950Y019189D01*
X012950Y019307D02*
X012790Y019307D01*
X012715Y019426D02*
X013024Y019426D01*
X013142Y019544D02*
X012597Y019544D01*
X012142Y019544D02*
X011816Y019544D01*
X011830Y019426D02*
X012024Y019426D01*
X011950Y019307D02*
X011830Y019307D01*
X011950Y019189D02*
X011410Y019189D01*
X011370Y019178D02*
X011372Y019156D01*
X011372Y018211D01*
X011373Y018182D01*
X011333Y018240D02*
X011413Y018240D01*
X011413Y018122D02*
X011333Y018122D01*
X011333Y018003D02*
X011413Y018003D01*
X011413Y017885D02*
X011333Y017885D01*
X011333Y017766D02*
X011413Y017766D01*
X011643Y017648D02*
X011078Y017648D01*
X010962Y017766D02*
X010534Y017766D01*
X010534Y017648D02*
X010784Y017648D01*
X010702Y017529D02*
X010609Y017529D01*
X010782Y017885D02*
X010913Y017885D01*
X010913Y018003D02*
X010782Y018003D01*
X010782Y018122D02*
X010913Y018122D01*
X010913Y018240D02*
X010782Y018240D01*
X010782Y018359D02*
X010913Y018359D01*
X010913Y018477D02*
X010782Y018477D01*
X010753Y018596D02*
X010961Y018596D01*
X010916Y018833D02*
X009610Y018833D01*
X009728Y018952D02*
X010910Y018952D01*
X010910Y019070D02*
X009790Y019070D01*
X009790Y019189D02*
X011329Y019189D01*
X011330Y019070D02*
X011410Y019070D01*
X011410Y018952D02*
X011330Y018952D01*
X011330Y018833D02*
X011410Y018833D01*
X011413Y018596D02*
X011333Y018596D01*
X011333Y018477D02*
X011413Y018477D01*
X011413Y018359D02*
X011333Y018359D01*
X011823Y018833D02*
X012120Y018833D01*
X012002Y018952D02*
X011830Y018952D01*
X011830Y019070D02*
X011950Y019070D01*
X010910Y019307D02*
X009790Y019307D01*
X009724Y019426D02*
X010910Y019426D01*
X010923Y019544D02*
X009606Y019544D01*
X009133Y019544D02*
X008606Y019544D01*
X008724Y019426D02*
X009015Y019426D01*
X008950Y019307D02*
X008790Y019307D01*
X008790Y019189D02*
X008950Y019189D01*
X008950Y019070D02*
X008790Y019070D01*
X008728Y018952D02*
X008911Y018952D01*
X008793Y018833D02*
X008610Y018833D01*
X010005Y018596D02*
X010060Y018596D01*
X009627Y017529D02*
X009609Y017529D01*
X011609Y017529D02*
X011643Y017529D01*
X011983Y017529D02*
X012116Y017529D01*
X011997Y017411D02*
X011983Y017411D01*
X012991Y017529D02*
X013059Y017529D01*
X013064Y017648D02*
X016930Y017648D01*
X016930Y017766D02*
X014551Y017766D01*
X014547Y017762D02*
X014793Y018008D01*
X014793Y018356D01*
X014566Y018583D01*
X014566Y018780D01*
X014790Y019004D01*
X014790Y019352D01*
X014544Y019598D01*
X014196Y019598D01*
X013950Y019352D01*
X013950Y019004D01*
X014196Y018758D01*
X014226Y018758D01*
X014226Y018602D01*
X014199Y018602D01*
X013953Y018356D01*
X013953Y018008D01*
X014199Y017762D01*
X014547Y017762D01*
X014537Y017602D02*
X014189Y017602D01*
X013943Y017356D01*
X013943Y017008D01*
X014189Y016762D01*
X014537Y016762D01*
X014783Y017008D01*
X014783Y017356D01*
X014537Y017602D01*
X014609Y017529D02*
X015116Y017529D01*
X015189Y017602D02*
X014943Y017356D01*
X014943Y017008D01*
X015189Y016762D01*
X015537Y016762D01*
X015783Y017008D01*
X015783Y017356D01*
X015537Y017602D01*
X015189Y017602D01*
X014997Y017411D02*
X014728Y017411D01*
X014783Y017292D02*
X014943Y017292D01*
X014943Y017173D02*
X014783Y017173D01*
X014783Y017055D02*
X014943Y017055D01*
X015014Y016936D02*
X014711Y016936D01*
X014593Y016818D02*
X015133Y016818D01*
X015189Y016602D02*
X014943Y016356D01*
X014943Y016008D01*
X015189Y015762D01*
X015537Y015762D01*
X015783Y016008D01*
X015783Y016356D01*
X015537Y016602D01*
X015189Y016602D01*
X015168Y016581D02*
X014558Y016581D01*
X014537Y016602D02*
X014189Y016602D01*
X013943Y016356D01*
X013943Y016008D01*
X014189Y015762D01*
X014537Y015762D01*
X014783Y016008D01*
X014783Y016356D01*
X014537Y016602D01*
X014676Y016462D02*
X015049Y016462D01*
X014943Y016344D02*
X014783Y016344D01*
X014783Y016225D02*
X014943Y016225D01*
X014943Y016107D02*
X014783Y016107D01*
X014763Y015988D02*
X014962Y015988D01*
X015081Y015869D02*
X014644Y015869D01*
X014788Y015632D02*
X015113Y015632D01*
X014981Y015514D02*
X014848Y015514D01*
X014848Y015395D02*
X014976Y015395D01*
X014848Y015277D02*
X015294Y015277D01*
X015277Y015251D02*
X015333Y015256D01*
X015340Y015251D01*
X015813Y014778D01*
X015844Y014810D01*
X015844Y016637D01*
X016348Y017141D01*
X016373Y017182D01*
X016413Y017173D02*
X016927Y017173D01*
X016833Y017142D02*
X016413Y017142D01*
X016413Y017222D01*
X016833Y017222D01*
X016833Y017372D01*
X016563Y017642D01*
X016413Y017642D01*
X016413Y017222D01*
X016333Y017222D01*
X016333Y017642D01*
X016182Y017642D01*
X015913Y017372D01*
X015913Y017222D01*
X016332Y017222D01*
X016332Y017142D01*
X015913Y017142D01*
X015913Y016991D01*
X016182Y016722D01*
X016333Y016722D01*
X016333Y017141D01*
X016413Y017141D01*
X016413Y016722D01*
X016563Y016722D01*
X016833Y016991D01*
X016833Y017142D01*
X016833Y017055D02*
X016926Y017055D01*
X016926Y016936D02*
X016778Y016936D01*
X016659Y016818D02*
X016925Y016818D01*
X016924Y016699D02*
X012991Y016699D01*
X012991Y016581D02*
X013168Y016581D01*
X013049Y016462D02*
X012991Y016462D01*
X012991Y016818D02*
X013076Y016818D01*
X013323Y016818D02*
X013403Y016818D01*
X013403Y016936D02*
X013323Y016936D01*
X013323Y017055D02*
X013403Y017055D01*
X013388Y017141D02*
X013363Y017182D01*
X013403Y017173D02*
X013943Y017173D01*
X013943Y017055D02*
X013823Y017055D01*
X013768Y016936D02*
X014014Y016936D01*
X014133Y016818D02*
X013649Y016818D01*
X013558Y016581D02*
X014168Y016581D01*
X014049Y016462D02*
X013676Y016462D01*
X013783Y016344D02*
X013943Y016344D01*
X013943Y016225D02*
X013783Y016225D01*
X013783Y016107D02*
X013943Y016107D01*
X013962Y015988D02*
X013763Y015988D01*
X013644Y015869D02*
X014081Y015869D01*
X013892Y015755D02*
X014396Y015251D01*
X014393Y015112D01*
X014396Y015125D01*
X014396Y015251D01*
X015277Y015251D01*
X015371Y015277D02*
X015953Y015277D01*
X015953Y015395D02*
X015689Y015395D01*
X015689Y015494D02*
X015689Y015295D01*
X015371Y015295D01*
X015371Y015633D01*
X015551Y015633D01*
X015591Y015622D01*
X015628Y015601D01*
X015657Y015571D01*
X015679Y015535D01*
X015689Y015494D01*
X015684Y015514D02*
X015953Y015514D01*
X015953Y015531D02*
X015953Y014832D01*
X016023Y014762D01*
X016722Y014762D01*
X016793Y014832D01*
X016793Y015531D01*
X016722Y015602D01*
X016023Y015602D01*
X015953Y015531D01*
X016199Y015762D02*
X016547Y015762D01*
X016793Y016008D01*
X016793Y016356D01*
X016547Y016602D01*
X016199Y016602D01*
X015953Y016356D01*
X015953Y016008D01*
X016199Y015762D01*
X016091Y015869D02*
X015644Y015869D01*
X015763Y015988D02*
X015972Y015988D01*
X015953Y016107D02*
X015783Y016107D01*
X015783Y016225D02*
X015953Y016225D01*
X015953Y016344D02*
X015783Y016344D01*
X015676Y016462D02*
X016059Y016462D01*
X016178Y016581D02*
X015558Y016581D01*
X015593Y016818D02*
X016086Y016818D01*
X015967Y016936D02*
X015711Y016936D01*
X015783Y017055D02*
X015913Y017055D01*
X015783Y017173D02*
X016332Y017173D01*
X016333Y017055D02*
X016413Y017055D01*
X016413Y016936D02*
X016333Y016936D01*
X016333Y016818D02*
X016413Y016818D01*
X016568Y016581D02*
X016924Y016581D01*
X016923Y016462D02*
X016686Y016462D01*
X016793Y016344D02*
X016922Y016344D01*
X016921Y016225D02*
X016793Y016225D01*
X016793Y016107D02*
X016921Y016107D01*
X016920Y015988D02*
X016773Y015988D01*
X016654Y015869D02*
X016919Y015869D01*
X016919Y015751D02*
X012805Y015751D01*
X012687Y015632D02*
X013997Y015632D01*
X013938Y015514D02*
X013908Y015514D01*
X013908Y015395D02*
X013938Y015395D01*
X013938Y015277D02*
X013908Y015277D01*
X013908Y015158D02*
X014332Y015158D01*
X014333Y015040D02*
X014452Y015040D01*
X014453Y015158D02*
X014976Y015158D01*
X014976Y015040D02*
X014848Y015040D01*
X014848Y014921D02*
X015028Y014921D01*
X015016Y014803D02*
X014848Y014803D01*
X014844Y014684D02*
X015016Y014684D01*
X015016Y014565D02*
X014741Y014565D01*
X014926Y014447D02*
X014105Y014447D01*
X013965Y014328D02*
X014808Y014328D01*
X014793Y014210D02*
X013936Y014210D01*
X013936Y014091D02*
X014793Y014091D01*
X014793Y013973D02*
X013936Y013973D01*
X013936Y013854D02*
X014793Y013854D01*
X014754Y013736D02*
X013936Y013736D01*
X013936Y013617D02*
X014723Y013617D01*
X014750Y013499D02*
X013936Y013499D01*
X014373Y013024D02*
X015016Y013024D01*
X015649Y013024D02*
X015951Y013024D01*
X015951Y013008D02*
X016197Y012762D01*
X016545Y012762D01*
X016791Y013008D01*
X016791Y013356D01*
X016545Y013602D01*
X016197Y013602D01*
X015951Y013356D01*
X015951Y013008D01*
X015951Y013143D02*
X015649Y013143D01*
X015649Y013261D02*
X015951Y013261D01*
X015907Y013361D02*
X015907Y012668D01*
X016348Y012227D01*
X016371Y012182D01*
X016411Y012195D02*
X016899Y012195D01*
X016831Y012222D02*
X016831Y012503D01*
X016820Y012543D01*
X016799Y012580D01*
X016769Y012610D01*
X016732Y012631D01*
X016692Y012642D01*
X016411Y012642D01*
X016411Y012222D01*
X016831Y012222D01*
X016831Y012142D02*
X016411Y012142D01*
X016411Y012222D01*
X016331Y012222D01*
X016331Y012642D01*
X016049Y012642D01*
X016009Y012631D01*
X015972Y012610D01*
X015943Y012580D01*
X015921Y012543D01*
X015911Y012503D01*
X015911Y012222D01*
X016330Y012222D01*
X016330Y012142D01*
X015911Y012142D01*
X015911Y011861D01*
X015921Y011820D01*
X015943Y011783D01*
X015972Y011754D01*
X016009Y011733D01*
X016049Y011722D01*
X016331Y011722D01*
X016331Y012141D01*
X016411Y012141D01*
X016411Y011722D01*
X016692Y011722D01*
X016732Y011733D01*
X016769Y011754D01*
X016799Y011783D01*
X016820Y011820D01*
X016831Y011861D01*
X016831Y012142D01*
X016831Y012076D02*
X016898Y012076D01*
X016897Y011958D02*
X016831Y011958D01*
X016825Y011839D02*
X016896Y011839D01*
X016896Y011720D02*
X012027Y011720D01*
X012027Y011602D02*
X016895Y011602D01*
X016894Y011483D02*
X012027Y011483D01*
X012027Y011365D02*
X016894Y011365D01*
X016893Y011246D02*
X001370Y011246D01*
X001653Y011365D02*
X005938Y011365D01*
X006082Y009877D02*
X006041Y009866D01*
X006004Y009845D01*
X005975Y009815D01*
X005954Y009779D01*
X005943Y009738D01*
X005943Y009482D01*
X006298Y009482D01*
X006298Y009362D01*
X005943Y009362D01*
X005943Y009259D01*
X005912Y009334D01*
X005878Y009368D01*
X005878Y009426D01*
X005779Y009526D01*
X005638Y009526D01*
X005582Y009526D01*
X005582Y009767D01*
X005512Y009837D01*
X004901Y009837D01*
X004833Y009769D01*
X004764Y009837D01*
X004153Y009837D01*
X004083Y009767D01*
X004083Y009604D01*
X003402Y009604D01*
X003402Y009932D01*
X003332Y010002D01*
X002632Y010002D01*
X002562Y009932D01*
X002562Y009232D01*
X002632Y009162D01*
X003332Y009162D01*
X003402Y009232D01*
X003402Y009264D01*
X004083Y009264D01*
X004083Y009077D01*
X004153Y009006D01*
X004764Y009006D01*
X004833Y009075D01*
X004901Y009006D01*
X005512Y009006D01*
X005536Y009031D01*
X005572Y008995D01*
X005660Y008958D01*
X005756Y008958D01*
X005844Y008995D01*
X005912Y009062D01*
X005943Y009137D01*
X005943Y009105D01*
X005954Y009065D01*
X005975Y009028D01*
X006004Y008998D01*
X006041Y008977D01*
X006082Y008966D01*
X006299Y008966D01*
X006299Y009362D01*
X006418Y009362D01*
X006418Y008966D01*
X006636Y008966D01*
X006676Y008977D01*
X006713Y008998D01*
X006742Y009028D01*
X006756Y009052D01*
X006801Y009006D01*
X006956Y009006D01*
X006956Y008970D01*
X007043Y008883D01*
X007043Y008835D01*
X007080Y008747D01*
X007147Y008680D01*
X007235Y008643D01*
X007325Y008643D01*
X007325Y008581D01*
X006487Y008581D01*
X006346Y008581D01*
X006247Y008481D01*
X006247Y008290D01*
X006238Y008299D01*
X006150Y008336D01*
X006102Y008336D01*
X006036Y008402D01*
X005967Y008471D01*
X005967Y008801D01*
X005897Y008872D01*
X005168Y008872D01*
X005097Y008801D01*
X005097Y007992D01*
X005168Y007922D01*
X005897Y007922D01*
X005917Y007941D01*
X005966Y007892D01*
X006014Y007873D01*
X005832Y007873D01*
X005832Y007477D01*
X005713Y007477D01*
X005713Y007873D01*
X005358Y007873D01*
X005317Y007862D01*
X005281Y007841D01*
X005251Y007811D01*
X005230Y007774D01*
X005219Y007734D01*
X005219Y007477D01*
X005712Y007477D01*
X005712Y007357D01*
X005219Y007357D01*
X005219Y007101D01*
X005230Y007060D01*
X005251Y007024D01*
X005281Y006994D01*
X005317Y006973D01*
X005358Y006962D01*
X005713Y006962D01*
X005713Y007357D01*
X005832Y007357D01*
X005832Y006962D01*
X006187Y006962D01*
X006228Y006973D01*
X006265Y006994D01*
X006294Y007024D01*
X006315Y007060D01*
X006326Y007101D01*
X006326Y007165D01*
X006369Y007147D01*
X006465Y007147D01*
X006553Y007184D01*
X006558Y007188D01*
X006606Y007214D01*
X006921Y007214D01*
X006968Y007269D01*
X006984Y007214D01*
X007378Y007214D01*
X007378Y007216D02*
X007399Y007216D01*
X007378Y007237D02*
X007378Y007138D01*
X007367Y007097D01*
X007517Y007097D01*
X007606Y007008D02*
X007378Y007237D01*
X007367Y007097D02*
X007346Y007061D01*
X007338Y007053D01*
X007338Y006856D01*
X007346Y006847D01*
X007367Y006811D01*
X007378Y006770D01*
X007378Y006639D01*
X007378Y006541D01*
X007441Y006567D01*
X007537Y006567D01*
X007606Y006538D01*
X007606Y007008D01*
X007606Y006979D02*
X007338Y006979D01*
X007338Y006860D02*
X007606Y006860D01*
X007606Y006742D02*
X007378Y006742D01*
X007378Y006639D02*
X006968Y006639D01*
X006968Y006639D01*
X007378Y006639D01*
X007378Y006623D02*
X007606Y006623D01*
X007946Y006623D02*
X009723Y006623D01*
X009745Y006646D02*
X009678Y006578D01*
X009641Y006490D01*
X009641Y006394D01*
X009678Y006306D01*
X009699Y006285D01*
X009678Y006263D01*
X009641Y006175D01*
X009641Y006079D01*
X009678Y005991D01*
X009745Y005924D01*
X009834Y005887D01*
X009881Y005887D01*
X009968Y005800D01*
X009978Y005800D01*
X009978Y005535D01*
X010048Y005464D01*
X010218Y005464D01*
X010150Y005397D01*
X010132Y005352D01*
X009990Y005352D01*
X009990Y005406D01*
X009920Y005477D01*
X009600Y005477D01*
X009391Y005477D01*
X009413Y005528D01*
X009413Y005624D01*
X009376Y005712D01*
X009309Y005779D01*
X009220Y005816D01*
X009125Y005816D01*
X009037Y005779D01*
X008969Y005712D01*
X008933Y005624D01*
X008933Y005528D01*
X008954Y005477D01*
X008655Y005477D01*
X008340Y005477D01*
X008025Y005477D01*
X007710Y005477D01*
X007396Y005477D01*
X007325Y005406D01*
X007325Y004807D01*
X007386Y004746D01*
X007358Y004679D01*
X007358Y004583D01*
X007394Y004495D01*
X007462Y004428D01*
X007550Y004391D01*
X007646Y004391D01*
X007734Y004428D01*
X007755Y004449D01*
X007777Y004428D01*
X007865Y004391D01*
X007961Y004391D01*
X008049Y004428D01*
X008058Y004437D01*
X008058Y004229D01*
X008058Y004088D01*
X008452Y003695D01*
X008452Y002969D01*
X007921Y002439D01*
X007839Y002357D01*
X007608Y002357D01*
X007537Y002286D01*
X007537Y001477D01*
X007585Y001429D01*
X007537Y001381D01*
X007537Y000572D01*
X007608Y000502D01*
X008337Y000502D01*
X008407Y000572D01*
X008407Y001009D01*
X008551Y001153D01*
X008598Y001153D01*
X008686Y001189D01*
X008754Y001257D01*
X008790Y001345D01*
X008790Y001440D01*
X008754Y001529D01*
X008686Y001596D01*
X008598Y001633D01*
X008502Y001633D01*
X008414Y001596D01*
X008407Y001589D01*
X008407Y002286D01*
X008337Y002357D01*
X008320Y002357D01*
X008792Y002828D01*
X008792Y002969D01*
X008792Y003835D01*
X008692Y003935D01*
X008398Y004229D01*
X008398Y004536D01*
X009160Y003773D01*
X009260Y003674D01*
X009723Y003674D01*
X009723Y003602D01*
X009793Y003532D01*
X010049Y003532D01*
X010035Y003498D01*
X010035Y003402D01*
X010072Y003314D01*
X010114Y003272D01*
X009633Y003272D01*
X009563Y003201D01*
X009563Y002502D01*
X009633Y002432D01*
X010332Y002432D01*
X010403Y002502D01*
X010403Y003082D01*
X010499Y002986D01*
X010499Y002576D01*
X010499Y002435D01*
X010735Y002199D01*
X010785Y002148D01*
X010682Y002045D01*
X010383Y002045D01*
X010157Y002272D01*
X009809Y002272D01*
X009563Y002026D01*
X009563Y001678D01*
X009809Y001432D01*
X010157Y001432D01*
X010403Y001678D01*
X010403Y001705D01*
X010663Y001705D01*
X010663Y001678D01*
X010909Y001432D01*
X011257Y001432D01*
X011503Y001678D01*
X011503Y001825D01*
X011601Y001726D01*
X011601Y001709D01*
X011601Y001569D01*
X011916Y001254D01*
X011925Y001245D01*
X011723Y001042D01*
X011723Y000892D01*
X012142Y000892D01*
X012142Y000812D01*
X011723Y000812D01*
X011723Y000661D01*
X011952Y000432D01*
X011313Y000432D01*
X011543Y000661D01*
X011543Y000812D01*
X011123Y000812D01*
X011123Y000892D01*
X011543Y000892D01*
X011543Y001042D01*
X011273Y001312D01*
X011123Y001312D01*
X011123Y000892D01*
X011043Y000892D01*
X011043Y001312D01*
X010892Y001312D01*
X010623Y001042D01*
X010623Y000892D01*
X011042Y000892D01*
X011042Y000812D01*
X010623Y000812D01*
X010623Y000661D01*
X010852Y000432D01*
X010213Y000432D01*
X010443Y000661D01*
X010443Y000812D01*
X010023Y000812D01*
X010023Y000892D01*
X010443Y000892D01*
X010443Y001042D01*
X010173Y001312D01*
X010023Y001312D01*
X010023Y000892D01*
X009943Y000892D01*
X009943Y001312D01*
X009792Y001312D01*
X009523Y001042D01*
X009523Y000892D01*
X009942Y000892D01*
X009942Y000812D01*
X009523Y000812D01*
X009523Y000661D01*
X009752Y000432D01*
X000543Y000432D01*
X000543Y002371D01*
X000792Y002122D01*
X000943Y002122D01*
X000943Y002541D01*
X001023Y002541D01*
X001023Y002122D01*
X001173Y002122D01*
X001443Y002391D01*
X001443Y002542D01*
X001023Y002542D01*
X001023Y002622D01*
X001443Y002622D01*
X001443Y002772D01*
X001173Y003042D01*
X001023Y003042D01*
X001023Y002622D01*
X000943Y002622D01*
X000943Y003042D01*
X000792Y003042D01*
X000543Y002792D01*
X000543Y003975D01*
X000792Y003725D01*
X000943Y003725D01*
X000943Y004145D01*
X001023Y004145D01*
X001023Y004225D01*
X001443Y004225D01*
X001443Y004376D01*
X001173Y004645D01*
X001023Y004645D01*
X001023Y004225D01*
X000943Y004225D01*
X000943Y004645D01*
X000792Y004645D01*
X000543Y004395D01*
X000543Y005078D01*
X000792Y004828D01*
X000943Y004828D01*
X000943Y005248D01*
X001023Y005248D01*
X001023Y005328D01*
X001443Y005328D01*
X001443Y005479D01*
X001173Y005748D01*
X001023Y005748D01*
X001023Y005329D01*
X000943Y005329D01*
X000943Y005748D01*
X000792Y005748D01*
X000543Y005499D01*
X000543Y006575D01*
X000792Y006325D01*
X000943Y006325D01*
X000943Y006745D01*
X001023Y006745D01*
X001023Y006825D01*
X001443Y006825D01*
X001443Y006976D01*
X001173Y007245D01*
X001023Y007245D01*
X001023Y006825D01*
X000943Y006825D01*
X000943Y007245D01*
X000792Y007245D01*
X000543Y006996D01*
X000543Y007678D01*
X000792Y007429D01*
X000943Y007429D01*
X000943Y007848D01*
X001023Y007848D01*
X001023Y007929D01*
X000943Y007929D01*
X000943Y008348D01*
X000792Y008348D01*
X000543Y008099D01*
X000543Y009371D01*
X000792Y009122D01*
X000942Y009122D01*
X000942Y009542D01*
X001022Y009542D01*
X001022Y009122D01*
X001173Y009122D01*
X001442Y009391D01*
X001442Y009542D01*
X001022Y009542D01*
X001022Y009622D01*
X001442Y009622D01*
X001442Y009772D01*
X001183Y010032D01*
X014212Y010032D01*
X014023Y009842D01*
X014023Y009692D01*
X014442Y009692D01*
X014442Y009612D01*
X014023Y009612D01*
X014023Y009461D01*
X014292Y009192D01*
X014443Y009192D01*
X014443Y009611D01*
X014523Y009611D01*
X014523Y009192D01*
X014673Y009192D01*
X014943Y009461D01*
X014943Y009612D01*
X014523Y009612D01*
X014523Y009692D01*
X014943Y009692D01*
X014943Y009842D01*
X014753Y010032D01*
X015312Y010032D01*
X015123Y009842D01*
X015123Y009692D01*
X015542Y009692D01*
X015542Y009612D01*
X015123Y009612D01*
X015123Y009461D01*
X015392Y009192D01*
X015543Y009192D01*
X015543Y009611D01*
X015623Y009611D01*
X015623Y009192D01*
X015773Y009192D01*
X016043Y009461D01*
X016043Y009612D01*
X015623Y009612D01*
X015623Y009692D01*
X016043Y009692D01*
X016043Y009842D01*
X015853Y010032D01*
X019343Y010032D01*
X019391Y000432D01*
X013513Y000432D01*
X013743Y000661D01*
X013743Y000812D01*
X013323Y000812D01*
X013323Y000892D01*
X013743Y000892D01*
X013743Y001042D01*
X013631Y001154D01*
X015087Y001154D01*
X015165Y001075D01*
X016507Y001075D01*
X016458Y001026D01*
X016458Y000678D01*
X016704Y000432D01*
X017052Y000432D01*
X017298Y000678D01*
X017298Y001026D01*
X017169Y001154D01*
X017449Y001154D01*
X017586Y001154D01*
X017458Y001026D01*
X017458Y000678D01*
X017704Y000432D01*
X018052Y000432D01*
X018298Y000678D01*
X018298Y001026D01*
X018052Y001272D01*
X017704Y001272D01*
X017689Y001257D01*
X017689Y001411D01*
X017710Y001432D01*
X018052Y001432D01*
X018298Y001678D01*
X018298Y002026D01*
X018052Y002272D01*
X017704Y002272D01*
X017458Y002026D01*
X017458Y001678D01*
X017466Y001669D01*
X017349Y001552D01*
X017349Y001494D01*
X017114Y001494D01*
X017298Y001678D01*
X017298Y002026D01*
X017289Y002034D01*
X017905Y002650D01*
X018004Y002750D01*
X018004Y003278D01*
X018057Y003278D01*
X018303Y003524D01*
X018303Y003872D01*
X018083Y004092D01*
X018083Y004401D01*
X018303Y004621D01*
X018303Y004969D01*
X018083Y005189D01*
X018083Y005501D01*
X018303Y005721D01*
X018303Y006069D01*
X018083Y006289D01*
X018083Y006601D01*
X018303Y006821D01*
X018303Y007169D01*
X018057Y007415D01*
X017709Y007415D01*
X017463Y007169D01*
X017463Y006821D01*
X017709Y006575D01*
X017743Y006575D01*
X017743Y006315D01*
X017709Y006315D01*
X017463Y006069D01*
X017463Y005721D01*
X017709Y005475D01*
X017743Y005475D01*
X017743Y005215D01*
X017709Y005215D01*
X017463Y004969D01*
X017463Y004621D01*
X017709Y004375D01*
X017743Y004375D01*
X017743Y004118D01*
X017709Y004118D01*
X017463Y003872D01*
X017463Y003524D01*
X017664Y003323D01*
X017664Y002891D01*
X017045Y002272D01*
X016704Y002272D01*
X016458Y002026D01*
X016458Y001678D01*
X016651Y001484D01*
X016583Y001415D01*
X015626Y001415D01*
X015633Y001434D01*
X015633Y001529D01*
X015597Y001618D01*
X015529Y001685D01*
X015441Y001722D01*
X015394Y001722D01*
X014130Y002985D01*
X014191Y003010D01*
X014224Y003044D01*
X015070Y003044D01*
X015169Y003143D01*
X015484Y003458D01*
X015484Y003517D01*
X015542Y003517D01*
X015590Y003564D01*
X015605Y003538D01*
X015634Y003509D01*
X015671Y003488D01*
X015711Y003477D01*
X015858Y003477D01*
X015858Y004031D01*
X015868Y004031D01*
X015868Y003477D01*
X016014Y003477D01*
X016054Y003488D01*
X016091Y003509D01*
X016121Y003538D01*
X016142Y003575D01*
X016153Y003616D01*
X016153Y004032D01*
X015868Y004032D01*
X015868Y004042D01*
X016153Y004042D01*
X016153Y004458D01*
X016142Y004498D01*
X016121Y004535D01*
X016091Y004565D01*
X016054Y004586D01*
X016014Y004597D01*
X015868Y004597D01*
X015868Y004042D01*
X015858Y004042D01*
X015858Y004597D01*
X015711Y004597D01*
X015671Y004586D01*
X015634Y004565D01*
X015605Y004535D01*
X015590Y004509D01*
X015542Y004557D01*
X015183Y004557D01*
X015113Y004486D01*
X015113Y003587D01*
X015122Y003577D01*
X015003Y003458D01*
X015003Y003498D01*
X014995Y003517D01*
X015042Y003517D01*
X015113Y003587D01*
X015113Y004486D01*
X015042Y004557D01*
X015012Y004557D01*
X015012Y004635D01*
X015031Y004627D01*
X015126Y004627D01*
X015214Y004664D01*
X015282Y004731D01*
X015318Y004820D01*
X015318Y004915D01*
X015282Y005003D01*
X015248Y005037D01*
X015248Y005265D01*
X015267Y005257D01*
X015362Y005257D01*
X015450Y005294D01*
X015484Y005327D01*
X015936Y005327D01*
X016036Y005427D01*
X016019Y005388D01*
X016019Y005292D01*
X016056Y005204D01*
X016089Y005170D01*
X016089Y004639D01*
X016168Y004561D01*
X016168Y003520D01*
X015314Y002666D01*
X015267Y002666D01*
X015179Y002630D01*
X015111Y002562D01*
X015074Y002474D01*
X014641Y002474D01*
X014523Y002593D02*
X015141Y002593D01*
X015074Y002474D02*
X015074Y002379D01*
X015111Y002290D01*
X015179Y002223D01*
X015267Y002186D01*
X015362Y002186D01*
X015450Y002223D01*
X015518Y002290D01*
X015554Y002379D01*
X015554Y002426D01*
X016470Y003341D01*
X016533Y003278D01*
X017232Y003278D01*
X017303Y003349D01*
X017303Y004048D01*
X017232Y004118D01*
X016533Y004118D01*
X016508Y004094D01*
X016508Y004400D01*
X016533Y004375D01*
X017232Y004375D01*
X017303Y004445D01*
X017303Y005145D01*
X017232Y005215D01*
X016533Y005215D01*
X016463Y005145D01*
X016463Y004747D01*
X016429Y004780D01*
X016429Y005170D01*
X016463Y005204D01*
X016499Y005292D01*
X016499Y005388D01*
X016463Y005476D01*
X016395Y005543D01*
X016307Y005580D01*
X016212Y005580D01*
X016172Y005563D01*
X016463Y005854D01*
X016463Y005545D01*
X016533Y005475D01*
X017232Y005475D01*
X017303Y005545D01*
X017303Y006245D01*
X017232Y006315D01*
X016533Y006315D01*
X016508Y006290D01*
X016508Y006451D01*
X016633Y006575D01*
X017232Y006575D01*
X017303Y006645D01*
X017303Y007345D01*
X017232Y007415D01*
X016533Y007415D01*
X016463Y007345D01*
X016463Y006886D01*
X016268Y006691D01*
X016168Y006591D01*
X016168Y006040D01*
X016015Y005887D01*
X015995Y005937D01*
X016042Y005937D01*
X016113Y006007D01*
X016113Y006906D01*
X016042Y006977D01*
X015683Y006977D01*
X015613Y006906D01*
X015613Y006488D01*
X015613Y006488D01*
X015613Y006906D01*
X015542Y006977D01*
X015484Y006977D01*
X015484Y007064D01*
X015476Y007073D01*
X015476Y007120D01*
X015439Y007208D01*
X015415Y007232D01*
X015932Y007232D01*
X016003Y007302D01*
X016003Y008001D01*
X015932Y008072D01*
X015233Y008072D01*
X015163Y008001D01*
X015163Y007302D01*
X015100Y007276D01*
X015032Y007208D01*
X014996Y007120D01*
X014996Y007024D01*
X015016Y006977D01*
X014776Y006977D01*
X014776Y006985D01*
X014529Y007232D01*
X014832Y007232D01*
X014903Y007302D01*
X014903Y008001D01*
X014832Y008072D01*
X014133Y008072D01*
X014063Y008001D01*
X014063Y007400D01*
X014046Y007400D01*
X013516Y007930D01*
X013516Y008714D01*
X013549Y008747D01*
X013586Y008835D01*
X013586Y008931D01*
X013549Y009019D01*
X013482Y009087D01*
X013394Y009123D01*
X013298Y009123D01*
X013210Y009087D01*
X013143Y009019D01*
X013106Y008931D01*
X013106Y008876D01*
X013079Y008887D01*
X012983Y008887D01*
X012967Y008880D01*
X012967Y008896D01*
X012897Y008967D01*
X012784Y008967D01*
X012824Y008977D01*
X012861Y008998D01*
X012891Y009028D01*
X012912Y009065D01*
X012922Y009105D01*
X012922Y009362D01*
X012567Y009362D01*
X012567Y009482D01*
X012922Y009482D01*
X012922Y009738D01*
X012912Y009779D01*
X012891Y009815D01*
X012861Y009845D01*
X012824Y009866D01*
X012784Y009877D01*
X012566Y009877D01*
X012566Y009482D01*
X012447Y009482D01*
X012447Y009877D01*
X012230Y009877D01*
X012189Y009866D01*
X012152Y009845D01*
X012123Y009815D01*
X012109Y009792D01*
X012064Y009837D01*
X011453Y009837D01*
X011383Y009767D01*
X011383Y009604D01*
X011082Y009604D01*
X011082Y009767D01*
X011012Y009837D01*
X010401Y009837D01*
X010333Y009769D01*
X010264Y009837D01*
X009653Y009837D01*
X009583Y009767D01*
X009583Y009604D01*
X008004Y009604D01*
X007970Y009638D01*
X007882Y009674D01*
X007786Y009674D01*
X007698Y009638D01*
X007631Y009570D01*
X007594Y009482D01*
X007594Y009387D01*
X007631Y009298D01*
X007698Y009231D01*
X007482Y009231D01*
X007482Y009112D02*
X008453Y009112D01*
X008472Y009132D02*
X008373Y009032D01*
X008373Y008857D01*
X008340Y008857D01*
X008030Y008857D01*
X007715Y008857D01*
X007523Y008857D01*
X007523Y008931D01*
X007486Y009019D01*
X007456Y009050D01*
X007482Y009077D01*
X007482Y009767D01*
X007412Y009837D01*
X006801Y009837D01*
X006756Y009792D01*
X006742Y009815D01*
X006713Y009845D01*
X006676Y009866D01*
X006636Y009877D01*
X006418Y009877D01*
X006418Y009482D01*
X006299Y009482D01*
X006299Y009877D01*
X006082Y009877D01*
X005983Y009824D02*
X005525Y009824D01*
X005582Y009705D02*
X005943Y009705D01*
X005943Y009587D02*
X005582Y009587D01*
X005836Y009468D02*
X006298Y009468D01*
X006299Y009350D02*
X006418Y009350D01*
X006418Y009231D02*
X006299Y009231D01*
X006299Y009112D02*
X006418Y009112D01*
X006418Y008994D02*
X006299Y008994D01*
X006012Y008994D02*
X005842Y008994D01*
X005932Y009112D02*
X005943Y009112D01*
X005943Y009350D02*
X005896Y009350D01*
X006299Y009587D02*
X006418Y009587D01*
X006418Y009705D02*
X006299Y009705D01*
X006299Y009824D02*
X006418Y009824D01*
X006734Y009824D02*
X006788Y009824D01*
X007425Y009824D02*
X009640Y009824D01*
X009583Y009705D02*
X007482Y009705D01*
X007482Y009587D02*
X007647Y009587D01*
X007594Y009468D02*
X007482Y009468D01*
X007482Y009350D02*
X007609Y009350D01*
X007698Y009231D02*
X007786Y009194D01*
X007882Y009194D01*
X007970Y009231D01*
X008004Y009264D01*
X008547Y009264D01*
X008539Y009246D01*
X008539Y009199D01*
X008472Y009132D01*
X008539Y009231D02*
X007970Y009231D01*
X008373Y008994D02*
X007497Y008994D01*
X007523Y008875D02*
X008373Y008875D01*
X007325Y008638D02*
X005967Y008638D01*
X005967Y008520D02*
X006286Y008520D01*
X006247Y008401D02*
X006037Y008401D01*
X005967Y008757D02*
X007076Y008757D01*
X007043Y008875D02*
X000543Y008875D01*
X000543Y008757D02*
X003978Y008757D01*
X003978Y008801D02*
X003978Y008502D01*
X003653Y008502D01*
X003512Y008502D01*
X002078Y008502D01*
X001937Y008502D01*
X001837Y008402D01*
X001837Y008308D01*
X001809Y008308D01*
X001563Y008062D01*
X001563Y007715D01*
X001809Y007469D01*
X001837Y007469D01*
X001837Y007461D01*
X001837Y007205D01*
X001809Y007205D01*
X001563Y006959D01*
X001563Y006611D01*
X001809Y006365D01*
X001837Y006365D01*
X001837Y006358D01*
X001837Y005708D01*
X001809Y005708D01*
X001563Y005462D01*
X001563Y005114D01*
X001809Y004868D01*
X001837Y004868D01*
X001837Y004863D01*
X001837Y004605D01*
X001809Y004605D01*
X001563Y004359D01*
X001563Y004011D01*
X001809Y003765D01*
X001843Y003765D01*
X001843Y003761D01*
X001892Y003719D01*
X001937Y003674D01*
X001944Y003674D01*
X001949Y003669D01*
X002013Y003674D01*
X002078Y003674D01*
X002083Y003679D01*
X002090Y003679D01*
X002132Y003728D01*
X002177Y003773D01*
X002177Y003780D01*
X002182Y003786D01*
X002182Y003790D01*
X002403Y004011D01*
X002403Y004359D01*
X002177Y004584D01*
X002177Y004803D01*
X002181Y004807D01*
X002177Y004873D01*
X002177Y004876D01*
X002177Y004883D01*
X002182Y004888D01*
X002182Y004893D01*
X002403Y005114D01*
X002403Y005462D01*
X002177Y005687D01*
X002177Y006299D01*
X002181Y006303D01*
X002177Y006369D01*
X002177Y006379D01*
X002182Y006384D01*
X002182Y006390D01*
X002403Y006611D01*
X002403Y006959D01*
X002177Y007184D01*
X002177Y007401D01*
X002181Y007405D01*
X002177Y007471D01*
X002177Y007481D01*
X002182Y007487D01*
X002181Y007493D01*
X002403Y007715D01*
X002403Y008062D01*
X002303Y008162D01*
X002563Y008162D01*
X002563Y007539D01*
X002633Y007469D01*
X003332Y007469D01*
X003403Y007539D01*
X003403Y008162D01*
X003412Y008162D01*
X003412Y006214D01*
X003512Y006115D01*
X003653Y006115D01*
X003859Y006115D01*
X003859Y005891D01*
X003868Y005883D01*
X003846Y005861D01*
X003825Y005824D01*
X003814Y005784D01*
X003814Y005527D01*
X004307Y005527D01*
X004307Y005407D01*
X003814Y005407D01*
X003814Y005151D01*
X003825Y005110D01*
X003846Y005074D01*
X003876Y005044D01*
X003912Y005023D01*
X003953Y005012D01*
X004308Y005012D01*
X004308Y005407D01*
X004427Y005407D01*
X004427Y005012D01*
X004782Y005012D01*
X004798Y005016D01*
X004798Y004864D01*
X004636Y004701D01*
X003924Y004701D01*
X003854Y004631D01*
X003854Y003941D01*
X003924Y003871D01*
X004629Y003871D01*
X005153Y003347D01*
X005258Y003242D01*
X005551Y003242D01*
X005572Y003191D01*
X005679Y003085D01*
X005819Y003027D01*
X005970Y003027D01*
X006110Y003085D01*
X006217Y003191D01*
X006274Y003331D01*
X006274Y003482D01*
X006217Y003622D01*
X006110Y003729D01*
X005970Y003787D01*
X005819Y003787D01*
X005679Y003729D01*
X005572Y003622D01*
X005564Y003602D01*
X005407Y003602D01*
X004881Y004128D01*
X004881Y004466D01*
X005113Y004699D01*
X005113Y004548D01*
X005124Y004507D01*
X005145Y004471D01*
X005175Y004441D01*
X005212Y004420D01*
X005252Y004409D01*
X005509Y004409D01*
X005509Y004902D01*
X005629Y004902D01*
X005629Y004409D01*
X005885Y004409D01*
X005926Y004420D01*
X005962Y004441D01*
X005992Y004471D01*
X006013Y004507D01*
X006024Y004548D01*
X006024Y004903D01*
X005629Y004903D01*
X005629Y005022D01*
X006024Y005022D01*
X006024Y005377D01*
X006013Y005418D01*
X005992Y005455D01*
X005962Y005484D01*
X005926Y005505D01*
X005885Y005516D01*
X005629Y005516D01*
X005629Y005023D01*
X005509Y005023D01*
X005509Y005516D01*
X005439Y005516D01*
X005490Y005567D01*
X006274Y005567D01*
X006373Y005666D01*
X006546Y005839D01*
X006598Y005839D01*
X006598Y005681D01*
X006595Y005678D01*
X006496Y005579D01*
X006496Y005476D01*
X006405Y005476D01*
X006335Y005406D01*
X006335Y004519D01*
X006405Y004449D01*
X006905Y004449D01*
X007612Y003742D01*
X007579Y003729D01*
X007472Y003622D01*
X007414Y003482D01*
X007414Y003331D01*
X007472Y003191D01*
X007579Y003085D01*
X007719Y003027D01*
X007870Y003027D01*
X008010Y003085D01*
X008117Y003191D01*
X008174Y003331D01*
X008174Y003482D01*
X008117Y003622D01*
X008010Y003729D01*
X007964Y003748D01*
X007964Y003870D01*
X007165Y004669D01*
X007165Y005406D01*
X007107Y005464D01*
X007267Y005464D01*
X007338Y005535D01*
X007338Y005854D01*
X007338Y006139D01*
X007353Y006124D01*
X007441Y006087D01*
X007537Y006087D01*
X007606Y006116D01*
X007606Y005920D01*
X007573Y005887D01*
X007536Y005799D01*
X007536Y005703D01*
X007573Y005615D01*
X007640Y005547D01*
X007729Y005511D01*
X007824Y005511D01*
X007912Y005547D01*
X007980Y005615D01*
X008016Y005703D01*
X008016Y005799D01*
X007980Y005887D01*
X007946Y005920D01*
X007946Y007008D01*
X007946Y007113D01*
X008002Y007136D01*
X008069Y007204D01*
X008106Y007292D01*
X008106Y007388D01*
X008069Y007476D01*
X008002Y007543D01*
X007913Y007580D01*
X007866Y007580D01*
X007796Y007649D01*
X007813Y007656D01*
X007880Y007724D01*
X007913Y007803D01*
X007946Y007724D01*
X008013Y007656D01*
X008101Y007620D01*
X008197Y007620D01*
X008285Y007656D01*
X008353Y007724D01*
X008381Y007792D01*
X008416Y007777D01*
X008512Y007777D01*
X008600Y007814D01*
X008668Y007881D01*
X008704Y007969D01*
X008704Y008065D01*
X008683Y008117D01*
X008975Y008117D01*
X009003Y008117D01*
X009003Y008108D01*
X008969Y008074D01*
X008933Y007986D01*
X008933Y007891D01*
X008969Y007802D01*
X009037Y007735D01*
X009125Y007698D01*
X009220Y007698D01*
X009309Y007735D01*
X009376Y007802D01*
X009377Y007803D01*
X009440Y007777D01*
X009535Y007777D01*
X009599Y007803D01*
X009599Y007802D01*
X009631Y007771D01*
X009554Y007694D01*
X009554Y007163D01*
X009520Y007129D01*
X009484Y007041D01*
X009484Y006946D01*
X009520Y006857D01*
X009588Y006790D01*
X009676Y006753D01*
X009772Y006753D01*
X009860Y006790D01*
X009927Y006857D01*
X009938Y006882D01*
X009938Y006823D01*
X009949Y006782D01*
X009970Y006746D01*
X009978Y006738D01*
X009978Y006662D01*
X009929Y006682D01*
X009834Y006682D01*
X009745Y006646D01*
X009818Y006710D02*
X009440Y006710D01*
X009440Y006458D01*
X009647Y006505D02*
X007946Y006505D01*
X007946Y006386D02*
X009645Y006386D01*
X009682Y006267D02*
X007946Y006267D01*
X007946Y006149D02*
X009641Y006149D01*
X009662Y006030D02*
X007946Y006030D01*
X007955Y005912D02*
X009774Y005912D01*
X009978Y005793D02*
X009275Y005793D01*
X009392Y005675D02*
X009978Y005675D01*
X009978Y005556D02*
X009413Y005556D01*
X009070Y005793D02*
X008016Y005793D01*
X008004Y005675D02*
X008954Y005675D01*
X008933Y005556D02*
X007921Y005556D01*
X007631Y005556D02*
X007338Y005556D01*
X007338Y005675D02*
X007548Y005675D01*
X007536Y005793D02*
X007338Y005793D01*
X007338Y005912D02*
X007598Y005912D01*
X007606Y006030D02*
X007338Y006030D01*
X006598Y005793D02*
X006500Y005793D01*
X006592Y005675D02*
X006382Y005675D01*
X006496Y005556D02*
X005479Y005556D01*
X005509Y005438D02*
X005629Y005438D01*
X005629Y005319D02*
X005509Y005319D01*
X005509Y005201D02*
X005629Y005201D01*
X005629Y005082D02*
X005509Y005082D01*
X005629Y004963D02*
X006335Y004963D01*
X006335Y004845D02*
X006024Y004845D01*
X006024Y004726D02*
X006335Y004726D01*
X006335Y004608D02*
X006024Y004608D01*
X006003Y004489D02*
X006364Y004489D01*
X006983Y004371D02*
X004881Y004371D01*
X004881Y004252D02*
X007102Y004252D01*
X007220Y004134D02*
X004881Y004134D01*
X004994Y004015D02*
X007339Y004015D01*
X007457Y003897D02*
X005112Y003897D01*
X005231Y003778D02*
X005798Y003778D01*
X005991Y003778D02*
X007576Y003778D01*
X007510Y003659D02*
X006179Y003659D01*
X006250Y003541D02*
X007439Y003541D01*
X007414Y003422D02*
X006274Y003422D01*
X006263Y003304D02*
X007426Y003304D01*
X007478Y003185D02*
X006210Y003185D01*
X006067Y003067D02*
X007622Y003067D01*
X007967Y003067D02*
X008452Y003067D01*
X008452Y003185D02*
X008110Y003185D01*
X008163Y003304D02*
X008452Y003304D01*
X008452Y003422D02*
X008174Y003422D01*
X008150Y003541D02*
X008452Y003541D01*
X008452Y003659D02*
X008079Y003659D01*
X007964Y003778D02*
X008368Y003778D01*
X008250Y003897D02*
X007938Y003897D01*
X007819Y004015D02*
X008131Y004015D01*
X008058Y004134D02*
X007701Y004134D01*
X007582Y004252D02*
X008058Y004252D01*
X008058Y004371D02*
X007464Y004371D01*
X007400Y004489D02*
X007345Y004489D01*
X007358Y004608D02*
X007227Y004608D01*
X007165Y004726D02*
X007378Y004726D01*
X007325Y004845D02*
X007165Y004845D01*
X007165Y004963D02*
X007325Y004963D01*
X007325Y005082D02*
X007165Y005082D01*
X007165Y005201D02*
X007325Y005201D01*
X007325Y005319D02*
X007165Y005319D01*
X007133Y005438D02*
X007356Y005438D01*
X006366Y005438D02*
X006002Y005438D01*
X006024Y005319D02*
X006335Y005319D01*
X006335Y005201D02*
X006024Y005201D01*
X006024Y005082D02*
X006335Y005082D01*
X005629Y004845D02*
X005509Y004845D01*
X005509Y004726D02*
X005629Y004726D01*
X005629Y004608D02*
X005509Y004608D01*
X005509Y004489D02*
X005629Y004489D01*
X005135Y004489D02*
X004904Y004489D01*
X005023Y004608D02*
X005113Y004608D01*
X004660Y004726D02*
X002177Y004726D01*
X002177Y004608D02*
X003854Y004608D01*
X003854Y004489D02*
X003403Y004489D01*
X003403Y004535D02*
X003332Y004605D01*
X002633Y004605D01*
X002563Y004535D01*
X002563Y003835D01*
X002633Y003765D01*
X003332Y003765D01*
X003403Y003835D01*
X003403Y004535D01*
X003403Y004371D02*
X003854Y004371D01*
X003854Y004252D02*
X003403Y004252D01*
X003403Y004134D02*
X003854Y004134D01*
X003854Y004015D02*
X003403Y004015D01*
X003403Y003897D02*
X003899Y003897D01*
X003345Y003778D02*
X004722Y003778D01*
X004840Y003659D02*
X000543Y003659D01*
X000543Y003541D02*
X004959Y003541D01*
X005077Y003422D02*
X000543Y003422D01*
X000543Y003304D02*
X005196Y003304D01*
X005153Y003347D02*
X005153Y003347D01*
X005333Y003422D02*
X005879Y003422D01*
X005894Y003407D01*
X005722Y003067D02*
X000543Y003067D01*
X000543Y003185D02*
X005578Y003185D01*
X005306Y002833D02*
X005165Y002833D01*
X004679Y002346D01*
X004649Y002377D01*
X003959Y002377D01*
X003888Y002307D01*
X003888Y002185D01*
X003866Y002194D01*
X003771Y002194D01*
X003682Y002157D01*
X003615Y002090D01*
X003578Y002002D01*
X003578Y001906D01*
X003615Y001818D01*
X003682Y001751D01*
X003771Y001714D01*
X003866Y001714D01*
X003888Y001723D01*
X003888Y001617D01*
X003959Y001546D01*
X004649Y001546D01*
X004719Y001617D01*
X004719Y001905D01*
X004776Y001962D01*
X004776Y001962D01*
X005306Y002493D01*
X006031Y002493D01*
X006418Y002106D01*
X006418Y001477D01*
X006466Y001429D01*
X006418Y001381D01*
X006418Y001236D01*
X006386Y001249D01*
X006290Y001249D01*
X006202Y001213D01*
X006142Y001152D01*
X006142Y001378D01*
X006131Y001419D01*
X006110Y001455D01*
X006080Y001485D01*
X006044Y001506D01*
X006020Y001512D01*
X006039Y001517D01*
X006075Y001538D01*
X006105Y001568D01*
X006126Y001605D01*
X006137Y001645D01*
X006137Y001902D01*
X005742Y001902D01*
X005742Y002022D01*
X006137Y002022D01*
X006137Y002278D01*
X006126Y002319D01*
X006105Y002355D01*
X006075Y002385D01*
X006039Y002406D01*
X005998Y002417D01*
X005741Y002417D01*
X005741Y002022D01*
X005622Y002022D01*
X005622Y002417D01*
X005365Y002417D01*
X005325Y002406D01*
X005288Y002385D01*
X005258Y002355D01*
X005237Y002319D01*
X005226Y002278D01*
X005226Y002022D01*
X005621Y002022D01*
X005621Y001902D01*
X005226Y001902D01*
X005226Y001645D01*
X005237Y001605D01*
X005258Y001568D01*
X005288Y001538D01*
X005325Y001517D01*
X005348Y001511D01*
X005330Y001506D01*
X005293Y001485D01*
X005263Y001455D01*
X005242Y001419D01*
X005231Y001378D01*
X005231Y001122D01*
X005626Y001122D01*
X005626Y001002D01*
X005231Y001002D01*
X005231Y000745D01*
X005242Y000705D01*
X005263Y000668D01*
X005293Y000638D01*
X005330Y000617D01*
X005370Y000606D01*
X005627Y000606D01*
X005627Y001002D01*
X005746Y001002D01*
X005746Y000606D01*
X006003Y000606D01*
X006044Y000617D01*
X006080Y000638D01*
X006110Y000668D01*
X006131Y000705D01*
X006142Y000745D01*
X006142Y000866D01*
X006202Y000806D01*
X006290Y000769D01*
X006386Y000769D01*
X006418Y000782D01*
X006418Y000572D01*
X006488Y000502D01*
X007217Y000502D01*
X007288Y000572D01*
X007288Y001381D01*
X007240Y001429D01*
X007288Y001477D01*
X007288Y002286D01*
X007217Y002357D01*
X006648Y002357D01*
X006172Y002833D01*
X006031Y002833D01*
X005306Y002833D01*
X005162Y002830D02*
X003403Y002830D01*
X003403Y002931D02*
X003332Y003002D01*
X002633Y003002D01*
X002563Y002931D01*
X002563Y002232D01*
X002633Y002162D01*
X002861Y002162D01*
X002861Y001017D01*
X002961Y000918D01*
X003101Y000918D01*
X003893Y000918D01*
X003893Y000717D01*
X003964Y000646D01*
X004654Y000646D01*
X004724Y000717D01*
X004724Y000760D01*
X004834Y000760D01*
X004842Y000769D01*
X004890Y000769D01*
X004978Y000806D01*
X005045Y000873D01*
X005082Y000961D01*
X005082Y001057D01*
X005045Y001145D01*
X004978Y001213D01*
X004890Y001249D01*
X004794Y001249D01*
X004724Y001220D01*
X004724Y001407D01*
X004654Y001477D01*
X003964Y001477D01*
X003893Y001407D01*
X003893Y001258D01*
X003201Y001258D01*
X003201Y002162D01*
X003332Y002162D01*
X003403Y002232D01*
X003403Y002931D01*
X003386Y002948D02*
X008431Y002948D01*
X008312Y002830D02*
X006175Y002830D01*
X006294Y002711D02*
X008193Y002711D01*
X008075Y002593D02*
X006412Y002593D01*
X006531Y002474D02*
X007956Y002474D01*
X007607Y002356D02*
X007219Y002356D01*
X007288Y002237D02*
X007537Y002237D01*
X007537Y002118D02*
X007288Y002118D01*
X007288Y002000D02*
X007537Y002000D01*
X007537Y001881D02*
X007288Y001881D01*
X007288Y001763D02*
X007537Y001763D01*
X007537Y001644D02*
X007288Y001644D01*
X007288Y001526D02*
X007537Y001526D01*
X007563Y001407D02*
X007262Y001407D01*
X007288Y001289D02*
X007537Y001289D01*
X007537Y001170D02*
X007288Y001170D01*
X007288Y001052D02*
X007537Y001052D01*
X007537Y000933D02*
X007288Y000933D01*
X007288Y000814D02*
X007537Y000814D01*
X007537Y000696D02*
X007288Y000696D01*
X007288Y000577D02*
X007537Y000577D01*
X008407Y000577D02*
X009606Y000577D01*
X009523Y000696D02*
X008407Y000696D01*
X008407Y000814D02*
X009942Y000814D01*
X010023Y000814D02*
X011042Y000814D01*
X011123Y000814D02*
X012142Y000814D01*
X012223Y000814D02*
X013242Y000814D01*
X013242Y000812D02*
X012823Y000812D01*
X012823Y000661D01*
X013052Y000432D01*
X012413Y000432D01*
X012643Y000661D01*
X012643Y000812D01*
X012223Y000812D01*
X012223Y000892D01*
X012643Y000892D01*
X012643Y001042D01*
X012531Y001154D01*
X012934Y001154D01*
X012823Y001042D01*
X012823Y000892D01*
X013242Y000892D01*
X013242Y000812D01*
X013323Y000814D02*
X016458Y000814D01*
X016458Y000696D02*
X013743Y000696D01*
X013659Y000577D02*
X016558Y000577D01*
X016677Y000459D02*
X013540Y000459D01*
X013025Y000459D02*
X012440Y000459D01*
X012559Y000577D02*
X012906Y000577D01*
X012823Y000696D02*
X012643Y000696D01*
X012643Y000933D02*
X012823Y000933D01*
X012832Y001052D02*
X012633Y001052D01*
X011881Y001289D02*
X011296Y001289D01*
X011415Y001170D02*
X011850Y001170D01*
X011732Y001052D02*
X011533Y001052D01*
X011543Y000933D02*
X011723Y000933D01*
X011723Y000696D02*
X011543Y000696D01*
X011459Y000577D02*
X011806Y000577D01*
X011925Y000459D02*
X011340Y000459D01*
X010825Y000459D02*
X010240Y000459D01*
X010359Y000577D02*
X010706Y000577D01*
X010623Y000696D02*
X010443Y000696D01*
X010443Y000933D02*
X010623Y000933D01*
X010632Y001052D02*
X010433Y001052D01*
X010315Y001170D02*
X010750Y001170D01*
X010869Y001289D02*
X010196Y001289D01*
X010023Y001289D02*
X009943Y001289D01*
X009943Y001170D02*
X010023Y001170D01*
X010023Y001052D02*
X009943Y001052D01*
X009943Y000933D02*
X010023Y000933D01*
X009650Y001170D02*
X008640Y001170D01*
X008767Y001289D02*
X009769Y001289D01*
X009715Y001526D02*
X008755Y001526D01*
X008790Y001407D02*
X011763Y001407D01*
X011644Y001526D02*
X011351Y001526D01*
X011469Y001644D02*
X011601Y001644D01*
X011564Y001763D02*
X011503Y001763D01*
X010815Y001526D02*
X010251Y001526D01*
X010369Y001644D02*
X010696Y001644D01*
X010755Y002118D02*
X010310Y002118D01*
X010191Y002237D02*
X010697Y002237D01*
X010578Y002356D02*
X008338Y002356D01*
X008407Y002237D02*
X009774Y002237D01*
X009655Y002118D02*
X008407Y002118D01*
X008407Y002000D02*
X009563Y002000D01*
X009563Y001881D02*
X008407Y001881D01*
X008407Y001763D02*
X009563Y001763D01*
X009596Y001644D02*
X008407Y001644D01*
X008449Y001052D02*
X009532Y001052D01*
X009523Y000933D02*
X008407Y000933D01*
X009725Y000459D02*
X000543Y000459D01*
X000543Y000577D02*
X001091Y000577D01*
X001055Y000592D02*
X001345Y000472D01*
X001660Y000472D01*
X001950Y000592D01*
X002172Y000814D01*
X002292Y001105D01*
X002292Y001419D01*
X002172Y001709D01*
X001950Y001931D01*
X001660Y002052D01*
X001345Y002052D01*
X001055Y001931D01*
X000833Y001709D01*
X000713Y001419D01*
X000713Y001105D01*
X000833Y000814D01*
X001055Y000592D01*
X000951Y000696D02*
X000543Y000696D01*
X000543Y000814D02*
X000833Y000814D01*
X000784Y000933D02*
X000543Y000933D01*
X000543Y001052D02*
X000735Y001052D01*
X000713Y001170D02*
X000543Y001170D01*
X000543Y001289D02*
X000713Y001289D01*
X000713Y001407D02*
X000543Y001407D01*
X000543Y001526D02*
X000757Y001526D01*
X000806Y001644D02*
X000543Y001644D01*
X000543Y001763D02*
X000887Y001763D01*
X001005Y001881D02*
X000543Y001881D01*
X000543Y002000D02*
X001221Y002000D01*
X001563Y002408D02*
X001809Y002162D01*
X002157Y002162D01*
X002403Y002408D01*
X002403Y002756D01*
X002157Y003002D01*
X001809Y003002D01*
X001563Y002756D01*
X001563Y002408D01*
X001563Y002474D02*
X001443Y002474D01*
X001407Y002356D02*
X001615Y002356D01*
X001733Y002237D02*
X001288Y002237D01*
X001023Y002237D02*
X000943Y002237D01*
X000943Y002356D02*
X001023Y002356D01*
X001023Y002474D02*
X000943Y002474D01*
X001023Y002593D02*
X001563Y002593D01*
X001563Y002711D02*
X001443Y002711D01*
X001385Y002830D02*
X001637Y002830D01*
X001755Y002948D02*
X001267Y002948D01*
X001023Y002948D02*
X000943Y002948D01*
X000943Y002830D02*
X001023Y002830D01*
X001023Y002711D02*
X000943Y002711D01*
X000699Y002948D02*
X000543Y002948D01*
X000543Y002830D02*
X000580Y002830D01*
X000558Y002356D02*
X000543Y002356D01*
X000543Y002237D02*
X000677Y002237D01*
X000543Y002118D02*
X002861Y002118D01*
X002861Y002000D02*
X001785Y002000D01*
X002000Y001881D02*
X002861Y001881D01*
X002861Y001763D02*
X002119Y001763D01*
X002199Y001644D02*
X002861Y001644D01*
X002861Y001526D02*
X002248Y001526D01*
X002292Y001407D02*
X002861Y001407D01*
X002861Y001289D02*
X002292Y001289D01*
X002292Y001170D02*
X002861Y001170D01*
X002861Y001052D02*
X002271Y001052D01*
X002221Y000933D02*
X002945Y000933D01*
X003201Y001289D02*
X003893Y001289D01*
X003894Y001407D02*
X003201Y001407D01*
X003201Y001526D02*
X005310Y001526D01*
X005239Y001407D02*
X004723Y001407D01*
X004724Y001289D02*
X005231Y001289D01*
X005231Y001170D02*
X005020Y001170D01*
X005082Y001052D02*
X005626Y001052D01*
X005627Y001122D02*
X005627Y001517D01*
X005622Y001517D01*
X005622Y001902D01*
X005741Y001902D01*
X005741Y001506D01*
X005746Y001506D01*
X005746Y001122D01*
X005627Y001122D01*
X005627Y001170D02*
X005746Y001170D01*
X005746Y001289D02*
X005627Y001289D01*
X005627Y001407D02*
X005746Y001407D01*
X005741Y001526D02*
X005622Y001526D01*
X005622Y001644D02*
X005741Y001644D01*
X005741Y001763D02*
X005622Y001763D01*
X005622Y001881D02*
X005741Y001881D01*
X005742Y002000D02*
X006418Y002000D01*
X006418Y001881D02*
X006137Y001881D01*
X006137Y001763D02*
X006418Y001763D01*
X006418Y001644D02*
X006136Y001644D01*
X006053Y001526D02*
X006418Y001526D01*
X006444Y001407D02*
X006134Y001407D01*
X006142Y001289D02*
X006418Y001289D01*
X006160Y001170D02*
X006142Y001170D01*
X006142Y000814D02*
X006193Y000814D01*
X006126Y000696D02*
X006418Y000696D01*
X006418Y000577D02*
X001915Y000577D01*
X002054Y000696D02*
X003914Y000696D01*
X003893Y000814D02*
X002172Y000814D01*
X003201Y001644D02*
X003888Y001644D01*
X003670Y001763D02*
X003201Y001763D01*
X003201Y001881D02*
X003589Y001881D01*
X003578Y002000D02*
X003201Y002000D01*
X003201Y002118D02*
X003643Y002118D01*
X003403Y002237D02*
X003888Y002237D01*
X003937Y002356D02*
X003403Y002356D01*
X003403Y002474D02*
X004807Y002474D01*
X004925Y002593D02*
X003403Y002593D01*
X003403Y002711D02*
X005044Y002711D01*
X005287Y002474D02*
X006050Y002474D01*
X006105Y002356D02*
X006169Y002356D01*
X006137Y002237D02*
X006287Y002237D01*
X006406Y002118D02*
X006137Y002118D01*
X005741Y002118D02*
X005622Y002118D01*
X005621Y002000D02*
X004813Y002000D01*
X004719Y001881D02*
X005226Y001881D01*
X005226Y001763D02*
X004719Y001763D01*
X004719Y001644D02*
X005227Y001644D01*
X005226Y002118D02*
X004932Y002118D01*
X005050Y002237D02*
X005226Y002237D01*
X005259Y002356D02*
X005169Y002356D01*
X004688Y002356D02*
X004670Y002356D01*
X005622Y002356D02*
X005741Y002356D01*
X005741Y002237D02*
X005622Y002237D01*
X005333Y003422D02*
X004468Y004286D01*
X004368Y004286D01*
X004779Y004845D02*
X002179Y004845D01*
X002252Y004963D02*
X002563Y004963D01*
X002563Y004939D02*
X002633Y004868D01*
X003332Y004868D01*
X003403Y004939D01*
X003403Y005638D01*
X003332Y005708D01*
X002633Y005708D01*
X002563Y005638D01*
X002563Y004939D01*
X002563Y005082D02*
X002370Y005082D01*
X002403Y005201D02*
X002563Y005201D01*
X002563Y005319D02*
X002403Y005319D01*
X002403Y005438D02*
X002563Y005438D01*
X002563Y005556D02*
X002309Y005556D01*
X002190Y005675D02*
X002599Y005675D01*
X002177Y005793D02*
X003816Y005793D01*
X003814Y005675D02*
X003366Y005675D01*
X003403Y005556D02*
X003814Y005556D01*
X003814Y005319D02*
X003403Y005319D01*
X003403Y005201D02*
X003814Y005201D01*
X003841Y005082D02*
X003403Y005082D01*
X003403Y004963D02*
X004798Y004963D01*
X004427Y005082D02*
X004308Y005082D01*
X004308Y005201D02*
X004427Y005201D01*
X004427Y005319D02*
X004308Y005319D01*
X004307Y005438D02*
X003403Y005438D01*
X003859Y005912D02*
X002177Y005912D01*
X002177Y006030D02*
X003859Y006030D01*
X003478Y006149D02*
X002177Y006149D01*
X002177Y006267D02*
X003412Y006267D01*
X003412Y006386D02*
X003353Y006386D01*
X003332Y006365D02*
X003403Y006435D01*
X003403Y007135D01*
X003332Y007205D01*
X002633Y007205D01*
X002563Y007135D01*
X002563Y006435D01*
X002633Y006365D01*
X003332Y006365D01*
X003403Y006505D02*
X003412Y006505D01*
X003403Y006623D02*
X003412Y006623D01*
X003403Y006742D02*
X003412Y006742D01*
X003403Y006860D02*
X003412Y006860D01*
X003403Y006979D02*
X003412Y006979D01*
X003403Y007097D02*
X003412Y007097D01*
X003412Y007216D02*
X002177Y007216D01*
X002177Y007334D02*
X003412Y007334D01*
X003412Y007453D02*
X002178Y007453D01*
X002259Y007571D02*
X002563Y007571D01*
X002563Y007690D02*
X002378Y007690D01*
X002403Y007809D02*
X002563Y007809D01*
X002563Y007927D02*
X002403Y007927D01*
X002403Y008046D02*
X002563Y008046D01*
X001837Y008401D02*
X000543Y008401D01*
X000543Y008283D02*
X000726Y008283D01*
X000608Y008164D02*
X000543Y008164D01*
X000943Y008164D02*
X001023Y008164D01*
X001023Y008046D02*
X000943Y008046D01*
X001023Y007929D02*
X001023Y008348D01*
X001173Y008348D01*
X001443Y008079D01*
X001443Y007929D01*
X001023Y007929D01*
X001023Y007927D02*
X001563Y007927D01*
X001563Y007809D02*
X001443Y007809D01*
X001443Y007848D02*
X001443Y007698D01*
X001173Y007429D01*
X001023Y007429D01*
X001023Y007848D01*
X001443Y007848D01*
X001435Y007690D02*
X001587Y007690D01*
X001706Y007571D02*
X001316Y007571D01*
X001197Y007453D02*
X001837Y007453D01*
X001837Y007334D02*
X000543Y007334D01*
X000543Y007216D02*
X000763Y007216D01*
X000644Y007097D02*
X000543Y007097D01*
X000943Y007097D02*
X001023Y007097D01*
X001023Y006979D02*
X000943Y006979D01*
X000943Y006860D02*
X001023Y006860D01*
X001023Y006745D02*
X001443Y006745D01*
X001443Y006595D01*
X001173Y006325D01*
X001023Y006325D01*
X001023Y006745D01*
X001023Y006742D02*
X000943Y006742D01*
X000943Y006623D02*
X001023Y006623D01*
X001023Y006505D02*
X000943Y006505D01*
X000943Y006386D02*
X001023Y006386D01*
X001234Y006386D02*
X001788Y006386D01*
X001837Y006267D02*
X000543Y006267D01*
X000543Y006149D02*
X001837Y006149D01*
X001837Y006030D02*
X000543Y006030D01*
X000543Y005912D02*
X001837Y005912D01*
X001837Y005793D02*
X000543Y005793D01*
X000543Y005675D02*
X000719Y005675D01*
X000600Y005556D02*
X000543Y005556D01*
X000943Y005556D02*
X001023Y005556D01*
X001023Y005438D02*
X000943Y005438D01*
X001023Y005319D02*
X001563Y005319D01*
X001563Y005201D02*
X001443Y005201D01*
X001443Y005248D02*
X001443Y005098D01*
X001173Y004828D01*
X001023Y004828D01*
X001023Y005248D01*
X001443Y005248D01*
X001427Y005082D02*
X001595Y005082D01*
X001714Y004963D02*
X001308Y004963D01*
X001190Y004845D02*
X001837Y004845D01*
X001837Y004726D02*
X000543Y004726D01*
X000543Y004608D02*
X000755Y004608D01*
X000636Y004489D02*
X000543Y004489D01*
X000943Y004489D02*
X001023Y004489D01*
X001023Y004371D02*
X000943Y004371D01*
X000943Y004252D02*
X001023Y004252D01*
X001023Y004145D02*
X001443Y004145D01*
X001443Y003994D01*
X001173Y003725D01*
X001023Y003725D01*
X001023Y004145D01*
X001023Y004134D02*
X000943Y004134D01*
X000943Y004015D02*
X001023Y004015D01*
X001023Y003897D02*
X000943Y003897D01*
X000943Y003778D02*
X001023Y003778D01*
X001226Y003778D02*
X001796Y003778D01*
X001677Y003897D02*
X001345Y003897D01*
X001443Y004015D02*
X001563Y004015D01*
X001563Y004134D02*
X001443Y004134D01*
X001443Y004252D02*
X001563Y004252D01*
X001574Y004371D02*
X001443Y004371D01*
X001329Y004489D02*
X001693Y004489D01*
X001837Y004608D02*
X001210Y004608D01*
X001023Y004608D02*
X000943Y004608D01*
X000943Y004845D02*
X001023Y004845D01*
X001023Y004963D02*
X000943Y004963D01*
X000943Y005082D02*
X001023Y005082D01*
X001023Y005201D02*
X000943Y005201D01*
X000657Y004963D02*
X000543Y004963D01*
X000543Y004845D02*
X000775Y004845D01*
X001443Y005438D02*
X001563Y005438D01*
X001656Y005556D02*
X001365Y005556D01*
X001247Y005675D02*
X001775Y005675D01*
X001023Y005675D02*
X000943Y005675D01*
X000731Y006386D02*
X000543Y006386D01*
X000543Y006505D02*
X000613Y006505D01*
X001352Y006505D02*
X001669Y006505D01*
X001563Y006623D02*
X001443Y006623D01*
X001443Y006742D02*
X001563Y006742D01*
X001563Y006860D02*
X001443Y006860D01*
X001440Y006979D02*
X001582Y006979D01*
X001701Y007097D02*
X001321Y007097D01*
X001202Y007216D02*
X001837Y007216D01*
X002264Y007097D02*
X002563Y007097D01*
X002563Y006979D02*
X002383Y006979D01*
X002403Y006860D02*
X002563Y006860D01*
X002563Y006742D02*
X002403Y006742D01*
X002403Y006623D02*
X002563Y006623D01*
X002563Y006505D02*
X002296Y006505D01*
X002182Y006386D02*
X002612Y006386D01*
X003752Y006455D02*
X003752Y008162D01*
X003978Y008162D01*
X003978Y007992D01*
X004048Y007922D01*
X004777Y007922D01*
X004848Y007992D01*
X004848Y008801D01*
X004777Y008872D01*
X004048Y008872D01*
X003978Y008801D01*
X003978Y008638D02*
X000543Y008638D01*
X000543Y008520D02*
X003978Y008520D01*
X003978Y008046D02*
X003752Y008046D01*
X003752Y007927D02*
X004043Y007927D01*
X003958Y007873D02*
X003917Y007862D01*
X003881Y007841D01*
X003851Y007811D01*
X003830Y007774D01*
X003819Y007734D01*
X003819Y007477D01*
X004312Y007477D01*
X004312Y007357D01*
X003819Y007357D01*
X003819Y007101D01*
X003830Y007060D01*
X003851Y007024D01*
X003881Y006994D01*
X003917Y006973D01*
X003958Y006962D01*
X004313Y006962D01*
X004313Y007357D01*
X004432Y007357D01*
X004432Y006962D01*
X004787Y006962D01*
X004828Y006973D01*
X004865Y006994D01*
X004894Y007024D01*
X004915Y007060D01*
X004926Y007101D01*
X004926Y007357D01*
X004433Y007357D01*
X004433Y007477D01*
X004926Y007477D01*
X004926Y007734D01*
X004915Y007774D01*
X004894Y007811D01*
X004865Y007841D01*
X004828Y007862D01*
X004787Y007873D01*
X004432Y007873D01*
X004432Y007477D01*
X004313Y007477D01*
X004313Y007873D01*
X003958Y007873D01*
X003850Y007809D02*
X003752Y007809D01*
X003752Y007690D02*
X003819Y007690D01*
X003819Y007571D02*
X003752Y007571D01*
X003752Y007453D02*
X004312Y007453D01*
X004313Y007571D02*
X004432Y007571D01*
X004433Y007453D02*
X005712Y007453D01*
X005713Y007571D02*
X005832Y007571D01*
X005832Y007690D02*
X005713Y007690D01*
X005713Y007809D02*
X005832Y007809D01*
X005902Y007927D02*
X005931Y007927D01*
X005250Y007809D02*
X004896Y007809D01*
X004926Y007690D02*
X005219Y007690D01*
X005219Y007571D02*
X004926Y007571D01*
X004926Y007334D02*
X005219Y007334D01*
X005219Y007216D02*
X004926Y007216D01*
X004925Y007097D02*
X005220Y007097D01*
X005307Y006979D02*
X004838Y006979D01*
X004816Y006651D02*
X003929Y006651D01*
X003859Y006581D01*
X003859Y006455D01*
X003752Y006455D01*
X003752Y006505D02*
X003859Y006505D01*
X003901Y006623D02*
X003752Y006623D01*
X003752Y006742D02*
X006159Y006742D01*
X006186Y006770D02*
X006068Y006651D01*
X005329Y006651D01*
X005259Y006581D01*
X005259Y006455D01*
X004886Y006455D01*
X004886Y006581D01*
X004816Y006651D01*
X004844Y006623D02*
X005301Y006623D01*
X005259Y006505D02*
X004886Y006505D01*
X004886Y006115D02*
X005259Y006115D01*
X005259Y005891D01*
X005296Y005854D01*
X004898Y005456D01*
X004850Y005407D01*
X004428Y005407D01*
X004428Y005527D01*
X004921Y005527D01*
X004921Y005784D01*
X004910Y005824D01*
X004889Y005861D01*
X004873Y005877D01*
X004886Y005891D01*
X004886Y006115D01*
X004886Y006030D02*
X005259Y006030D01*
X005259Y005912D02*
X004886Y005912D01*
X004919Y005793D02*
X005236Y005793D01*
X005117Y005675D02*
X004921Y005675D01*
X004921Y005556D02*
X004998Y005556D01*
X004880Y005438D02*
X004428Y005438D01*
X002563Y004489D02*
X002272Y004489D01*
X002391Y004371D02*
X002563Y004371D01*
X002563Y004252D02*
X002403Y004252D01*
X002403Y004134D02*
X002563Y004134D01*
X002563Y004015D02*
X002403Y004015D01*
X002288Y003897D02*
X002563Y003897D01*
X002620Y003778D02*
X002177Y003778D01*
X002210Y002948D02*
X002579Y002948D01*
X002563Y002830D02*
X002329Y002830D01*
X002403Y002711D02*
X002563Y002711D01*
X002563Y002593D02*
X002403Y002593D01*
X002403Y002474D02*
X002563Y002474D01*
X002563Y002356D02*
X002350Y002356D01*
X002232Y002237D02*
X002563Y002237D01*
X000739Y003778D02*
X000543Y003778D01*
X000543Y003897D02*
X000621Y003897D01*
X005349Y003659D02*
X005610Y003659D01*
X008398Y004252D02*
X008681Y004252D01*
X008563Y004371D02*
X008398Y004371D01*
X008398Y004489D02*
X008444Y004489D01*
X008493Y004134D02*
X008800Y004134D01*
X008918Y004015D02*
X008612Y004015D01*
X008730Y003897D02*
X009037Y003897D01*
X009156Y003778D02*
X008792Y003778D01*
X008792Y003659D02*
X009723Y003659D01*
X009784Y003541D02*
X008792Y003541D01*
X008792Y003422D02*
X010035Y003422D01*
X010082Y003304D02*
X008792Y003304D01*
X008792Y003185D02*
X009563Y003185D01*
X009563Y003067D02*
X008792Y003067D01*
X008792Y002948D02*
X009563Y002948D01*
X009563Y002830D02*
X008792Y002830D01*
X008674Y002711D02*
X009563Y002711D01*
X009563Y002593D02*
X008556Y002593D01*
X008437Y002474D02*
X009591Y002474D01*
X010375Y002474D02*
X010499Y002474D01*
X010499Y002593D02*
X010403Y002593D01*
X010403Y002711D02*
X010499Y002711D01*
X010499Y002830D02*
X010403Y002830D01*
X010403Y002948D02*
X010499Y002948D01*
X010418Y003067D02*
X010403Y003067D01*
X011043Y001289D02*
X011123Y001289D01*
X011123Y001170D02*
X011043Y001170D01*
X011043Y001052D02*
X011123Y001052D01*
X011123Y000933D02*
X011043Y000933D01*
X013733Y001052D02*
X016484Y001052D01*
X016458Y000933D02*
X013743Y000933D01*
X015115Y002000D02*
X016458Y002000D01*
X016458Y001881D02*
X015234Y001881D01*
X015352Y001763D02*
X016458Y001763D01*
X016491Y001644D02*
X015570Y001644D01*
X015633Y001526D02*
X016610Y001526D01*
X017145Y001526D02*
X017349Y001526D01*
X017264Y001644D02*
X017442Y001644D01*
X017458Y001763D02*
X017298Y001763D01*
X017298Y001881D02*
X017458Y001881D01*
X017458Y002000D02*
X017298Y002000D01*
X017373Y002118D02*
X017550Y002118D01*
X017491Y002237D02*
X017669Y002237D01*
X017610Y002356D02*
X019381Y002356D01*
X019381Y002474D02*
X017728Y002474D01*
X017847Y002593D02*
X019380Y002593D01*
X019380Y002711D02*
X017966Y002711D01*
X018004Y002830D02*
X019379Y002830D01*
X019378Y002948D02*
X018004Y002948D01*
X018004Y003067D02*
X019378Y003067D01*
X019377Y003185D02*
X018004Y003185D01*
X018082Y003304D02*
X018627Y003304D01*
X018692Y003238D02*
X018423Y003508D01*
X018423Y003658D01*
X018842Y003658D01*
X018842Y003738D01*
X018423Y003738D01*
X018423Y003889D01*
X018692Y004158D01*
X018843Y004158D01*
X018843Y003739D01*
X018923Y003739D01*
X018923Y004158D01*
X019073Y004158D01*
X019343Y003889D01*
X019343Y003738D01*
X018923Y003738D01*
X018923Y003658D01*
X019343Y003658D01*
X019343Y003508D01*
X019073Y003238D01*
X018923Y003238D01*
X018923Y003658D01*
X018843Y003658D01*
X018843Y003238D01*
X018692Y003238D01*
X018843Y003304D02*
X018923Y003304D01*
X018923Y003422D02*
X018843Y003422D01*
X018843Y003541D02*
X018923Y003541D01*
X018923Y003659D02*
X019375Y003659D01*
X019375Y003541D02*
X019343Y003541D01*
X019376Y003422D02*
X019257Y003422D01*
X019139Y003304D02*
X019377Y003304D01*
X019374Y003778D02*
X019343Y003778D01*
X019335Y003897D02*
X019374Y003897D01*
X019373Y004015D02*
X019216Y004015D01*
X019098Y004134D02*
X019372Y004134D01*
X019372Y004252D02*
X018083Y004252D01*
X018083Y004134D02*
X018667Y004134D01*
X018549Y004015D02*
X018160Y004015D01*
X018278Y003897D02*
X018430Y003897D01*
X018423Y003778D02*
X018303Y003778D01*
X018303Y003659D02*
X018842Y003659D01*
X018843Y003778D02*
X018923Y003778D01*
X018923Y003897D02*
X018843Y003897D01*
X018843Y004015D02*
X018923Y004015D01*
X018923Y004134D02*
X018843Y004134D01*
X018843Y004335D02*
X018843Y004755D01*
X018923Y004755D01*
X018923Y004835D01*
X019343Y004835D01*
X019343Y004986D01*
X019073Y005255D01*
X018923Y005255D01*
X018923Y004835D01*
X018843Y004835D01*
X018843Y005255D01*
X018692Y005255D01*
X018423Y004986D01*
X018423Y004835D01*
X018842Y004835D01*
X018842Y004755D01*
X018423Y004755D01*
X018423Y004604D01*
X018692Y004335D01*
X018843Y004335D01*
X018843Y004371D02*
X018923Y004371D01*
X018923Y004335D02*
X019073Y004335D01*
X019343Y004604D01*
X019343Y004755D01*
X018923Y004755D01*
X018923Y004335D01*
X018923Y004489D02*
X018843Y004489D01*
X018843Y004608D02*
X018923Y004608D01*
X018923Y004726D02*
X018843Y004726D01*
X018843Y004845D02*
X018923Y004845D01*
X018923Y004963D02*
X018843Y004963D01*
X018843Y005082D02*
X018923Y005082D01*
X018923Y005201D02*
X018843Y005201D01*
X018638Y005201D02*
X018083Y005201D01*
X018083Y005319D02*
X019366Y005319D01*
X019367Y005201D02*
X019128Y005201D01*
X019246Y005082D02*
X019368Y005082D01*
X019368Y004963D02*
X019343Y004963D01*
X019343Y004845D02*
X019369Y004845D01*
X019369Y004726D02*
X019343Y004726D01*
X019343Y004608D02*
X019370Y004608D01*
X019371Y004489D02*
X019227Y004489D01*
X019109Y004371D02*
X019371Y004371D01*
X018656Y004371D02*
X018083Y004371D01*
X018171Y004489D02*
X018538Y004489D01*
X018423Y004608D02*
X018289Y004608D01*
X018303Y004726D02*
X018423Y004726D01*
X018423Y004845D02*
X018303Y004845D01*
X018303Y004963D02*
X018423Y004963D01*
X018519Y005082D02*
X018190Y005082D01*
X017743Y005319D02*
X016499Y005319D01*
X016518Y005201D02*
X016459Y005201D01*
X016463Y005082D02*
X016429Y005082D01*
X016429Y004963D02*
X016463Y004963D01*
X016463Y004845D02*
X016429Y004845D01*
X016089Y004845D02*
X015318Y004845D01*
X015298Y004963D02*
X016089Y004963D01*
X016089Y005082D02*
X015248Y005082D01*
X015248Y005201D02*
X016059Y005201D01*
X016019Y005319D02*
X015476Y005319D01*
X016036Y005427D02*
X016036Y005427D01*
X016283Y005675D02*
X016463Y005675D01*
X016463Y005793D02*
X016402Y005793D01*
X016364Y005556D02*
X016463Y005556D01*
X016479Y005438D02*
X017743Y005438D01*
X017627Y005556D02*
X017303Y005556D01*
X017303Y005675D02*
X017509Y005675D01*
X017463Y005793D02*
X017303Y005793D01*
X017303Y005912D02*
X017463Y005912D01*
X017463Y006030D02*
X017303Y006030D01*
X017303Y006149D02*
X017543Y006149D01*
X017661Y006267D02*
X017280Y006267D01*
X017280Y006623D02*
X017661Y006623D01*
X017743Y006505D02*
X016562Y006505D01*
X016508Y006386D02*
X017743Y006386D01*
X018083Y006386D02*
X019361Y006386D01*
X019362Y006267D02*
X019161Y006267D01*
X019073Y006355D02*
X018923Y006355D01*
X018923Y005935D01*
X019343Y005935D01*
X019343Y006086D01*
X019073Y006355D01*
X018923Y006267D02*
X018843Y006267D01*
X018843Y006355D02*
X018692Y006355D01*
X018423Y006086D01*
X018423Y005935D01*
X018842Y005935D01*
X018842Y005855D01*
X018423Y005855D01*
X018423Y005704D01*
X018692Y005435D01*
X018843Y005435D01*
X018843Y005855D01*
X018923Y005855D01*
X018923Y005935D01*
X018843Y005935D01*
X018843Y006355D01*
X018843Y006535D02*
X018843Y006955D01*
X018923Y006955D01*
X018923Y007035D01*
X019343Y007035D01*
X019343Y007186D01*
X019073Y007455D01*
X018923Y007455D01*
X018923Y007035D01*
X018843Y007035D01*
X018843Y007455D01*
X018692Y007455D01*
X018423Y007186D01*
X018423Y007035D01*
X018842Y007035D01*
X018842Y006955D01*
X018423Y006955D01*
X018423Y006804D01*
X018692Y006535D01*
X018843Y006535D01*
X018923Y006535D02*
X019073Y006535D01*
X019343Y006804D01*
X019343Y006955D01*
X018923Y006955D01*
X018923Y006535D01*
X018923Y006623D02*
X018843Y006623D01*
X018843Y006742D02*
X018923Y006742D01*
X018923Y006860D02*
X018843Y006860D01*
X018842Y006979D02*
X018303Y006979D01*
X018303Y007097D02*
X018423Y007097D01*
X018453Y007216D02*
X018256Y007216D01*
X018137Y007334D02*
X018571Y007334D01*
X018690Y007453D02*
X016003Y007453D01*
X016003Y007571D02*
X019355Y007571D01*
X019356Y007453D02*
X019075Y007453D01*
X018923Y007453D02*
X018843Y007453D01*
X018843Y007334D02*
X018923Y007334D01*
X018923Y007216D02*
X018843Y007216D01*
X018843Y007097D02*
X018923Y007097D01*
X018923Y006979D02*
X019358Y006979D01*
X019343Y007097D02*
X019357Y007097D01*
X019357Y007216D02*
X019312Y007216D01*
X019356Y007334D02*
X019194Y007334D01*
X019354Y007690D02*
X016003Y007690D01*
X016003Y007809D02*
X019354Y007809D01*
X019353Y007927D02*
X016003Y007927D01*
X015958Y008046D02*
X019353Y008046D01*
X019352Y008164D02*
X013516Y008164D01*
X013516Y008046D02*
X014107Y008046D01*
X014063Y007927D02*
X013519Y007927D01*
X013637Y007809D02*
X014063Y007809D01*
X014063Y007690D02*
X013756Y007690D01*
X013874Y007571D02*
X014063Y007571D01*
X014063Y007453D02*
X013993Y007453D01*
X013632Y007097D02*
X012967Y007097D01*
X012967Y007092D02*
X012967Y007663D01*
X012974Y007656D01*
X013062Y007620D01*
X013109Y007620D01*
X013727Y007002D01*
X013727Y006977D01*
X013683Y006977D01*
X013613Y006906D01*
X013613Y006007D01*
X013683Y005937D01*
X013727Y005937D01*
X013727Y005730D01*
X013709Y005737D01*
X013613Y005737D01*
X013525Y005701D01*
X013457Y005633D01*
X013421Y005545D01*
X013421Y005498D01*
X013276Y005352D01*
X013176Y005253D01*
X013176Y004959D01*
X013101Y004959D01*
X012011Y006049D01*
X012011Y006096D01*
X012003Y006115D01*
X012113Y006115D01*
X012113Y006007D01*
X012183Y005937D01*
X012542Y005937D01*
X012590Y005984D01*
X012605Y005958D01*
X012634Y005929D01*
X012671Y005908D01*
X012711Y005897D01*
X012858Y005897D01*
X012858Y006451D01*
X012868Y006451D01*
X012868Y005897D01*
X013014Y005897D01*
X013046Y005905D01*
X013027Y005860D01*
X013027Y005765D01*
X013064Y005676D01*
X013131Y005609D01*
X013219Y005572D01*
X013315Y005572D01*
X013403Y005609D01*
X013471Y005676D01*
X013507Y005765D01*
X013507Y005812D01*
X013516Y005821D01*
X013516Y005937D01*
X013542Y005937D01*
X013613Y006007D01*
X013613Y006906D01*
X013542Y006977D01*
X013183Y006977D01*
X013135Y006929D01*
X013121Y006955D01*
X013091Y006985D01*
X013054Y007006D01*
X013014Y007017D01*
X012868Y007017D01*
X012868Y006462D01*
X012858Y006462D01*
X012858Y007017D01*
X012711Y007017D01*
X012671Y007006D01*
X012634Y006985D01*
X012605Y006955D01*
X012590Y006929D01*
X012571Y006948D01*
X012571Y007022D01*
X012897Y007022D01*
X012967Y007092D01*
X012967Y007216D02*
X013513Y007216D01*
X013395Y007334D02*
X012967Y007334D01*
X012967Y007453D02*
X013276Y007453D01*
X013157Y007571D02*
X012967Y007571D01*
X012168Y007022D02*
X012114Y007076D01*
X012065Y007026D01*
X012020Y007008D01*
X012020Y006927D01*
X012053Y006893D01*
X012090Y006805D01*
X012090Y006709D01*
X012053Y006621D01*
X011986Y006554D01*
X011898Y006517D01*
X011802Y006517D01*
X011714Y006554D01*
X011646Y006621D01*
X011610Y006709D01*
X011610Y006805D01*
X011646Y006893D01*
X011680Y006927D01*
X011680Y007022D01*
X011048Y007022D01*
X011042Y007028D01*
X011041Y007026D01*
X010953Y006990D01*
X010857Y006990D01*
X010769Y007026D01*
X010758Y007038D01*
X010758Y006954D01*
X010348Y006954D01*
X010348Y006954D01*
X010758Y006954D01*
X010758Y006823D01*
X010747Y006782D01*
X010726Y006746D01*
X010718Y006738D01*
X010718Y006713D01*
X010760Y006670D01*
X010918Y006513D01*
X010918Y006455D01*
X012113Y006455D01*
X012113Y006906D01*
X012183Y006977D01*
X012231Y006977D01*
X012231Y007022D01*
X012168Y007022D01*
X012231Y006979D02*
X012020Y006979D01*
X012067Y006860D02*
X012113Y006860D01*
X012113Y006742D02*
X012090Y006742D01*
X012113Y006623D02*
X012054Y006623D01*
X012113Y006505D02*
X010918Y006505D01*
X010807Y006623D02*
X011646Y006623D01*
X011610Y006742D02*
X010721Y006742D01*
X010758Y006860D02*
X011633Y006860D01*
X011680Y006979D02*
X010758Y006979D01*
X010348Y006954D02*
X010322Y006962D01*
X010007Y006962D01*
X010007Y006899D01*
X009818Y006710D01*
X009974Y006742D02*
X007946Y006742D01*
X007946Y006860D02*
X009519Y006860D01*
X009484Y006979D02*
X007946Y006979D01*
X007946Y007097D02*
X009507Y007097D01*
X009554Y007216D02*
X008074Y007216D01*
X008106Y007334D02*
X009554Y007334D01*
X009554Y007453D02*
X008079Y007453D01*
X007934Y007571D02*
X009554Y007571D01*
X009554Y007690D02*
X008319Y007690D01*
X008588Y007809D02*
X008967Y007809D01*
X008933Y007927D02*
X008687Y007927D01*
X008704Y008046D02*
X008957Y008046D01*
X007979Y007690D02*
X007847Y007690D01*
X006558Y007188D02*
X006558Y007138D01*
X006569Y007097D01*
X006325Y007097D01*
X006398Y006979D02*
X006238Y006979D01*
X006279Y006860D02*
X003752Y006860D01*
X003752Y006979D02*
X003907Y006979D01*
X003820Y007097D02*
X003752Y007097D01*
X003752Y007216D02*
X003819Y007216D01*
X003819Y007334D02*
X003752Y007334D01*
X003412Y007571D02*
X003403Y007571D01*
X003403Y007690D02*
X003412Y007690D01*
X003403Y007809D02*
X003412Y007809D01*
X003403Y007927D02*
X003412Y007927D01*
X003403Y008046D02*
X003412Y008046D01*
X004313Y007809D02*
X004432Y007809D01*
X004432Y007690D02*
X004313Y007690D01*
X004783Y007927D02*
X005163Y007927D01*
X005097Y008046D02*
X004848Y008046D01*
X004848Y008164D02*
X005097Y008164D01*
X005097Y008283D02*
X004848Y008283D01*
X004848Y008401D02*
X005097Y008401D01*
X005097Y008520D02*
X004848Y008520D01*
X004848Y008638D02*
X005097Y008638D01*
X005097Y008757D02*
X004848Y008757D01*
X005574Y008994D02*
X000543Y008994D01*
X000543Y009112D02*
X004083Y009112D01*
X004083Y009231D02*
X003401Y009231D01*
X003402Y009705D02*
X004083Y009705D01*
X004140Y009824D02*
X003402Y009824D01*
X003391Y009942D02*
X014123Y009942D01*
X014023Y009824D02*
X012882Y009824D01*
X012922Y009705D02*
X014023Y009705D01*
X014023Y009587D02*
X012922Y009587D01*
X012922Y009350D02*
X014134Y009350D01*
X014023Y009468D02*
X012567Y009468D01*
X012566Y009587D02*
X012447Y009587D01*
X012447Y009705D02*
X012566Y009705D01*
X012566Y009824D02*
X012447Y009824D01*
X012131Y009824D02*
X012077Y009824D01*
X011440Y009824D02*
X011025Y009824D01*
X011082Y009705D02*
X011383Y009705D01*
X010388Y009824D02*
X010277Y009824D01*
X012853Y008994D02*
X013132Y008994D01*
X013273Y009112D02*
X012922Y009112D01*
X012922Y009231D02*
X014253Y009231D01*
X014309Y009072D02*
X014063Y008826D01*
X014063Y008478D01*
X014309Y008232D01*
X014657Y008232D01*
X014902Y008477D01*
X015163Y008477D01*
X015409Y008232D01*
X015757Y008232D01*
X016003Y008478D01*
X016003Y008826D01*
X015757Y009072D01*
X015409Y009072D01*
X015163Y008826D01*
X015163Y008817D01*
X014903Y008817D01*
X014903Y008826D01*
X014657Y009072D01*
X014309Y009072D01*
X014231Y008994D02*
X013560Y008994D01*
X013586Y008875D02*
X014112Y008875D01*
X014063Y008757D02*
X013553Y008757D01*
X013516Y008638D02*
X014063Y008638D01*
X014063Y008520D02*
X013516Y008520D01*
X013516Y008401D02*
X014139Y008401D01*
X014258Y008283D02*
X013516Y008283D01*
X014707Y008283D02*
X015358Y008283D01*
X015239Y008401D02*
X014826Y008401D01*
X014858Y008046D02*
X015207Y008046D01*
X015163Y007927D02*
X014903Y007927D01*
X014903Y007809D02*
X015163Y007809D01*
X015163Y007690D02*
X014903Y007690D01*
X014903Y007571D02*
X015163Y007571D01*
X015163Y007453D02*
X014903Y007453D01*
X014903Y007334D02*
X015163Y007334D01*
X015163Y007302D02*
X015163Y007302D01*
X015040Y007216D02*
X014545Y007216D01*
X014664Y007097D02*
X014996Y007097D01*
X015015Y006979D02*
X014776Y006979D01*
X015431Y007216D02*
X016463Y007216D01*
X016463Y007334D02*
X016003Y007334D01*
X016463Y007097D02*
X015476Y007097D01*
X015484Y006979D02*
X016463Y006979D01*
X016437Y006860D02*
X016113Y006860D01*
X016113Y006742D02*
X016318Y006742D01*
X016200Y006623D02*
X016113Y006623D01*
X016113Y006505D02*
X016168Y006505D01*
X016168Y006386D02*
X016113Y006386D01*
X016113Y006267D02*
X016168Y006267D01*
X016168Y006149D02*
X016113Y006149D01*
X016113Y006030D02*
X016158Y006030D01*
X016040Y005912D02*
X016005Y005912D01*
X015613Y006505D02*
X015613Y006505D01*
X015613Y006623D02*
X015613Y006623D01*
X015613Y006742D02*
X015613Y006742D01*
X015613Y006860D02*
X015613Y006860D01*
X017303Y006860D02*
X017463Y006860D01*
X017463Y006979D02*
X017303Y006979D01*
X017303Y007097D02*
X017463Y007097D01*
X017509Y007216D02*
X017303Y007216D01*
X017303Y007334D02*
X017628Y007334D01*
X018303Y006860D02*
X018423Y006860D01*
X018485Y006742D02*
X018223Y006742D01*
X018105Y006623D02*
X018604Y006623D01*
X018604Y006267D02*
X018104Y006267D01*
X018223Y006149D02*
X018486Y006149D01*
X018423Y006030D02*
X018303Y006030D01*
X018303Y005912D02*
X018842Y005912D01*
X018923Y005912D02*
X019363Y005912D01*
X019343Y005855D02*
X018923Y005855D01*
X018923Y005435D01*
X019073Y005435D01*
X019343Y005704D01*
X019343Y005855D01*
X019343Y005793D02*
X019364Y005793D01*
X019365Y005675D02*
X019313Y005675D01*
X019365Y005556D02*
X019194Y005556D01*
X019076Y005438D02*
X019366Y005438D01*
X018923Y005438D02*
X018843Y005438D01*
X018843Y005556D02*
X018923Y005556D01*
X018923Y005675D02*
X018843Y005675D01*
X018843Y005793D02*
X018923Y005793D01*
X018571Y005556D02*
X018138Y005556D01*
X018083Y005438D02*
X018689Y005438D01*
X018452Y005675D02*
X018256Y005675D01*
X018303Y005793D02*
X018423Y005793D01*
X018843Y006030D02*
X018923Y006030D01*
X018923Y006149D02*
X018843Y006149D01*
X019279Y006149D02*
X019362Y006149D01*
X019363Y006030D02*
X019343Y006030D01*
X019360Y006505D02*
X018083Y006505D01*
X017542Y006742D02*
X017303Y006742D01*
X019161Y006623D02*
X019360Y006623D01*
X019359Y006742D02*
X019280Y006742D01*
X019343Y006860D02*
X019359Y006860D01*
X018740Y008322D02*
X018450Y008202D01*
X018135Y008202D01*
X017845Y008322D01*
X017623Y008544D01*
X017503Y008835D01*
X017503Y009149D01*
X017623Y009439D01*
X017845Y009661D01*
X018135Y009782D01*
X018450Y009782D01*
X018740Y009661D01*
X018962Y009439D01*
X019082Y009149D01*
X019082Y008835D01*
X018962Y008544D01*
X018740Y008322D01*
X018645Y008283D02*
X019351Y008283D01*
X019351Y008401D02*
X018819Y008401D01*
X018938Y008520D02*
X019350Y008520D01*
X019350Y008638D02*
X019001Y008638D01*
X019050Y008757D02*
X019349Y008757D01*
X019348Y008875D02*
X019082Y008875D01*
X019082Y008994D02*
X019348Y008994D01*
X019347Y009112D02*
X019082Y009112D01*
X019048Y009231D02*
X019347Y009231D01*
X019346Y009350D02*
X018999Y009350D01*
X018933Y009468D02*
X019345Y009468D01*
X019345Y009587D02*
X018815Y009587D01*
X018634Y009705D02*
X019344Y009705D01*
X019344Y009824D02*
X016043Y009824D01*
X016043Y009705D02*
X017951Y009705D01*
X017770Y009587D02*
X016043Y009587D01*
X016043Y009468D02*
X017652Y009468D01*
X017586Y009350D02*
X015931Y009350D01*
X015812Y009231D02*
X017537Y009231D01*
X017503Y009112D02*
X013419Y009112D01*
X014443Y009231D02*
X014523Y009231D01*
X014523Y009350D02*
X014443Y009350D01*
X014443Y009468D02*
X014523Y009468D01*
X014523Y009587D02*
X014443Y009587D01*
X014831Y009350D02*
X015234Y009350D01*
X015123Y009468D02*
X014943Y009468D01*
X014943Y009587D02*
X015123Y009587D01*
X015123Y009705D02*
X014943Y009705D01*
X014943Y009824D02*
X015123Y009824D01*
X015223Y009942D02*
X014843Y009942D01*
X015543Y009587D02*
X015623Y009587D01*
X015623Y009468D02*
X015543Y009468D01*
X015543Y009350D02*
X015623Y009350D01*
X015623Y009231D02*
X015543Y009231D01*
X015353Y009231D02*
X014712Y009231D01*
X014734Y008994D02*
X015331Y008994D01*
X015212Y008875D02*
X014853Y008875D01*
X015834Y008994D02*
X017503Y008994D01*
X017503Y008875D02*
X015953Y008875D01*
X016003Y008757D02*
X017535Y008757D01*
X017584Y008638D02*
X016003Y008638D01*
X016003Y008520D02*
X017647Y008520D01*
X017766Y008401D02*
X015926Y008401D01*
X015807Y008283D02*
X017940Y008283D01*
X019343Y009942D02*
X015943Y009942D01*
X017533Y011122D02*
X017533Y019822D01*
X016940Y019544D02*
X016647Y019544D01*
X016766Y019426D02*
X016940Y019426D01*
X016939Y019307D02*
X016830Y019307D01*
X016879Y019189D02*
X016938Y019189D01*
X016938Y019070D02*
X016912Y019070D01*
X016912Y018952D02*
X016937Y018952D01*
X016936Y018833D02*
X016912Y018833D01*
X016936Y018714D02*
X016879Y018714D01*
X016830Y018596D02*
X016935Y018596D01*
X016934Y018477D02*
X016765Y018477D01*
X016647Y018359D02*
X016934Y018359D01*
X016933Y018240D02*
X016469Y018240D01*
X016932Y018122D02*
X014793Y018122D01*
X014793Y018240D02*
X015776Y018240D01*
X015598Y018359D02*
X014789Y018359D01*
X014671Y018477D02*
X015480Y018477D01*
X015415Y018596D02*
X014566Y018596D01*
X014566Y018714D02*
X015366Y018714D01*
X015333Y018833D02*
X014619Y018833D01*
X014737Y018952D02*
X015333Y018952D01*
X015333Y019070D02*
X014790Y019070D01*
X014790Y019189D02*
X015366Y019189D01*
X015415Y019307D02*
X014790Y019307D01*
X014715Y019426D02*
X015480Y019426D01*
X015598Y019544D02*
X014597Y019544D01*
X014142Y019544D02*
X013597Y019544D01*
X013715Y019426D02*
X014024Y019426D01*
X013950Y019307D02*
X013790Y019307D01*
X013790Y019189D02*
X013950Y019189D01*
X013950Y019070D02*
X013790Y019070D01*
X013737Y018952D02*
X014002Y018952D01*
X014120Y018833D02*
X013619Y018833D01*
X013558Y018714D02*
X014226Y018714D01*
X014193Y018596D02*
X013558Y018596D01*
X013671Y018477D02*
X014074Y018477D01*
X013956Y018359D02*
X013789Y018359D01*
X013793Y018240D02*
X013953Y018240D01*
X013953Y018122D02*
X013793Y018122D01*
X013788Y018003D02*
X013957Y018003D01*
X014076Y017885D02*
X013669Y017885D01*
X013551Y017766D02*
X014194Y017766D01*
X014116Y017529D02*
X013666Y017529D01*
X013784Y017411D02*
X013997Y017411D01*
X013943Y017292D02*
X013823Y017292D01*
X013403Y017292D02*
X013323Y017292D01*
X013323Y017411D02*
X013403Y017411D01*
X013403Y017529D02*
X013323Y017529D01*
X013194Y017766D02*
X013183Y017766D01*
X013388Y017141D02*
X013892Y016637D01*
X013892Y015755D01*
X014333Y015632D02*
X014452Y015632D01*
X014452Y015514D02*
X014333Y015514D01*
X014333Y015395D02*
X014452Y015395D01*
X014452Y015277D02*
X014333Y015277D01*
X014333Y014921D02*
X014452Y014921D01*
X014452Y014803D02*
X014333Y014803D01*
X014333Y014684D02*
X014452Y014684D01*
X014452Y014565D02*
X014333Y014565D01*
X013938Y014803D02*
X013936Y014803D01*
X013938Y014921D02*
X013908Y014921D01*
X013908Y015040D02*
X013938Y015040D01*
X013078Y015040D02*
X013008Y015040D01*
X013008Y015158D02*
X013078Y015158D01*
X013078Y015277D02*
X013008Y015277D01*
X013008Y015395D02*
X013078Y015395D01*
X013078Y015514D02*
X013008Y015514D01*
X013081Y015869D02*
X012924Y015869D01*
X013013Y014921D02*
X013078Y014921D01*
X015294Y015395D02*
X015371Y015395D01*
X015371Y015514D02*
X015294Y015514D01*
X015294Y015632D02*
X015371Y015632D01*
X015552Y015632D02*
X016918Y015632D01*
X016917Y015514D02*
X016793Y015514D01*
X016793Y015395D02*
X016917Y015395D01*
X016916Y015277D02*
X016793Y015277D01*
X016793Y015158D02*
X016915Y015158D01*
X016915Y015040D02*
X016793Y015040D01*
X016793Y014921D02*
X016914Y014921D01*
X016913Y014803D02*
X016763Y014803D01*
X016913Y014684D02*
X015649Y014684D01*
X015649Y014803D02*
X015982Y014803D01*
X015953Y014921D02*
X015637Y014921D01*
X015689Y015040D02*
X015953Y015040D01*
X015953Y015158D02*
X015689Y015158D01*
X015813Y014778D02*
X015939Y014652D01*
X015907Y014621D01*
X015907Y014558D01*
X015340Y013991D01*
X015333Y013956D01*
X015340Y013928D01*
X015907Y013361D01*
X015975Y013380D02*
X015649Y013380D01*
X015649Y013499D02*
X016094Y013499D01*
X016180Y013722D02*
X015911Y013991D01*
X015911Y014142D01*
X016330Y014142D01*
X016330Y014222D01*
X015911Y014222D01*
X015911Y014372D01*
X016180Y014642D01*
X016331Y014642D01*
X016331Y014222D01*
X016411Y014222D01*
X016831Y014222D01*
X016831Y014372D01*
X016561Y014642D01*
X016411Y014642D01*
X016411Y014222D01*
X016411Y014142D01*
X016831Y014142D01*
X016831Y013991D01*
X016561Y013722D01*
X016411Y013722D01*
X016411Y014141D01*
X016331Y014141D01*
X016331Y013722D01*
X016180Y013722D01*
X016166Y013736D02*
X015689Y013736D01*
X015689Y013854D02*
X016048Y013854D01*
X015929Y013973D02*
X015371Y013973D01*
X015689Y014091D02*
X015911Y014091D01*
X015911Y014328D02*
X015649Y014328D01*
X015649Y014447D02*
X015985Y014447D01*
X016104Y014565D02*
X015649Y014565D01*
X015939Y014652D02*
X016348Y014243D01*
X016371Y014182D01*
X016411Y014210D02*
X016910Y014210D01*
X016911Y014328D02*
X016831Y014328D01*
X016756Y014447D02*
X016911Y014447D01*
X016912Y014565D02*
X016637Y014565D01*
X016411Y014565D02*
X016331Y014565D01*
X016331Y014447D02*
X016411Y014447D01*
X016411Y014328D02*
X016331Y014328D01*
X016330Y014210D02*
X015685Y014210D01*
X016331Y014091D02*
X016411Y014091D01*
X016411Y013973D02*
X016331Y013973D01*
X016331Y013854D02*
X016411Y013854D01*
X016411Y013736D02*
X016331Y013736D01*
X016575Y013736D02*
X016907Y013736D01*
X016908Y013854D02*
X016694Y013854D01*
X016812Y013973D02*
X016909Y013973D01*
X016909Y014091D02*
X016831Y014091D01*
X016907Y013617D02*
X015633Y013617D01*
X016052Y012906D02*
X014373Y012906D01*
X014373Y012787D02*
X016171Y012787D01*
X016331Y012550D02*
X016411Y012550D01*
X016411Y012432D02*
X016331Y012432D01*
X016331Y012313D02*
X016411Y012313D01*
X016330Y012195D02*
X014373Y012195D01*
X014373Y012313D02*
X015911Y012313D01*
X015911Y012432D02*
X014373Y012432D01*
X014373Y012550D02*
X015925Y012550D01*
X015911Y012076D02*
X012217Y012076D01*
X012099Y011958D02*
X015911Y011958D01*
X015916Y011839D02*
X012027Y011839D01*
X012336Y012195D02*
X012633Y012195D01*
X012633Y012313D02*
X012424Y012313D01*
X012424Y012432D02*
X012633Y012432D01*
X012633Y012550D02*
X012424Y012550D01*
X012424Y012669D02*
X012633Y012669D01*
X012633Y012787D02*
X012424Y012787D01*
X012424Y012906D02*
X012633Y012906D01*
X012633Y013024D02*
X012424Y013024D01*
X014373Y012669D02*
X016901Y012669D01*
X016902Y012787D02*
X016570Y012787D01*
X016689Y012906D02*
X016903Y012906D01*
X016903Y013024D02*
X016791Y013024D01*
X016791Y013143D02*
X016904Y013143D01*
X016905Y013261D02*
X016791Y013261D01*
X016766Y013380D02*
X016905Y013380D01*
X016906Y013499D02*
X016648Y013499D01*
X016816Y012550D02*
X016901Y012550D01*
X016900Y012432D02*
X016831Y012432D01*
X016831Y012313D02*
X016899Y012313D01*
X016411Y012076D02*
X016331Y012076D01*
X016331Y011958D02*
X016411Y011958D01*
X016411Y011839D02*
X016331Y011839D01*
X017533Y011122D02*
X019933Y011122D01*
X013727Y006979D02*
X013097Y006979D01*
X012868Y006979D02*
X012858Y006979D01*
X012858Y006860D02*
X012868Y006860D01*
X012858Y006742D02*
X012868Y006742D01*
X012858Y006623D02*
X012868Y006623D01*
X012858Y006505D02*
X012868Y006505D01*
X012858Y006386D02*
X012868Y006386D01*
X012858Y006267D02*
X012868Y006267D01*
X012858Y006149D02*
X012868Y006149D01*
X012858Y006030D02*
X012868Y006030D01*
X012858Y005912D02*
X012868Y005912D01*
X013027Y005793D02*
X012267Y005793D01*
X012385Y005675D02*
X013065Y005675D01*
X013361Y005438D02*
X012622Y005438D01*
X012504Y005556D02*
X013426Y005556D01*
X013469Y005675D02*
X013499Y005675D01*
X013507Y005793D02*
X013727Y005793D01*
X013727Y005912D02*
X013516Y005912D01*
X013613Y006030D02*
X013613Y006030D01*
X013613Y006149D02*
X013613Y006149D01*
X013613Y006267D02*
X013613Y006267D01*
X013613Y006386D02*
X013613Y006386D01*
X013613Y006505D02*
X013613Y006505D01*
X013613Y006623D02*
X013613Y006623D01*
X013613Y006742D02*
X013613Y006742D01*
X013613Y006860D02*
X013613Y006860D01*
X012628Y006979D02*
X012571Y006979D01*
X012113Y006030D02*
X012030Y006030D01*
X012148Y005912D02*
X012664Y005912D01*
X012741Y005319D02*
X013242Y005319D01*
X013176Y005201D02*
X012859Y005201D01*
X012978Y005082D02*
X013176Y005082D01*
X013176Y004963D02*
X013097Y004963D01*
X015012Y004608D02*
X016121Y004608D01*
X016144Y004489D02*
X016168Y004489D01*
X016153Y004371D02*
X016168Y004371D01*
X016153Y004252D02*
X016168Y004252D01*
X016153Y004134D02*
X016168Y004134D01*
X016153Y004015D02*
X016168Y004015D01*
X016153Y003897D02*
X016168Y003897D01*
X016153Y003778D02*
X016168Y003778D01*
X016153Y003659D02*
X016168Y003659D01*
X016168Y003541D02*
X016122Y003541D01*
X016070Y003422D02*
X015448Y003422D01*
X015330Y003304D02*
X015952Y003304D01*
X015833Y003185D02*
X015211Y003185D01*
X015093Y003067D02*
X015714Y003067D01*
X015596Y002948D02*
X014167Y002948D01*
X014285Y002830D02*
X015477Y002830D01*
X015359Y002711D02*
X014404Y002711D01*
X014760Y002356D02*
X015084Y002356D01*
X015165Y002237D02*
X014878Y002237D01*
X014997Y002118D02*
X016550Y002118D01*
X016669Y002237D02*
X015464Y002237D01*
X015545Y002356D02*
X017129Y002356D01*
X017248Y002474D02*
X015602Y002474D01*
X015721Y002593D02*
X017366Y002593D01*
X017485Y002711D02*
X015840Y002711D01*
X015958Y002830D02*
X017603Y002830D01*
X017664Y002948D02*
X016077Y002948D01*
X016195Y003067D02*
X017664Y003067D01*
X017664Y003185D02*
X016314Y003185D01*
X016432Y003304D02*
X016507Y003304D01*
X015868Y003541D02*
X015858Y003541D01*
X015858Y003659D02*
X015868Y003659D01*
X015858Y003778D02*
X015868Y003778D01*
X015858Y003897D02*
X015868Y003897D01*
X015858Y004015D02*
X015868Y004015D01*
X015858Y004134D02*
X015868Y004134D01*
X015858Y004252D02*
X015868Y004252D01*
X015858Y004371D02*
X015868Y004371D01*
X015858Y004489D02*
X015868Y004489D01*
X016089Y004726D02*
X015277Y004726D01*
X015115Y004489D02*
X015110Y004489D01*
X015113Y004371D02*
X015113Y004371D01*
X015113Y004252D02*
X015113Y004252D01*
X015113Y004134D02*
X015113Y004134D01*
X015113Y004015D02*
X015113Y004015D01*
X015113Y003897D02*
X015113Y003897D01*
X015113Y003778D02*
X015113Y003778D01*
X015113Y003659D02*
X015113Y003659D01*
X015086Y003541D02*
X015066Y003541D01*
X015566Y003541D02*
X015603Y003541D01*
X016508Y004134D02*
X017743Y004134D01*
X017743Y004252D02*
X016508Y004252D01*
X016508Y004371D02*
X017743Y004371D01*
X017594Y004489D02*
X017303Y004489D01*
X017303Y004608D02*
X017476Y004608D01*
X017463Y004726D02*
X017303Y004726D01*
X017303Y004845D02*
X017463Y004845D01*
X017463Y004963D02*
X017303Y004963D01*
X017303Y005082D02*
X017576Y005082D01*
X017694Y005201D02*
X017247Y005201D01*
X017303Y004015D02*
X017605Y004015D01*
X017487Y003897D02*
X017303Y003897D01*
X017303Y003778D02*
X017463Y003778D01*
X017463Y003659D02*
X017303Y003659D01*
X017303Y003541D02*
X017463Y003541D01*
X017565Y003422D02*
X017303Y003422D01*
X017258Y003304D02*
X017664Y003304D01*
X018201Y003422D02*
X018508Y003422D01*
X018423Y003541D02*
X018303Y003541D01*
X018687Y002312D02*
X018418Y002042D01*
X018418Y001892D01*
X018837Y001892D01*
X018837Y001812D01*
X018418Y001812D01*
X018418Y001661D01*
X018687Y001392D01*
X018838Y001392D01*
X018838Y001811D01*
X018918Y001811D01*
X018918Y001392D01*
X019068Y001392D01*
X019338Y001661D01*
X019338Y001812D01*
X018918Y001812D01*
X018918Y001892D01*
X019338Y001892D01*
X019338Y002042D01*
X019068Y002312D01*
X018918Y002312D01*
X018918Y001892D01*
X018838Y001892D01*
X018838Y002312D01*
X018687Y002312D01*
X018612Y002237D02*
X018086Y002237D01*
X018205Y002118D02*
X018494Y002118D01*
X018418Y002000D02*
X018298Y002000D01*
X018298Y001881D02*
X018837Y001881D01*
X018918Y001881D02*
X019384Y001881D01*
X019384Y001763D02*
X019338Y001763D01*
X019321Y001644D02*
X019385Y001644D01*
X019386Y001526D02*
X019202Y001526D01*
X019084Y001407D02*
X019386Y001407D01*
X019387Y001289D02*
X017689Y001289D01*
X017689Y001407D02*
X018672Y001407D01*
X018704Y001272D02*
X018458Y001026D01*
X018458Y000678D01*
X018704Y000432D01*
X019052Y000432D01*
X019298Y000678D01*
X019298Y001026D01*
X019052Y001272D01*
X018704Y001272D01*
X018602Y001170D02*
X018153Y001170D01*
X018272Y001052D02*
X018483Y001052D01*
X018458Y000933D02*
X018298Y000933D01*
X018298Y000814D02*
X018458Y000814D01*
X018458Y000696D02*
X018298Y000696D01*
X018197Y000577D02*
X018558Y000577D01*
X018677Y000459D02*
X018079Y000459D01*
X017677Y000459D02*
X017079Y000459D01*
X017197Y000577D02*
X017558Y000577D01*
X017458Y000696D02*
X017298Y000696D01*
X017298Y000814D02*
X017458Y000814D01*
X017458Y000933D02*
X017298Y000933D01*
X017272Y001052D02*
X017484Y001052D01*
X018146Y001526D02*
X018553Y001526D01*
X018435Y001644D02*
X018264Y001644D01*
X018298Y001763D02*
X018418Y001763D01*
X018838Y001763D02*
X018918Y001763D01*
X018918Y001644D02*
X018838Y001644D01*
X018838Y001526D02*
X018918Y001526D01*
X018918Y001407D02*
X018838Y001407D01*
X019153Y001170D02*
X019387Y001170D01*
X019388Y001052D02*
X019272Y001052D01*
X019298Y000933D02*
X019389Y000933D01*
X019389Y000814D02*
X019298Y000814D01*
X019298Y000696D02*
X019390Y000696D01*
X019390Y000577D02*
X019197Y000577D01*
X019079Y000459D02*
X019391Y000459D01*
X019338Y002000D02*
X019383Y002000D01*
X019383Y002118D02*
X019261Y002118D01*
X019143Y002237D02*
X019382Y002237D01*
X018918Y002237D02*
X018838Y002237D01*
X018838Y002118D02*
X018918Y002118D01*
X018918Y002000D02*
X018838Y002000D01*
X010191Y005438D02*
X009959Y005438D01*
X008811Y005639D02*
X008811Y006458D01*
X009928Y006860D02*
X009938Y006860D01*
X006967Y006639D02*
X006967Y006639D01*
X006558Y006639D01*
X006558Y006508D01*
X006561Y006494D01*
X006394Y006494D01*
X006558Y006658D01*
X006558Y006639D01*
X006967Y006639D01*
X006558Y006623D02*
X006523Y006623D01*
X006559Y006505D02*
X006405Y006505D01*
X006189Y006770D02*
X006186Y006770D01*
X006189Y006770D02*
X006504Y007085D01*
X006576Y007085D01*
X006569Y007097D01*
X005832Y007097D02*
X005713Y007097D01*
X005713Y006979D02*
X005832Y006979D01*
X005832Y007216D02*
X005713Y007216D01*
X005713Y007334D02*
X005832Y007334D01*
X004432Y007334D02*
X004313Y007334D01*
X004313Y007216D02*
X004432Y007216D01*
X004432Y007097D02*
X004313Y007097D01*
X004313Y006979D02*
X004432Y006979D01*
X001783Y008283D02*
X001239Y008283D01*
X001357Y008164D02*
X001664Y008164D01*
X001563Y008046D02*
X001443Y008046D01*
X001023Y008283D02*
X000943Y008283D01*
X000943Y007809D02*
X001023Y007809D01*
X001023Y007690D02*
X000943Y007690D01*
X000943Y007571D02*
X001023Y007571D01*
X001023Y007453D02*
X000943Y007453D01*
X000768Y007453D02*
X000543Y007453D01*
X000543Y007571D02*
X000649Y007571D01*
X000943Y007216D02*
X001023Y007216D01*
X001022Y009231D02*
X000942Y009231D01*
X000942Y009350D02*
X001022Y009350D01*
X001022Y009468D02*
X000942Y009468D01*
X001022Y009587D02*
X001562Y009587D01*
X001562Y009705D02*
X001442Y009705D01*
X001391Y009824D02*
X001630Y009824D01*
X001562Y009756D02*
X001562Y009408D01*
X001808Y009162D01*
X002156Y009162D01*
X002402Y009408D01*
X002402Y009756D01*
X002156Y010002D01*
X001808Y010002D01*
X001562Y009756D01*
X001749Y009942D02*
X001272Y009942D01*
X001442Y009468D02*
X001562Y009468D01*
X001621Y009350D02*
X001400Y009350D01*
X001282Y009231D02*
X001739Y009231D01*
X002225Y009231D02*
X002563Y009231D01*
X002562Y009350D02*
X002344Y009350D01*
X002402Y009468D02*
X002562Y009468D01*
X002562Y009587D02*
X002402Y009587D01*
X002402Y009705D02*
X002562Y009705D01*
X002562Y009824D02*
X002334Y009824D01*
X002216Y009942D02*
X002573Y009942D01*
X000683Y009231D02*
X000543Y009231D01*
X000543Y009350D02*
X000564Y009350D01*
X000543Y011246D02*
X001035Y011246D01*
X000752Y011365D02*
X000543Y011365D01*
X000543Y011483D02*
X000634Y011483D01*
X000604Y012550D02*
X000543Y012550D01*
X000543Y012669D02*
X000723Y012669D01*
X000543Y012787D02*
X000963Y012787D01*
X004777Y009824D02*
X004888Y009824D01*
X006705Y008994D02*
X006956Y008994D01*
X009427Y011365D02*
X010038Y011365D01*
X010038Y011483D02*
X009463Y011483D01*
X009463Y011602D02*
X010038Y011602D01*
X010038Y011720D02*
X009463Y011720D01*
X009463Y011839D02*
X010038Y011839D01*
X009952Y011958D02*
X009463Y011958D01*
X009557Y012076D02*
X009629Y012076D01*
X009593Y012112D02*
X009593Y012947D01*
X009593Y012947D01*
X009593Y012112D01*
X009593Y012195D02*
X009593Y012195D01*
X009593Y012313D02*
X009593Y012313D01*
X009593Y012432D02*
X009593Y012432D01*
X009593Y012550D02*
X009593Y012550D01*
X009593Y012669D02*
X009593Y012669D01*
X009593Y012787D02*
X009593Y012787D01*
X009593Y012906D02*
X009593Y012906D01*
X011156Y011483D02*
X011157Y011483D01*
X011157Y011365D02*
X010908Y011365D01*
X015783Y017292D02*
X015913Y017292D01*
X015951Y017411D02*
X015728Y017411D01*
X015609Y017529D02*
X016069Y017529D01*
X016333Y017529D02*
X016413Y017529D01*
X016413Y017411D02*
X016333Y017411D01*
X016333Y017292D02*
X016413Y017292D01*
X016676Y017529D02*
X016929Y017529D01*
X016928Y017411D02*
X016794Y017411D01*
X016833Y017292D02*
X016928Y017292D01*
X016931Y017885D02*
X014669Y017885D01*
X014788Y018003D02*
X016932Y018003D01*
X005746Y000933D02*
X005627Y000933D01*
X005627Y000814D02*
X005746Y000814D01*
X005746Y000696D02*
X005627Y000696D01*
X005247Y000696D02*
X004703Y000696D01*
X004987Y000814D02*
X005231Y000814D01*
X005231Y000933D02*
X005070Y000933D01*
D13*
X001983Y002582D03*
X000983Y002582D03*
X000983Y004185D03*
X001983Y004185D03*
X001983Y005288D03*
X000983Y005288D03*
X000983Y006785D03*
X001983Y006785D03*
X001983Y007889D03*
X000983Y007889D03*
X000982Y009582D03*
X001982Y009582D03*
X003363Y016182D03*
X004363Y016182D03*
X005363Y016182D03*
X006363Y016182D03*
X007363Y016182D03*
X008363Y016182D03*
X009363Y016182D03*
X010363Y016182D03*
X011363Y016182D03*
X012363Y016182D03*
X013363Y016182D03*
X014363Y016182D03*
X015363Y016182D03*
X016373Y016182D03*
X016373Y017182D03*
X015363Y017182D03*
X014363Y017182D03*
X013363Y017182D03*
X012363Y017182D03*
X011363Y017182D03*
X010363Y017182D03*
X009363Y017182D03*
X008363Y017182D03*
X007363Y017182D03*
X006363Y017182D03*
X005363Y017182D03*
X004363Y017182D03*
X003363Y017182D03*
X003369Y018173D03*
X004369Y018173D03*
X004369Y019173D03*
X003369Y019173D03*
X002369Y019173D03*
X007370Y019187D03*
X008370Y019187D03*
X009370Y019187D03*
X012370Y019178D03*
X013370Y019178D03*
X014370Y019178D03*
X014373Y018182D03*
X013373Y018182D03*
X012373Y018182D03*
X018232Y018916D03*
X019232Y018916D03*
X019232Y017916D03*
X016371Y014182D03*
X016371Y013182D03*
X018233Y012922D03*
X019233Y012922D03*
X019233Y011922D03*
X015583Y009652D03*
X014483Y009652D03*
X014483Y008652D03*
X015583Y008652D03*
X017883Y006995D03*
X018883Y006995D03*
X018883Y005895D03*
X017883Y005895D03*
X017883Y004795D03*
X018883Y004795D03*
X018883Y003698D03*
X017883Y003698D03*
X017878Y001852D03*
X016878Y001852D03*
X016878Y000852D03*
X017878Y000852D03*
X018878Y000852D03*
X018878Y001852D03*
X013283Y001852D03*
X012183Y001852D03*
X011083Y001852D03*
X009983Y001852D03*
X009983Y000852D03*
X011083Y000852D03*
X012183Y000852D03*
X013283Y000852D03*
D14*
X007972Y000977D03*
X006853Y000977D03*
X006853Y001882D03*
X007972Y001882D03*
X010158Y004007D03*
X011277Y004007D03*
X011413Y007497D03*
X012532Y007497D03*
X012532Y008492D03*
X011413Y008492D03*
X011592Y011722D03*
X010473Y011722D03*
X007492Y011722D03*
X006373Y011722D03*
X005532Y008397D03*
X004413Y008397D03*
D15*
X004373Y007417D03*
X005773Y007417D03*
X005773Y006236D03*
X004373Y006236D03*
X004368Y005467D03*
X004368Y004286D03*
D16*
X005569Y004963D03*
X006750Y004963D03*
D17*
X005894Y003407D03*
X007794Y003407D03*
D18*
X012363Y004037D03*
X012863Y004037D03*
X013363Y004037D03*
X013863Y004037D03*
X014363Y004037D03*
X014863Y004037D03*
X015363Y004037D03*
X015863Y004037D03*
X015863Y006457D03*
X015363Y006457D03*
X014863Y006457D03*
X014363Y006457D03*
X013863Y006457D03*
X013363Y006457D03*
X012863Y006457D03*
X012363Y006457D03*
X009843Y012562D03*
X009343Y012562D03*
X008843Y012562D03*
X008343Y012562D03*
X005493Y012532D03*
X004993Y012532D03*
X004493Y012532D03*
X003993Y012532D03*
X003993Y015032D03*
X004493Y015032D03*
X004993Y015032D03*
X005493Y015032D03*
X008343Y015062D03*
X008843Y015062D03*
X009343Y015062D03*
X009843Y015062D03*
X017983Y014172D03*
X018483Y014172D03*
X018983Y014172D03*
X019483Y014172D03*
X019483Y016672D03*
X018983Y016672D03*
X018483Y016672D03*
X017983Y016672D03*
D19*
X010348Y007899D03*
X010348Y007584D03*
X010348Y007269D03*
X010348Y006954D03*
X010348Y006639D03*
X010348Y006324D03*
X010348Y006009D03*
X010348Y005694D03*
X006968Y005694D03*
X006968Y006009D03*
X006968Y006324D03*
X006968Y006639D03*
X006968Y006954D03*
X006968Y007269D03*
X006968Y007584D03*
X006968Y007899D03*
D20*
X007555Y008487D03*
X007870Y008487D03*
X008185Y008487D03*
X008500Y008487D03*
X008815Y008487D03*
X009130Y008487D03*
X009445Y008487D03*
X009760Y008487D03*
X009760Y005107D03*
X009445Y005107D03*
X009130Y005107D03*
X008815Y005107D03*
X008500Y005107D03*
X008185Y005107D03*
X007870Y005107D03*
X007555Y005107D03*
D21*
X005682Y001962D03*
X005687Y001062D03*
X004309Y001062D03*
X004304Y001962D03*
D22*
X002369Y018173D03*
D23*
X001343Y018158D03*
X001343Y018906D03*
X001333Y016946D03*
X002303Y016906D03*
X002303Y016158D03*
X001333Y016198D03*
X001333Y014996D03*
X001333Y014248D03*
X002933Y014248D03*
X002933Y014996D03*
X007333Y015096D03*
X007333Y014348D03*
X010933Y014348D03*
X010933Y015096D03*
X010933Y013396D03*
X010933Y012648D03*
D24*
X010707Y009422D03*
X009959Y009422D03*
X011759Y009422D03*
X012507Y009422D03*
X007107Y009422D03*
X006359Y009422D03*
X005207Y009422D03*
X004459Y009422D03*
X005669Y018222D03*
X006417Y018222D03*
X009659Y018222D03*
X010407Y018222D03*
D25*
X011373Y018182D03*
X011370Y019178D03*
X006370Y019187D03*
X016373Y015182D03*
X018232Y017916D03*
X016371Y012182D03*
X018233Y011922D03*
X015583Y007652D03*
X014483Y007652D03*
X016883Y006995D03*
X016883Y005895D03*
X016883Y004795D03*
X016883Y003698D03*
X013283Y002852D03*
X012183Y002852D03*
X011083Y002852D03*
X009983Y002852D03*
X002983Y002582D03*
X002983Y004185D03*
X002983Y005288D03*
X002983Y006785D03*
X002983Y007889D03*
X002982Y009582D03*
D26*
X012593Y015112D03*
X013493Y015112D03*
X014393Y015112D03*
D27*
X013503Y012632D03*
D28*
X015333Y013287D03*
X015333Y013956D03*
X015333Y014587D03*
X015333Y015256D03*
X007333Y013456D03*
X007333Y012787D03*
X002933Y012687D03*
X002933Y013356D03*
D29*
X004380Y013172D03*
X006396Y012983D03*
X008811Y006458D03*
X009440Y006458D03*
X008811Y005639D03*
X012716Y005513D03*
D30*
X013267Y005812D03*
X013661Y005497D03*
X014133Y005261D03*
X013661Y005104D03*
X013740Y004631D03*
X014370Y004631D03*
X015078Y004867D03*
X015314Y005497D03*
X015393Y005812D03*
X015787Y005812D03*
X016259Y005340D03*
X014842Y005812D03*
X012795Y004631D03*
X012401Y004631D03*
X011141Y005261D03*
X010354Y005261D03*
X009173Y005576D03*
X009881Y006127D03*
X009881Y006442D03*
X009724Y006993D03*
X010905Y007230D03*
X011850Y006757D03*
X011929Y007230D03*
X011929Y007623D03*
X013110Y007860D03*
X013031Y008647D03*
X013346Y008883D03*
X010905Y008883D03*
X010511Y008253D03*
X009803Y007938D03*
X009488Y008017D03*
X009173Y007938D03*
X008464Y008017D03*
X008149Y007860D03*
X007677Y007860D03*
X007866Y007340D03*
X006417Y007387D03*
X006102Y008096D03*
X007283Y008883D03*
X007834Y009434D03*
X008779Y009198D03*
X009015Y008962D03*
X005708Y009198D03*
X004191Y011723D03*
X003624Y012731D03*
X005199Y013172D03*
X002994Y013802D03*
X003687Y014495D03*
X002364Y015566D03*
X002805Y016133D03*
X005073Y017645D03*
X005892Y017708D03*
X005829Y016763D03*
X005892Y016448D03*
X008474Y016700D03*
X009797Y016637D03*
X010238Y016700D03*
X010931Y017456D03*
X011183Y015629D03*
X011498Y014936D03*
X012821Y014495D03*
X013514Y013991D03*
X013892Y014558D03*
X014963Y013613D03*
X012002Y013298D03*
X011435Y013613D03*
X010049Y014117D03*
X009167Y013613D03*
X009104Y013109D03*
X010427Y012290D03*
X010994Y011660D03*
X008600Y011723D03*
X015236Y007072D03*
X011771Y006049D03*
X010354Y004552D03*
X009488Y004080D03*
X009251Y004395D03*
X007913Y004631D03*
X007598Y004631D03*
X007776Y005751D03*
X007489Y006327D03*
X010275Y003450D03*
X014055Y003214D03*
X014763Y003450D03*
X015314Y002426D03*
X014291Y002190D03*
X015393Y001482D03*
X008550Y001393D03*
X006338Y001009D03*
X004842Y001009D03*
X003818Y001954D03*
X019503Y014752D03*
X018713Y015612D03*
X018533Y015862D03*
X017933Y016022D03*
X017933Y015312D03*
X018163Y015072D03*
X019013Y015972D03*
X018743Y017232D03*
X001860Y018086D03*
M02*
