G75*
G70*
%OFA0B0*%
%FSLAX24Y24*%
%IPPOS*%
%LPD*%
%AMOC8*
5,1,8,0,0,1.08239X$1,22.5*
%
%ADD10C,0.0000*%
%ADD11C,0.1300*%
%ADD12C,0.0100*%
%ADD13C,0.0120*%
%ADD14OC8,0.0640*%
%ADD15C,0.0040*%
%ADD16C,0.0044*%
%ADD17C,0.0560*%
%ADD18C,0.0042*%
%ADD19C,0.0042*%
%ADD20C,0.0640*%
%ADD21R,0.0640X0.0640*%
%ADD22C,0.0044*%
%ADD23C,0.0041*%
%ADD24C,0.0043*%
D10*
X000873Y001262D02*
X000875Y001312D01*
X000881Y001362D01*
X000891Y001411D01*
X000905Y001459D01*
X000922Y001506D01*
X000943Y001551D01*
X000968Y001595D01*
X000996Y001636D01*
X001028Y001675D01*
X001062Y001712D01*
X001099Y001746D01*
X001139Y001776D01*
X001181Y001803D01*
X001225Y001827D01*
X001271Y001848D01*
X001318Y001864D01*
X001366Y001877D01*
X001416Y001886D01*
X001465Y001891D01*
X001516Y001892D01*
X001566Y001889D01*
X001615Y001882D01*
X001664Y001871D01*
X001712Y001856D01*
X001758Y001838D01*
X001803Y001816D01*
X001846Y001790D01*
X001887Y001761D01*
X001926Y001729D01*
X001962Y001694D01*
X001994Y001656D01*
X002024Y001616D01*
X002051Y001573D01*
X002074Y001529D01*
X002093Y001483D01*
X002109Y001435D01*
X002121Y001386D01*
X002129Y001337D01*
X002133Y001287D01*
X002133Y001237D01*
X002129Y001187D01*
X002121Y001138D01*
X002109Y001089D01*
X002093Y001041D01*
X002074Y000995D01*
X002051Y000951D01*
X002024Y000908D01*
X001994Y000868D01*
X001962Y000830D01*
X001926Y000795D01*
X001887Y000763D01*
X001846Y000734D01*
X001803Y000708D01*
X001758Y000686D01*
X001712Y000668D01*
X001664Y000653D01*
X001615Y000642D01*
X001566Y000635D01*
X001516Y000632D01*
X001465Y000633D01*
X001416Y000638D01*
X001366Y000647D01*
X001318Y000660D01*
X001271Y000676D01*
X001225Y000697D01*
X001181Y000721D01*
X001139Y000748D01*
X001099Y000778D01*
X001062Y000812D01*
X001028Y000849D01*
X000996Y000888D01*
X000968Y000929D01*
X000943Y000973D01*
X000922Y001018D01*
X000905Y001065D01*
X000891Y001113D01*
X000881Y001162D01*
X000875Y001212D01*
X000873Y001262D01*
X017663Y008992D02*
X017665Y009042D01*
X017671Y009092D01*
X017681Y009141D01*
X017695Y009189D01*
X017712Y009236D01*
X017733Y009281D01*
X017758Y009325D01*
X017786Y009366D01*
X017818Y009405D01*
X017852Y009442D01*
X017889Y009476D01*
X017929Y009506D01*
X017971Y009533D01*
X018015Y009557D01*
X018061Y009578D01*
X018108Y009594D01*
X018156Y009607D01*
X018206Y009616D01*
X018255Y009621D01*
X018306Y009622D01*
X018356Y009619D01*
X018405Y009612D01*
X018454Y009601D01*
X018502Y009586D01*
X018548Y009568D01*
X018593Y009546D01*
X018636Y009520D01*
X018677Y009491D01*
X018716Y009459D01*
X018752Y009424D01*
X018784Y009386D01*
X018814Y009346D01*
X018841Y009303D01*
X018864Y009259D01*
X018883Y009213D01*
X018899Y009165D01*
X018911Y009116D01*
X018919Y009067D01*
X018923Y009017D01*
X018923Y008967D01*
X018919Y008917D01*
X018911Y008868D01*
X018899Y008819D01*
X018883Y008771D01*
X018864Y008725D01*
X018841Y008681D01*
X018814Y008638D01*
X018784Y008598D01*
X018752Y008560D01*
X018716Y008525D01*
X018677Y008493D01*
X018636Y008464D01*
X018593Y008438D01*
X018548Y008416D01*
X018502Y008398D01*
X018454Y008383D01*
X018405Y008372D01*
X018356Y008365D01*
X018306Y008362D01*
X018255Y008363D01*
X018206Y008368D01*
X018156Y008377D01*
X018108Y008390D01*
X018061Y008406D01*
X018015Y008427D01*
X017971Y008451D01*
X017929Y008478D01*
X017889Y008508D01*
X017852Y008542D01*
X017818Y008579D01*
X017786Y008618D01*
X017758Y008659D01*
X017733Y008703D01*
X017712Y008748D01*
X017695Y008795D01*
X017681Y008843D01*
X017671Y008892D01*
X017665Y008942D01*
X017663Y008992D01*
X000573Y012032D02*
X000575Y012082D01*
X000581Y012132D01*
X000591Y012181D01*
X000605Y012229D01*
X000622Y012276D01*
X000643Y012321D01*
X000668Y012365D01*
X000696Y012406D01*
X000728Y012445D01*
X000762Y012482D01*
X000799Y012516D01*
X000839Y012546D01*
X000881Y012573D01*
X000925Y012597D01*
X000971Y012618D01*
X001018Y012634D01*
X001066Y012647D01*
X001116Y012656D01*
X001165Y012661D01*
X001216Y012662D01*
X001266Y012659D01*
X001315Y012652D01*
X001364Y012641D01*
X001412Y012626D01*
X001458Y012608D01*
X001503Y012586D01*
X001546Y012560D01*
X001587Y012531D01*
X001626Y012499D01*
X001662Y012464D01*
X001694Y012426D01*
X001724Y012386D01*
X001751Y012343D01*
X001774Y012299D01*
X001793Y012253D01*
X001809Y012205D01*
X001821Y012156D01*
X001829Y012107D01*
X001833Y012057D01*
X001833Y012007D01*
X001829Y011957D01*
X001821Y011908D01*
X001809Y011859D01*
X001793Y011811D01*
X001774Y011765D01*
X001751Y011721D01*
X001724Y011678D01*
X001694Y011638D01*
X001662Y011600D01*
X001626Y011565D01*
X001587Y011533D01*
X001546Y011504D01*
X001503Y011478D01*
X001458Y011456D01*
X001412Y011438D01*
X001364Y011423D01*
X001315Y011412D01*
X001266Y011405D01*
X001216Y011402D01*
X001165Y011403D01*
X001116Y011408D01*
X001066Y011417D01*
X001018Y011430D01*
X000971Y011446D01*
X000925Y011467D01*
X000881Y011491D01*
X000839Y011518D01*
X000799Y011548D01*
X000762Y011582D01*
X000728Y011619D01*
X000696Y011658D01*
X000668Y011699D01*
X000643Y011743D01*
X000622Y011788D01*
X000605Y011835D01*
X000591Y011883D01*
X000581Y011932D01*
X000575Y011982D01*
X000573Y012032D01*
X015493Y018952D02*
X015495Y019002D01*
X015501Y019052D01*
X015511Y019101D01*
X015525Y019149D01*
X015542Y019196D01*
X015563Y019241D01*
X015588Y019285D01*
X015616Y019326D01*
X015648Y019365D01*
X015682Y019402D01*
X015719Y019436D01*
X015759Y019466D01*
X015801Y019493D01*
X015845Y019517D01*
X015891Y019538D01*
X015938Y019554D01*
X015986Y019567D01*
X016036Y019576D01*
X016085Y019581D01*
X016136Y019582D01*
X016186Y019579D01*
X016235Y019572D01*
X016284Y019561D01*
X016332Y019546D01*
X016378Y019528D01*
X016423Y019506D01*
X016466Y019480D01*
X016507Y019451D01*
X016546Y019419D01*
X016582Y019384D01*
X016614Y019346D01*
X016644Y019306D01*
X016671Y019263D01*
X016694Y019219D01*
X016713Y019173D01*
X016729Y019125D01*
X016741Y019076D01*
X016749Y019027D01*
X016753Y018977D01*
X016753Y018927D01*
X016749Y018877D01*
X016741Y018828D01*
X016729Y018779D01*
X016713Y018731D01*
X016694Y018685D01*
X016671Y018641D01*
X016644Y018598D01*
X016614Y018558D01*
X016582Y018520D01*
X016546Y018485D01*
X016507Y018453D01*
X016466Y018424D01*
X016423Y018398D01*
X016378Y018376D01*
X016332Y018358D01*
X016284Y018343D01*
X016235Y018332D01*
X016186Y018325D01*
X016136Y018322D01*
X016085Y018323D01*
X016036Y018328D01*
X015986Y018337D01*
X015938Y018350D01*
X015891Y018366D01*
X015845Y018387D01*
X015801Y018411D01*
X015759Y018438D01*
X015719Y018468D01*
X015682Y018502D01*
X015648Y018539D01*
X015616Y018578D01*
X015588Y018619D01*
X015563Y018663D01*
X015542Y018708D01*
X015525Y018755D01*
X015511Y018803D01*
X015501Y018852D01*
X015495Y018902D01*
X015493Y018952D01*
D11*
X016123Y018952D03*
X001203Y012032D03*
X018293Y008992D03*
X001503Y001262D03*
D12*
X000333Y000222D02*
X000333Y019822D01*
X017533Y019822D01*
X019933Y019822D01*
X019933Y011122D01*
X019933Y000222D01*
X000333Y000222D01*
D13*
X017533Y011122D02*
X017533Y019822D01*
X017533Y011122D02*
X019933Y011122D01*
D14*
X019233Y011922D03*
X019233Y012922D03*
X018233Y012922D03*
X016371Y013182D03*
X016371Y014182D03*
X016373Y016182D03*
X015363Y016182D03*
X014363Y016182D03*
X013363Y016182D03*
X012363Y016182D03*
X011363Y016182D03*
X010363Y016182D03*
X009363Y016182D03*
X008363Y016182D03*
X007363Y016182D03*
X006363Y016182D03*
X005363Y016182D03*
X004363Y016182D03*
X003363Y016182D03*
X003363Y017182D03*
X004363Y017182D03*
X005363Y017182D03*
X006363Y017182D03*
X007363Y017182D03*
X008363Y017182D03*
X009363Y017182D03*
X010363Y017182D03*
X011363Y017182D03*
X012363Y017182D03*
X013363Y017182D03*
X014363Y017182D03*
X015363Y017182D03*
X016373Y017182D03*
X014373Y018182D03*
X013373Y018182D03*
X012373Y018182D03*
X012370Y019178D03*
X013370Y019178D03*
X014370Y019178D03*
X018232Y018916D03*
X019232Y018916D03*
X019232Y017916D03*
X009370Y019187D03*
X008370Y019187D03*
X007370Y019187D03*
X004369Y019173D03*
X003369Y019173D03*
X002369Y019173D03*
X003369Y018173D03*
X004369Y018173D03*
X014483Y009652D03*
X015583Y009652D03*
X015583Y008652D03*
X014483Y008652D03*
X017883Y006995D03*
X018883Y006995D03*
X018883Y005895D03*
X017883Y005895D03*
X017883Y004795D03*
X018883Y004795D03*
X018883Y003698D03*
X017883Y003698D03*
X017878Y001852D03*
X016878Y001852D03*
X016878Y000852D03*
X017878Y000852D03*
X018878Y000852D03*
X018878Y001852D03*
X013283Y001852D03*
X012183Y001852D03*
X011083Y001852D03*
X009983Y001852D03*
X009983Y000852D03*
X011083Y000852D03*
X012183Y000852D03*
X013283Y000852D03*
X001983Y002582D03*
X000983Y002582D03*
X000983Y004185D03*
X001983Y004185D03*
X001983Y005288D03*
X000983Y005288D03*
X000983Y006785D03*
X001983Y006785D03*
X001983Y007889D03*
X000983Y007889D03*
X000982Y009582D03*
X001982Y009582D03*
D15*
X004098Y008752D02*
X004728Y008752D01*
X004728Y008042D01*
X004098Y008042D01*
X004098Y008752D01*
X004098Y008081D02*
X004728Y008081D01*
X004728Y008120D02*
X004098Y008120D01*
X004098Y008159D02*
X004728Y008159D01*
X004728Y008198D02*
X004098Y008198D01*
X004098Y008237D02*
X004728Y008237D01*
X004728Y008276D02*
X004098Y008276D01*
X004098Y008315D02*
X004728Y008315D01*
X004728Y008354D02*
X004098Y008354D01*
X004098Y008393D02*
X004728Y008393D01*
X004728Y008432D02*
X004098Y008432D01*
X004098Y008471D02*
X004728Y008471D01*
X004728Y008510D02*
X004098Y008510D01*
X004098Y008549D02*
X004728Y008549D01*
X004728Y008588D02*
X004098Y008588D01*
X004098Y008627D02*
X004728Y008627D01*
X004728Y008666D02*
X004098Y008666D01*
X004098Y008705D02*
X004728Y008705D01*
X004728Y008744D02*
X004098Y008744D01*
X005217Y008752D02*
X005847Y008752D01*
X005847Y008042D01*
X005217Y008042D01*
X005217Y008752D01*
X005217Y008081D02*
X005847Y008081D01*
X005847Y008120D02*
X005217Y008120D01*
X005217Y008159D02*
X005847Y008159D01*
X005847Y008198D02*
X005217Y008198D01*
X005217Y008237D02*
X005847Y008237D01*
X005847Y008276D02*
X005217Y008276D01*
X005217Y008315D02*
X005847Y008315D01*
X005847Y008354D02*
X005217Y008354D01*
X005217Y008393D02*
X005847Y008393D01*
X005847Y008432D02*
X005217Y008432D01*
X005217Y008471D02*
X005847Y008471D01*
X005847Y008510D02*
X005217Y008510D01*
X005217Y008549D02*
X005847Y008549D01*
X005847Y008588D02*
X005217Y008588D01*
X005217Y008627D02*
X005847Y008627D01*
X005847Y008666D02*
X005217Y008666D01*
X005217Y008705D02*
X005847Y008705D01*
X005847Y008744D02*
X005217Y008744D01*
X006058Y012077D02*
X006688Y012077D01*
X006688Y011367D01*
X006058Y011367D01*
X006058Y012077D01*
X006058Y011406D02*
X006688Y011406D01*
X006688Y011445D02*
X006058Y011445D01*
X006058Y011484D02*
X006688Y011484D01*
X006688Y011523D02*
X006058Y011523D01*
X006058Y011562D02*
X006688Y011562D01*
X006688Y011601D02*
X006058Y011601D01*
X006058Y011640D02*
X006688Y011640D01*
X006688Y011679D02*
X006058Y011679D01*
X006058Y011718D02*
X006688Y011718D01*
X006688Y011757D02*
X006058Y011757D01*
X006058Y011796D02*
X006688Y011796D01*
X006688Y011835D02*
X006058Y011835D01*
X006058Y011874D02*
X006688Y011874D01*
X006688Y011913D02*
X006058Y011913D01*
X006058Y011952D02*
X006688Y011952D01*
X006688Y011991D02*
X006058Y011991D01*
X006058Y012030D02*
X006688Y012030D01*
X006688Y012069D02*
X006058Y012069D01*
X007177Y012077D02*
X007807Y012077D01*
X007807Y011367D01*
X007177Y011367D01*
X007177Y012077D01*
X007177Y011406D02*
X007807Y011406D01*
X007807Y011445D02*
X007177Y011445D01*
X007177Y011484D02*
X007807Y011484D01*
X007807Y011523D02*
X007177Y011523D01*
X007177Y011562D02*
X007807Y011562D01*
X007807Y011601D02*
X007177Y011601D01*
X007177Y011640D02*
X007807Y011640D01*
X007807Y011679D02*
X007177Y011679D01*
X007177Y011718D02*
X007807Y011718D01*
X007807Y011757D02*
X007177Y011757D01*
X007177Y011796D02*
X007807Y011796D01*
X007807Y011835D02*
X007177Y011835D01*
X007177Y011874D02*
X007807Y011874D01*
X007807Y011913D02*
X007177Y011913D01*
X007177Y011952D02*
X007807Y011952D01*
X007807Y011991D02*
X007177Y011991D01*
X007177Y012030D02*
X007807Y012030D01*
X007807Y012069D02*
X007177Y012069D01*
X010158Y011367D02*
X010788Y011367D01*
X010158Y011367D02*
X010158Y012077D01*
X010788Y012077D01*
X010788Y011367D01*
X010788Y011406D02*
X010158Y011406D01*
X010158Y011445D02*
X010788Y011445D01*
X010788Y011484D02*
X010158Y011484D01*
X010158Y011523D02*
X010788Y011523D01*
X010788Y011562D02*
X010158Y011562D01*
X010158Y011601D02*
X010788Y011601D01*
X010788Y011640D02*
X010158Y011640D01*
X010158Y011679D02*
X010788Y011679D01*
X010788Y011718D02*
X010158Y011718D01*
X010158Y011757D02*
X010788Y011757D01*
X010788Y011796D02*
X010158Y011796D01*
X010158Y011835D02*
X010788Y011835D01*
X010788Y011874D02*
X010158Y011874D01*
X010158Y011913D02*
X010788Y011913D01*
X010788Y011952D02*
X010158Y011952D01*
X010158Y011991D02*
X010788Y011991D01*
X010788Y012030D02*
X010158Y012030D01*
X010158Y012069D02*
X010788Y012069D01*
X011277Y011367D02*
X011907Y011367D01*
X011277Y011367D02*
X011277Y012077D01*
X011907Y012077D01*
X011907Y011367D01*
X011907Y011406D02*
X011277Y011406D01*
X011277Y011445D02*
X011907Y011445D01*
X011907Y011484D02*
X011277Y011484D01*
X011277Y011523D02*
X011907Y011523D01*
X011907Y011562D02*
X011277Y011562D01*
X011277Y011601D02*
X011907Y011601D01*
X011907Y011640D02*
X011277Y011640D01*
X011277Y011679D02*
X011907Y011679D01*
X011907Y011718D02*
X011277Y011718D01*
X011277Y011757D02*
X011907Y011757D01*
X011907Y011796D02*
X011277Y011796D01*
X011277Y011835D02*
X011907Y011835D01*
X011907Y011874D02*
X011277Y011874D01*
X011277Y011913D02*
X011907Y011913D01*
X011907Y011952D02*
X011277Y011952D01*
X011277Y011991D02*
X011907Y011991D01*
X011907Y012030D02*
X011277Y012030D01*
X011277Y012069D02*
X011907Y012069D01*
X011728Y008847D02*
X011098Y008847D01*
X011728Y008847D02*
X011728Y008137D01*
X011098Y008137D01*
X011098Y008847D01*
X011098Y008176D02*
X011728Y008176D01*
X011728Y008215D02*
X011098Y008215D01*
X011098Y008254D02*
X011728Y008254D01*
X011728Y008293D02*
X011098Y008293D01*
X011098Y008332D02*
X011728Y008332D01*
X011728Y008371D02*
X011098Y008371D01*
X011098Y008410D02*
X011728Y008410D01*
X011728Y008449D02*
X011098Y008449D01*
X011098Y008488D02*
X011728Y008488D01*
X011728Y008527D02*
X011098Y008527D01*
X011098Y008566D02*
X011728Y008566D01*
X011728Y008605D02*
X011098Y008605D01*
X011098Y008644D02*
X011728Y008644D01*
X011728Y008683D02*
X011098Y008683D01*
X011098Y008722D02*
X011728Y008722D01*
X011728Y008761D02*
X011098Y008761D01*
X011098Y008800D02*
X011728Y008800D01*
X011728Y008839D02*
X011098Y008839D01*
X012217Y008847D02*
X012847Y008847D01*
X012847Y008137D01*
X012217Y008137D01*
X012217Y008847D01*
X012217Y008176D02*
X012847Y008176D01*
X012847Y008215D02*
X012217Y008215D01*
X012217Y008254D02*
X012847Y008254D01*
X012847Y008293D02*
X012217Y008293D01*
X012217Y008332D02*
X012847Y008332D01*
X012847Y008371D02*
X012217Y008371D01*
X012217Y008410D02*
X012847Y008410D01*
X012847Y008449D02*
X012217Y008449D01*
X012217Y008488D02*
X012847Y008488D01*
X012847Y008527D02*
X012217Y008527D01*
X012217Y008566D02*
X012847Y008566D01*
X012847Y008605D02*
X012217Y008605D01*
X012217Y008644D02*
X012847Y008644D01*
X012847Y008683D02*
X012217Y008683D01*
X012217Y008722D02*
X012847Y008722D01*
X012847Y008761D02*
X012217Y008761D01*
X012217Y008800D02*
X012847Y008800D01*
X012847Y008839D02*
X012217Y008839D01*
X012217Y007852D02*
X012847Y007852D01*
X012847Y007142D01*
X012217Y007142D01*
X012217Y007852D01*
X012217Y007181D02*
X012847Y007181D01*
X012847Y007220D02*
X012217Y007220D01*
X012217Y007259D02*
X012847Y007259D01*
X012847Y007298D02*
X012217Y007298D01*
X012217Y007337D02*
X012847Y007337D01*
X012847Y007376D02*
X012217Y007376D01*
X012217Y007415D02*
X012847Y007415D01*
X012847Y007454D02*
X012217Y007454D01*
X012217Y007493D02*
X012847Y007493D01*
X012847Y007532D02*
X012217Y007532D01*
X012217Y007571D02*
X012847Y007571D01*
X012847Y007610D02*
X012217Y007610D01*
X012217Y007649D02*
X012847Y007649D01*
X012847Y007688D02*
X012217Y007688D01*
X012217Y007727D02*
X012847Y007727D01*
X012847Y007766D02*
X012217Y007766D01*
X012217Y007805D02*
X012847Y007805D01*
X012847Y007844D02*
X012217Y007844D01*
X011728Y007852D02*
X011098Y007852D01*
X011728Y007852D02*
X011728Y007142D01*
X011098Y007142D01*
X011098Y007852D01*
X011098Y007181D02*
X011728Y007181D01*
X011728Y007220D02*
X011098Y007220D01*
X011098Y007259D02*
X011728Y007259D01*
X011728Y007298D02*
X011098Y007298D01*
X011098Y007337D02*
X011728Y007337D01*
X011728Y007376D02*
X011098Y007376D01*
X011098Y007415D02*
X011728Y007415D01*
X011728Y007454D02*
X011098Y007454D01*
X011098Y007493D02*
X011728Y007493D01*
X011728Y007532D02*
X011098Y007532D01*
X011098Y007571D02*
X011728Y007571D01*
X011728Y007610D02*
X011098Y007610D01*
X011098Y007649D02*
X011728Y007649D01*
X011728Y007688D02*
X011098Y007688D01*
X011098Y007727D02*
X011728Y007727D01*
X011728Y007766D02*
X011098Y007766D01*
X011098Y007805D02*
X011728Y007805D01*
X011728Y007844D02*
X011098Y007844D01*
X010962Y004362D02*
X011592Y004362D01*
X011592Y003652D01*
X010962Y003652D01*
X010962Y004362D01*
X010962Y003691D02*
X011592Y003691D01*
X011592Y003730D02*
X010962Y003730D01*
X010962Y003769D02*
X011592Y003769D01*
X011592Y003808D02*
X010962Y003808D01*
X010962Y003847D02*
X011592Y003847D01*
X011592Y003886D02*
X010962Y003886D01*
X010962Y003925D02*
X011592Y003925D01*
X011592Y003964D02*
X010962Y003964D01*
X010962Y004003D02*
X011592Y004003D01*
X011592Y004042D02*
X010962Y004042D01*
X010962Y004081D02*
X011592Y004081D01*
X011592Y004120D02*
X010962Y004120D01*
X010962Y004159D02*
X011592Y004159D01*
X011592Y004198D02*
X010962Y004198D01*
X010962Y004237D02*
X011592Y004237D01*
X011592Y004276D02*
X010962Y004276D01*
X010962Y004315D02*
X011592Y004315D01*
X011592Y004354D02*
X010962Y004354D01*
X010473Y004362D02*
X009843Y004362D01*
X010473Y004362D02*
X010473Y003652D01*
X009843Y003652D01*
X009843Y004362D01*
X009843Y003691D02*
X010473Y003691D01*
X010473Y003730D02*
X009843Y003730D01*
X009843Y003769D02*
X010473Y003769D01*
X010473Y003808D02*
X009843Y003808D01*
X009843Y003847D02*
X010473Y003847D01*
X010473Y003886D02*
X009843Y003886D01*
X009843Y003925D02*
X010473Y003925D01*
X010473Y003964D02*
X009843Y003964D01*
X009843Y004003D02*
X010473Y004003D01*
X010473Y004042D02*
X009843Y004042D01*
X009843Y004081D02*
X010473Y004081D01*
X010473Y004120D02*
X009843Y004120D01*
X009843Y004159D02*
X010473Y004159D01*
X010473Y004198D02*
X009843Y004198D01*
X009843Y004237D02*
X010473Y004237D01*
X010473Y004276D02*
X009843Y004276D01*
X009843Y004315D02*
X010473Y004315D01*
X010473Y004354D02*
X009843Y004354D01*
X008287Y002237D02*
X007657Y002237D01*
X008287Y002237D02*
X008287Y001527D01*
X007657Y001527D01*
X007657Y002237D01*
X007657Y001566D02*
X008287Y001566D01*
X008287Y001605D02*
X007657Y001605D01*
X007657Y001644D02*
X008287Y001644D01*
X008287Y001683D02*
X007657Y001683D01*
X007657Y001722D02*
X008287Y001722D01*
X008287Y001761D02*
X007657Y001761D01*
X007657Y001800D02*
X008287Y001800D01*
X008287Y001839D02*
X007657Y001839D01*
X007657Y001878D02*
X008287Y001878D01*
X008287Y001917D02*
X007657Y001917D01*
X007657Y001956D02*
X008287Y001956D01*
X008287Y001995D02*
X007657Y001995D01*
X007657Y002034D02*
X008287Y002034D01*
X008287Y002073D02*
X007657Y002073D01*
X007657Y002112D02*
X008287Y002112D01*
X008287Y002151D02*
X007657Y002151D01*
X007657Y002190D02*
X008287Y002190D01*
X008287Y002229D02*
X007657Y002229D01*
X007168Y002237D02*
X006538Y002237D01*
X007168Y002237D02*
X007168Y001527D01*
X006538Y001527D01*
X006538Y002237D01*
X006538Y001566D02*
X007168Y001566D01*
X007168Y001605D02*
X006538Y001605D01*
X006538Y001644D02*
X007168Y001644D01*
X007168Y001683D02*
X006538Y001683D01*
X006538Y001722D02*
X007168Y001722D01*
X007168Y001761D02*
X006538Y001761D01*
X006538Y001800D02*
X007168Y001800D01*
X007168Y001839D02*
X006538Y001839D01*
X006538Y001878D02*
X007168Y001878D01*
X007168Y001917D02*
X006538Y001917D01*
X006538Y001956D02*
X007168Y001956D01*
X007168Y001995D02*
X006538Y001995D01*
X006538Y002034D02*
X007168Y002034D01*
X007168Y002073D02*
X006538Y002073D01*
X006538Y002112D02*
X007168Y002112D01*
X007168Y002151D02*
X006538Y002151D01*
X006538Y002190D02*
X007168Y002190D01*
X007168Y002229D02*
X006538Y002229D01*
X006538Y001332D02*
X007168Y001332D01*
X007168Y000622D01*
X006538Y000622D01*
X006538Y001332D01*
X006538Y000661D02*
X007168Y000661D01*
X007168Y000700D02*
X006538Y000700D01*
X006538Y000739D02*
X007168Y000739D01*
X007168Y000778D02*
X006538Y000778D01*
X006538Y000817D02*
X007168Y000817D01*
X007168Y000856D02*
X006538Y000856D01*
X006538Y000895D02*
X007168Y000895D01*
X007168Y000934D02*
X006538Y000934D01*
X006538Y000973D02*
X007168Y000973D01*
X007168Y001012D02*
X006538Y001012D01*
X006538Y001051D02*
X007168Y001051D01*
X007168Y001090D02*
X006538Y001090D01*
X006538Y001129D02*
X007168Y001129D01*
X007168Y001168D02*
X006538Y001168D01*
X006538Y001207D02*
X007168Y001207D01*
X007168Y001246D02*
X006538Y001246D01*
X006538Y001285D02*
X007168Y001285D01*
X007168Y001324D02*
X006538Y001324D01*
X007657Y001332D02*
X008287Y001332D01*
X008287Y000622D01*
X007657Y000622D01*
X007657Y001332D01*
X007657Y000661D02*
X008287Y000661D01*
X008287Y000700D02*
X007657Y000700D01*
X007657Y000739D02*
X008287Y000739D01*
X008287Y000778D02*
X007657Y000778D01*
X007657Y000817D02*
X008287Y000817D01*
X008287Y000856D02*
X007657Y000856D01*
X007657Y000895D02*
X008287Y000895D01*
X008287Y000934D02*
X007657Y000934D01*
X007657Y000973D02*
X008287Y000973D01*
X008287Y001012D02*
X007657Y001012D01*
X007657Y001051D02*
X008287Y001051D01*
X008287Y001090D02*
X007657Y001090D01*
X007657Y001129D02*
X008287Y001129D01*
X008287Y001168D02*
X007657Y001168D01*
X007657Y001207D02*
X008287Y001207D01*
X008287Y001246D02*
X007657Y001246D01*
X007657Y001285D02*
X008287Y001285D01*
X008287Y001324D02*
X007657Y001324D01*
D16*
X005394Y001355D02*
X005394Y000769D01*
X005394Y001355D02*
X005980Y001355D01*
X005980Y000769D01*
X005394Y000769D01*
X005394Y000812D02*
X005980Y000812D01*
X005980Y000855D02*
X005394Y000855D01*
X005394Y000898D02*
X005980Y000898D01*
X005980Y000941D02*
X005394Y000941D01*
X005394Y000984D02*
X005980Y000984D01*
X005980Y001027D02*
X005394Y001027D01*
X005394Y001070D02*
X005980Y001070D01*
X005980Y001113D02*
X005394Y001113D01*
X005394Y001156D02*
X005980Y001156D01*
X005980Y001199D02*
X005394Y001199D01*
X005394Y001242D02*
X005980Y001242D01*
X005980Y001285D02*
X005394Y001285D01*
X005394Y001328D02*
X005980Y001328D01*
X005389Y001669D02*
X005389Y002255D01*
X005975Y002255D01*
X005975Y001669D01*
X005389Y001669D01*
X005389Y001712D02*
X005975Y001712D01*
X005975Y001755D02*
X005389Y001755D01*
X005389Y001798D02*
X005975Y001798D01*
X005975Y001841D02*
X005389Y001841D01*
X005389Y001884D02*
X005975Y001884D01*
X005975Y001927D02*
X005389Y001927D01*
X005389Y001970D02*
X005975Y001970D01*
X005975Y002013D02*
X005389Y002013D01*
X005389Y002056D02*
X005975Y002056D01*
X005975Y002099D02*
X005389Y002099D01*
X005389Y002142D02*
X005975Y002142D01*
X005975Y002185D02*
X005389Y002185D01*
X005389Y002228D02*
X005975Y002228D01*
X004011Y002255D02*
X004011Y001669D01*
X004011Y002255D02*
X004597Y002255D01*
X004597Y001669D01*
X004011Y001669D01*
X004011Y001712D02*
X004597Y001712D01*
X004597Y001755D02*
X004011Y001755D01*
X004011Y001798D02*
X004597Y001798D01*
X004597Y001841D02*
X004011Y001841D01*
X004011Y001884D02*
X004597Y001884D01*
X004597Y001927D02*
X004011Y001927D01*
X004011Y001970D02*
X004597Y001970D01*
X004597Y002013D02*
X004011Y002013D01*
X004011Y002056D02*
X004597Y002056D01*
X004597Y002099D02*
X004011Y002099D01*
X004011Y002142D02*
X004597Y002142D01*
X004597Y002185D02*
X004011Y002185D01*
X004011Y002228D02*
X004597Y002228D01*
X004016Y001355D02*
X004016Y000769D01*
X004016Y001355D02*
X004602Y001355D01*
X004602Y000769D01*
X004016Y000769D01*
X004016Y000812D02*
X004602Y000812D01*
X004602Y000855D02*
X004016Y000855D01*
X004016Y000898D02*
X004602Y000898D01*
X004602Y000941D02*
X004016Y000941D01*
X004016Y000984D02*
X004602Y000984D01*
X004602Y001027D02*
X004016Y001027D01*
X004016Y001070D02*
X004602Y001070D01*
X004602Y001113D02*
X004016Y001113D01*
X004016Y001156D02*
X004602Y001156D01*
X004602Y001199D02*
X004016Y001199D01*
X004016Y001242D02*
X004602Y001242D01*
X004602Y001285D02*
X004016Y001285D01*
X004016Y001328D02*
X004602Y001328D01*
X003977Y003993D02*
X003977Y004579D01*
X004759Y004579D01*
X004759Y003993D01*
X003977Y003993D01*
X003977Y004036D02*
X004759Y004036D01*
X004759Y004079D02*
X003977Y004079D01*
X003977Y004122D02*
X004759Y004122D01*
X004759Y004165D02*
X003977Y004165D01*
X003977Y004208D02*
X004759Y004208D01*
X004759Y004251D02*
X003977Y004251D01*
X003977Y004294D02*
X004759Y004294D01*
X004759Y004337D02*
X003977Y004337D01*
X003977Y004380D02*
X004759Y004380D01*
X004759Y004423D02*
X003977Y004423D01*
X003977Y004466D02*
X004759Y004466D01*
X004759Y004509D02*
X003977Y004509D01*
X003977Y004552D02*
X004759Y004552D01*
X005276Y004572D02*
X005862Y004572D01*
X005276Y004572D02*
X005276Y005354D01*
X005862Y005354D01*
X005862Y004572D01*
X005862Y004615D02*
X005276Y004615D01*
X005276Y004658D02*
X005862Y004658D01*
X005862Y004701D02*
X005276Y004701D01*
X005276Y004744D02*
X005862Y004744D01*
X005862Y004787D02*
X005276Y004787D01*
X005276Y004830D02*
X005862Y004830D01*
X005862Y004873D02*
X005276Y004873D01*
X005276Y004916D02*
X005862Y004916D01*
X005862Y004959D02*
X005276Y004959D01*
X005276Y005002D02*
X005862Y005002D01*
X005862Y005045D02*
X005276Y005045D01*
X005276Y005088D02*
X005862Y005088D01*
X005862Y005131D02*
X005276Y005131D01*
X005276Y005174D02*
X005862Y005174D01*
X005862Y005217D02*
X005276Y005217D01*
X005276Y005260D02*
X005862Y005260D01*
X005862Y005303D02*
X005276Y005303D01*
X005276Y005346D02*
X005862Y005346D01*
X006457Y004572D02*
X007043Y004572D01*
X006457Y004572D02*
X006457Y005354D01*
X007043Y005354D01*
X007043Y004572D01*
X007043Y004615D02*
X006457Y004615D01*
X006457Y004658D02*
X007043Y004658D01*
X007043Y004701D02*
X006457Y004701D01*
X006457Y004744D02*
X007043Y004744D01*
X007043Y004787D02*
X006457Y004787D01*
X006457Y004830D02*
X007043Y004830D01*
X007043Y004873D02*
X006457Y004873D01*
X006457Y004916D02*
X007043Y004916D01*
X007043Y004959D02*
X006457Y004959D01*
X006457Y005002D02*
X007043Y005002D01*
X007043Y005045D02*
X006457Y005045D01*
X006457Y005088D02*
X007043Y005088D01*
X007043Y005131D02*
X006457Y005131D01*
X006457Y005174D02*
X007043Y005174D01*
X007043Y005217D02*
X006457Y005217D01*
X006457Y005260D02*
X007043Y005260D01*
X007043Y005303D02*
X006457Y005303D01*
X006457Y005346D02*
X007043Y005346D01*
X006164Y005943D02*
X006164Y006529D01*
X006164Y005943D02*
X005382Y005943D01*
X005382Y006529D01*
X006164Y006529D01*
X006164Y005986D02*
X005382Y005986D01*
X005382Y006029D02*
X006164Y006029D01*
X006164Y006072D02*
X005382Y006072D01*
X005382Y006115D02*
X006164Y006115D01*
X006164Y006158D02*
X005382Y006158D01*
X005382Y006201D02*
X006164Y006201D01*
X006164Y006244D02*
X005382Y006244D01*
X005382Y006287D02*
X006164Y006287D01*
X006164Y006330D02*
X005382Y006330D01*
X005382Y006373D02*
X006164Y006373D01*
X006164Y006416D02*
X005382Y006416D01*
X005382Y006459D02*
X006164Y006459D01*
X006164Y006502D02*
X005382Y006502D01*
X004764Y006529D02*
X004764Y005943D01*
X003982Y005943D01*
X003982Y006529D01*
X004764Y006529D01*
X004764Y005986D02*
X003982Y005986D01*
X003982Y006029D02*
X004764Y006029D01*
X004764Y006072D02*
X003982Y006072D01*
X003982Y006115D02*
X004764Y006115D01*
X004764Y006158D02*
X003982Y006158D01*
X003982Y006201D02*
X004764Y006201D01*
X004764Y006244D02*
X003982Y006244D01*
X003982Y006287D02*
X004764Y006287D01*
X004764Y006330D02*
X003982Y006330D01*
X003982Y006373D02*
X004764Y006373D01*
X004764Y006416D02*
X003982Y006416D01*
X003982Y006459D02*
X004764Y006459D01*
X004764Y006502D02*
X003982Y006502D01*
X004764Y007124D02*
X004764Y007710D01*
X004764Y007124D02*
X003982Y007124D01*
X003982Y007710D01*
X004764Y007710D01*
X004764Y007167D02*
X003982Y007167D01*
X003982Y007210D02*
X004764Y007210D01*
X004764Y007253D02*
X003982Y007253D01*
X003982Y007296D02*
X004764Y007296D01*
X004764Y007339D02*
X003982Y007339D01*
X003982Y007382D02*
X004764Y007382D01*
X004764Y007425D02*
X003982Y007425D01*
X003982Y007468D02*
X004764Y007468D01*
X004764Y007511D02*
X003982Y007511D01*
X003982Y007554D02*
X004764Y007554D01*
X004764Y007597D02*
X003982Y007597D01*
X003982Y007640D02*
X004764Y007640D01*
X004764Y007683D02*
X003982Y007683D01*
X006164Y007710D02*
X006164Y007124D01*
X005382Y007124D01*
X005382Y007710D01*
X006164Y007710D01*
X006164Y007167D02*
X005382Y007167D01*
X005382Y007210D02*
X006164Y007210D01*
X006164Y007253D02*
X005382Y007253D01*
X005382Y007296D02*
X006164Y007296D01*
X006164Y007339D02*
X005382Y007339D01*
X005382Y007382D02*
X006164Y007382D01*
X006164Y007425D02*
X005382Y007425D01*
X005382Y007468D02*
X006164Y007468D01*
X006164Y007511D02*
X005382Y007511D01*
X005382Y007554D02*
X006164Y007554D01*
X006164Y007597D02*
X005382Y007597D01*
X005382Y007640D02*
X006164Y007640D01*
X006164Y007683D02*
X005382Y007683D01*
X005461Y009715D02*
X004953Y009715D01*
X005461Y009715D02*
X005461Y009129D01*
X004953Y009129D01*
X004953Y009715D01*
X004953Y009172D02*
X005461Y009172D01*
X005461Y009215D02*
X004953Y009215D01*
X004953Y009258D02*
X005461Y009258D01*
X005461Y009301D02*
X004953Y009301D01*
X004953Y009344D02*
X005461Y009344D01*
X005461Y009387D02*
X004953Y009387D01*
X004953Y009430D02*
X005461Y009430D01*
X005461Y009473D02*
X004953Y009473D01*
X004953Y009516D02*
X005461Y009516D01*
X005461Y009559D02*
X004953Y009559D01*
X004953Y009602D02*
X005461Y009602D01*
X005461Y009645D02*
X004953Y009645D01*
X004953Y009688D02*
X005461Y009688D01*
X006105Y009129D02*
X006613Y009129D01*
X006105Y009129D02*
X006105Y009715D01*
X006613Y009715D01*
X006613Y009129D01*
X006613Y009172D02*
X006105Y009172D01*
X006105Y009215D02*
X006613Y009215D01*
X006613Y009258D02*
X006105Y009258D01*
X006105Y009301D02*
X006613Y009301D01*
X006613Y009344D02*
X006105Y009344D01*
X006105Y009387D02*
X006613Y009387D01*
X006613Y009430D02*
X006105Y009430D01*
X006105Y009473D02*
X006613Y009473D01*
X006613Y009516D02*
X006105Y009516D01*
X006105Y009559D02*
X006613Y009559D01*
X006613Y009602D02*
X006105Y009602D01*
X006105Y009645D02*
X006613Y009645D01*
X006613Y009688D02*
X006105Y009688D01*
X006853Y009129D02*
X007361Y009129D01*
X006853Y009129D02*
X006853Y009715D01*
X007361Y009715D01*
X007361Y009129D01*
X007361Y009172D02*
X006853Y009172D01*
X006853Y009215D02*
X007361Y009215D01*
X007361Y009258D02*
X006853Y009258D01*
X006853Y009301D02*
X007361Y009301D01*
X007361Y009344D02*
X006853Y009344D01*
X006853Y009387D02*
X007361Y009387D01*
X007361Y009430D02*
X006853Y009430D01*
X006853Y009473D02*
X007361Y009473D01*
X007361Y009516D02*
X006853Y009516D01*
X006853Y009559D02*
X007361Y009559D01*
X007361Y009602D02*
X006853Y009602D01*
X006853Y009645D02*
X007361Y009645D01*
X007361Y009688D02*
X006853Y009688D01*
X004713Y009715D02*
X004205Y009715D01*
X004713Y009715D02*
X004713Y009129D01*
X004205Y009129D01*
X004205Y009715D01*
X004205Y009172D02*
X004713Y009172D01*
X004713Y009215D02*
X004205Y009215D01*
X004205Y009258D02*
X004713Y009258D01*
X004713Y009301D02*
X004205Y009301D01*
X004205Y009344D02*
X004713Y009344D01*
X004713Y009387D02*
X004205Y009387D01*
X004205Y009430D02*
X004713Y009430D01*
X004713Y009473D02*
X004205Y009473D01*
X004205Y009516D02*
X004713Y009516D01*
X004713Y009559D02*
X004205Y009559D01*
X004205Y009602D02*
X004713Y009602D01*
X004713Y009645D02*
X004205Y009645D01*
X004205Y009688D02*
X004713Y009688D01*
X009705Y009715D02*
X010213Y009715D01*
X010213Y009129D01*
X009705Y009129D01*
X009705Y009715D01*
X009705Y009172D02*
X010213Y009172D01*
X010213Y009215D02*
X009705Y009215D01*
X009705Y009258D02*
X010213Y009258D01*
X010213Y009301D02*
X009705Y009301D01*
X009705Y009344D02*
X010213Y009344D01*
X010213Y009387D02*
X009705Y009387D01*
X009705Y009430D02*
X010213Y009430D01*
X010213Y009473D02*
X009705Y009473D01*
X009705Y009516D02*
X010213Y009516D01*
X010213Y009559D02*
X009705Y009559D01*
X009705Y009602D02*
X010213Y009602D01*
X010213Y009645D02*
X009705Y009645D01*
X009705Y009688D02*
X010213Y009688D01*
X010453Y009715D02*
X010961Y009715D01*
X010961Y009129D01*
X010453Y009129D01*
X010453Y009715D01*
X010453Y009172D02*
X010961Y009172D01*
X010961Y009215D02*
X010453Y009215D01*
X010453Y009258D02*
X010961Y009258D01*
X010961Y009301D02*
X010453Y009301D01*
X010453Y009344D02*
X010961Y009344D01*
X010961Y009387D02*
X010453Y009387D01*
X010453Y009430D02*
X010961Y009430D01*
X010961Y009473D02*
X010453Y009473D01*
X010453Y009516D02*
X010961Y009516D01*
X010961Y009559D02*
X010453Y009559D01*
X010453Y009602D02*
X010961Y009602D01*
X010961Y009645D02*
X010453Y009645D01*
X010453Y009688D02*
X010961Y009688D01*
X011505Y009715D02*
X012013Y009715D01*
X012013Y009129D01*
X011505Y009129D01*
X011505Y009715D01*
X011505Y009172D02*
X012013Y009172D01*
X012013Y009215D02*
X011505Y009215D01*
X011505Y009258D02*
X012013Y009258D01*
X012013Y009301D02*
X011505Y009301D01*
X011505Y009344D02*
X012013Y009344D01*
X012013Y009387D02*
X011505Y009387D01*
X011505Y009430D02*
X012013Y009430D01*
X012013Y009473D02*
X011505Y009473D01*
X011505Y009516D02*
X012013Y009516D01*
X012013Y009559D02*
X011505Y009559D01*
X011505Y009602D02*
X012013Y009602D01*
X012013Y009645D02*
X011505Y009645D01*
X011505Y009688D02*
X012013Y009688D01*
X012253Y009715D02*
X012761Y009715D01*
X012761Y009129D01*
X012253Y009129D01*
X012253Y009715D01*
X012253Y009172D02*
X012761Y009172D01*
X012761Y009215D02*
X012253Y009215D01*
X012253Y009258D02*
X012761Y009258D01*
X012761Y009301D02*
X012253Y009301D01*
X012253Y009344D02*
X012761Y009344D01*
X012761Y009387D02*
X012253Y009387D01*
X012253Y009430D02*
X012761Y009430D01*
X012761Y009473D02*
X012253Y009473D01*
X012253Y009516D02*
X012761Y009516D01*
X012761Y009559D02*
X012253Y009559D01*
X012253Y009602D02*
X012761Y009602D01*
X012761Y009645D02*
X012253Y009645D01*
X012253Y009688D02*
X012761Y009688D01*
X011226Y012394D02*
X011226Y012902D01*
X011226Y012394D02*
X010640Y012394D01*
X010640Y012902D01*
X011226Y012902D01*
X011226Y012437D02*
X010640Y012437D01*
X010640Y012480D02*
X011226Y012480D01*
X011226Y012523D02*
X010640Y012523D01*
X010640Y012566D02*
X011226Y012566D01*
X011226Y012609D02*
X010640Y012609D01*
X010640Y012652D02*
X011226Y012652D01*
X011226Y012695D02*
X010640Y012695D01*
X010640Y012738D02*
X011226Y012738D01*
X011226Y012781D02*
X010640Y012781D01*
X010640Y012824D02*
X011226Y012824D01*
X011226Y012867D02*
X010640Y012867D01*
X011226Y013142D02*
X011226Y013650D01*
X011226Y013142D02*
X010640Y013142D01*
X010640Y013650D01*
X011226Y013650D01*
X011226Y013185D02*
X010640Y013185D01*
X010640Y013228D02*
X011226Y013228D01*
X011226Y013271D02*
X010640Y013271D01*
X010640Y013314D02*
X011226Y013314D01*
X011226Y013357D02*
X010640Y013357D01*
X010640Y013400D02*
X011226Y013400D01*
X011226Y013443D02*
X010640Y013443D01*
X010640Y013486D02*
X011226Y013486D01*
X011226Y013529D02*
X010640Y013529D01*
X010640Y013572D02*
X011226Y013572D01*
X011226Y013615D02*
X010640Y013615D01*
X010640Y014094D02*
X010640Y014602D01*
X011226Y014602D01*
X011226Y014094D01*
X010640Y014094D01*
X010640Y014137D02*
X011226Y014137D01*
X011226Y014180D02*
X010640Y014180D01*
X010640Y014223D02*
X011226Y014223D01*
X011226Y014266D02*
X010640Y014266D01*
X010640Y014309D02*
X011226Y014309D01*
X011226Y014352D02*
X010640Y014352D01*
X010640Y014395D02*
X011226Y014395D01*
X011226Y014438D02*
X010640Y014438D01*
X010640Y014481D02*
X011226Y014481D01*
X011226Y014524D02*
X010640Y014524D01*
X010640Y014567D02*
X011226Y014567D01*
X010640Y014842D02*
X010640Y015350D01*
X011226Y015350D01*
X011226Y014842D01*
X010640Y014842D01*
X010640Y014885D02*
X011226Y014885D01*
X011226Y014928D02*
X010640Y014928D01*
X010640Y014971D02*
X011226Y014971D01*
X011226Y015014D02*
X010640Y015014D01*
X010640Y015057D02*
X011226Y015057D01*
X011226Y015100D02*
X010640Y015100D01*
X010640Y015143D02*
X011226Y015143D01*
X011226Y015186D02*
X010640Y015186D01*
X010640Y015229D02*
X011226Y015229D01*
X011226Y015272D02*
X010640Y015272D01*
X010640Y015315D02*
X011226Y015315D01*
X007040Y015350D02*
X007040Y014842D01*
X007040Y015350D02*
X007626Y015350D01*
X007626Y014842D01*
X007040Y014842D01*
X007040Y014885D02*
X007626Y014885D01*
X007626Y014928D02*
X007040Y014928D01*
X007040Y014971D02*
X007626Y014971D01*
X007626Y015014D02*
X007040Y015014D01*
X007040Y015057D02*
X007626Y015057D01*
X007626Y015100D02*
X007040Y015100D01*
X007040Y015143D02*
X007626Y015143D01*
X007626Y015186D02*
X007040Y015186D01*
X007040Y015229D02*
X007626Y015229D01*
X007626Y015272D02*
X007040Y015272D01*
X007040Y015315D02*
X007626Y015315D01*
X007040Y014602D02*
X007040Y014094D01*
X007040Y014602D02*
X007626Y014602D01*
X007626Y014094D01*
X007040Y014094D01*
X007040Y014137D02*
X007626Y014137D01*
X007626Y014180D02*
X007040Y014180D01*
X007040Y014223D02*
X007626Y014223D01*
X007626Y014266D02*
X007040Y014266D01*
X007040Y014309D02*
X007626Y014309D01*
X007626Y014352D02*
X007040Y014352D01*
X007040Y014395D02*
X007626Y014395D01*
X007626Y014438D02*
X007040Y014438D01*
X007040Y014481D02*
X007626Y014481D01*
X007626Y014524D02*
X007040Y014524D01*
X007040Y014567D02*
X007626Y014567D01*
X003226Y014502D02*
X003226Y013994D01*
X002640Y013994D01*
X002640Y014502D01*
X003226Y014502D01*
X003226Y014037D02*
X002640Y014037D01*
X002640Y014080D02*
X003226Y014080D01*
X003226Y014123D02*
X002640Y014123D01*
X002640Y014166D02*
X003226Y014166D01*
X003226Y014209D02*
X002640Y014209D01*
X002640Y014252D02*
X003226Y014252D01*
X003226Y014295D02*
X002640Y014295D01*
X002640Y014338D02*
X003226Y014338D01*
X003226Y014381D02*
X002640Y014381D01*
X002640Y014424D02*
X003226Y014424D01*
X003226Y014467D02*
X002640Y014467D01*
X003226Y014742D02*
X003226Y015250D01*
X003226Y014742D02*
X002640Y014742D01*
X002640Y015250D01*
X003226Y015250D01*
X003226Y014785D02*
X002640Y014785D01*
X002640Y014828D02*
X003226Y014828D01*
X003226Y014871D02*
X002640Y014871D01*
X002640Y014914D02*
X003226Y014914D01*
X003226Y014957D02*
X002640Y014957D01*
X002640Y015000D02*
X003226Y015000D01*
X003226Y015043D02*
X002640Y015043D01*
X002640Y015086D02*
X003226Y015086D01*
X003226Y015129D02*
X002640Y015129D01*
X002640Y015172D02*
X003226Y015172D01*
X003226Y015215D02*
X002640Y015215D01*
X001626Y015250D02*
X001626Y014742D01*
X001040Y014742D01*
X001040Y015250D01*
X001626Y015250D01*
X001626Y014785D02*
X001040Y014785D01*
X001040Y014828D02*
X001626Y014828D01*
X001626Y014871D02*
X001040Y014871D01*
X001040Y014914D02*
X001626Y014914D01*
X001626Y014957D02*
X001040Y014957D01*
X001040Y015000D02*
X001626Y015000D01*
X001626Y015043D02*
X001040Y015043D01*
X001040Y015086D02*
X001626Y015086D01*
X001626Y015129D02*
X001040Y015129D01*
X001040Y015172D02*
X001626Y015172D01*
X001626Y015215D02*
X001040Y015215D01*
X001626Y014502D02*
X001626Y013994D01*
X001040Y013994D01*
X001040Y014502D01*
X001626Y014502D01*
X001626Y014037D02*
X001040Y014037D01*
X001040Y014080D02*
X001626Y014080D01*
X001626Y014123D02*
X001040Y014123D01*
X001040Y014166D02*
X001626Y014166D01*
X001626Y014209D02*
X001040Y014209D01*
X001040Y014252D02*
X001626Y014252D01*
X001626Y014295D02*
X001040Y014295D01*
X001040Y014338D02*
X001626Y014338D01*
X001626Y014381D02*
X001040Y014381D01*
X001040Y014424D02*
X001626Y014424D01*
X001626Y014467D02*
X001040Y014467D01*
X001626Y015944D02*
X001626Y016452D01*
X001626Y015944D02*
X001040Y015944D01*
X001040Y016452D01*
X001626Y016452D01*
X001626Y015987D02*
X001040Y015987D01*
X001040Y016030D02*
X001626Y016030D01*
X001626Y016073D02*
X001040Y016073D01*
X001040Y016116D02*
X001626Y016116D01*
X001626Y016159D02*
X001040Y016159D01*
X001040Y016202D02*
X001626Y016202D01*
X001626Y016245D02*
X001040Y016245D01*
X001040Y016288D02*
X001626Y016288D01*
X001626Y016331D02*
X001040Y016331D01*
X001040Y016374D02*
X001626Y016374D01*
X001626Y016417D02*
X001040Y016417D01*
X001626Y016692D02*
X001626Y017200D01*
X001626Y016692D02*
X001040Y016692D01*
X001040Y017200D01*
X001626Y017200D01*
X001626Y016735D02*
X001040Y016735D01*
X001040Y016778D02*
X001626Y016778D01*
X001626Y016821D02*
X001040Y016821D01*
X001040Y016864D02*
X001626Y016864D01*
X001626Y016907D02*
X001040Y016907D01*
X001040Y016950D02*
X001626Y016950D01*
X001626Y016993D02*
X001040Y016993D01*
X001040Y017036D02*
X001626Y017036D01*
X001626Y017079D02*
X001040Y017079D01*
X001040Y017122D02*
X001626Y017122D01*
X001626Y017165D02*
X001040Y017165D01*
X002010Y017160D02*
X002010Y016652D01*
X002010Y017160D02*
X002596Y017160D01*
X002596Y016652D01*
X002010Y016652D01*
X002010Y016695D02*
X002596Y016695D01*
X002596Y016738D02*
X002010Y016738D01*
X002010Y016781D02*
X002596Y016781D01*
X002596Y016824D02*
X002010Y016824D01*
X002010Y016867D02*
X002596Y016867D01*
X002596Y016910D02*
X002010Y016910D01*
X002010Y016953D02*
X002596Y016953D01*
X002596Y016996D02*
X002010Y016996D01*
X002010Y017039D02*
X002596Y017039D01*
X002596Y017082D02*
X002010Y017082D01*
X002010Y017125D02*
X002596Y017125D01*
X002010Y016412D02*
X002010Y015904D01*
X002010Y016412D02*
X002596Y016412D01*
X002596Y015904D01*
X002010Y015904D01*
X002010Y015947D02*
X002596Y015947D01*
X002596Y015990D02*
X002010Y015990D01*
X002010Y016033D02*
X002596Y016033D01*
X002596Y016076D02*
X002010Y016076D01*
X002010Y016119D02*
X002596Y016119D01*
X002596Y016162D02*
X002010Y016162D01*
X002010Y016205D02*
X002596Y016205D01*
X002596Y016248D02*
X002010Y016248D01*
X002010Y016291D02*
X002596Y016291D01*
X002596Y016334D02*
X002010Y016334D01*
X002010Y016377D02*
X002596Y016377D01*
X001636Y017904D02*
X001636Y018412D01*
X001636Y017904D02*
X001050Y017904D01*
X001050Y018412D01*
X001636Y018412D01*
X001636Y017947D02*
X001050Y017947D01*
X001050Y017990D02*
X001636Y017990D01*
X001636Y018033D02*
X001050Y018033D01*
X001050Y018076D02*
X001636Y018076D01*
X001636Y018119D02*
X001050Y018119D01*
X001050Y018162D02*
X001636Y018162D01*
X001636Y018205D02*
X001050Y018205D01*
X001050Y018248D02*
X001636Y018248D01*
X001636Y018291D02*
X001050Y018291D01*
X001050Y018334D02*
X001636Y018334D01*
X001636Y018377D02*
X001050Y018377D01*
X001636Y018652D02*
X001636Y019160D01*
X001636Y018652D02*
X001050Y018652D01*
X001050Y019160D01*
X001636Y019160D01*
X001636Y018695D02*
X001050Y018695D01*
X001050Y018738D02*
X001636Y018738D01*
X001636Y018781D02*
X001050Y018781D01*
X001050Y018824D02*
X001636Y018824D01*
X001636Y018867D02*
X001050Y018867D01*
X001050Y018910D02*
X001636Y018910D01*
X001636Y018953D02*
X001050Y018953D01*
X001050Y018996D02*
X001636Y018996D01*
X001636Y019039D02*
X001050Y019039D01*
X001050Y019082D02*
X001636Y019082D01*
X001636Y019125D02*
X001050Y019125D01*
X005415Y018515D02*
X005923Y018515D01*
X005923Y017929D01*
X005415Y017929D01*
X005415Y018515D01*
X005415Y017972D02*
X005923Y017972D01*
X005923Y018015D02*
X005415Y018015D01*
X005415Y018058D02*
X005923Y018058D01*
X005923Y018101D02*
X005415Y018101D01*
X005415Y018144D02*
X005923Y018144D01*
X005923Y018187D02*
X005415Y018187D01*
X005415Y018230D02*
X005923Y018230D01*
X005923Y018273D02*
X005415Y018273D01*
X005415Y018316D02*
X005923Y018316D01*
X005923Y018359D02*
X005415Y018359D01*
X005415Y018402D02*
X005923Y018402D01*
X005923Y018445D02*
X005415Y018445D01*
X005415Y018488D02*
X005923Y018488D01*
X006163Y018515D02*
X006671Y018515D01*
X006671Y017929D01*
X006163Y017929D01*
X006163Y018515D01*
X006163Y017972D02*
X006671Y017972D01*
X006671Y018015D02*
X006163Y018015D01*
X006163Y018058D02*
X006671Y018058D01*
X006671Y018101D02*
X006163Y018101D01*
X006163Y018144D02*
X006671Y018144D01*
X006671Y018187D02*
X006163Y018187D01*
X006163Y018230D02*
X006671Y018230D01*
X006671Y018273D02*
X006163Y018273D01*
X006163Y018316D02*
X006671Y018316D01*
X006671Y018359D02*
X006163Y018359D01*
X006163Y018402D02*
X006671Y018402D01*
X006671Y018445D02*
X006163Y018445D01*
X006163Y018488D02*
X006671Y018488D01*
X009405Y017929D02*
X009913Y017929D01*
X009405Y017929D02*
X009405Y018515D01*
X009913Y018515D01*
X009913Y017929D01*
X009913Y017972D02*
X009405Y017972D01*
X009405Y018015D02*
X009913Y018015D01*
X009913Y018058D02*
X009405Y018058D01*
X009405Y018101D02*
X009913Y018101D01*
X009913Y018144D02*
X009405Y018144D01*
X009405Y018187D02*
X009913Y018187D01*
X009913Y018230D02*
X009405Y018230D01*
X009405Y018273D02*
X009913Y018273D01*
X009913Y018316D02*
X009405Y018316D01*
X009405Y018359D02*
X009913Y018359D01*
X009913Y018402D02*
X009405Y018402D01*
X009405Y018445D02*
X009913Y018445D01*
X009913Y018488D02*
X009405Y018488D01*
X010153Y017929D02*
X010661Y017929D01*
X010153Y017929D02*
X010153Y018515D01*
X010661Y018515D01*
X010661Y017929D01*
X010661Y017972D02*
X010153Y017972D01*
X010153Y018015D02*
X010661Y018015D01*
X010661Y018058D02*
X010153Y018058D01*
X010153Y018101D02*
X010661Y018101D01*
X010661Y018144D02*
X010153Y018144D01*
X010153Y018187D02*
X010661Y018187D01*
X010661Y018230D02*
X010153Y018230D01*
X010153Y018273D02*
X010661Y018273D01*
X010661Y018316D02*
X010153Y018316D01*
X010153Y018359D02*
X010661Y018359D01*
X010661Y018402D02*
X010153Y018402D01*
X010153Y018445D02*
X010661Y018445D01*
X010661Y018488D02*
X010153Y018488D01*
X003977Y005760D02*
X003977Y005174D01*
X003977Y005760D02*
X004759Y005760D01*
X004759Y005174D01*
X003977Y005174D01*
X003977Y005217D02*
X004759Y005217D01*
X004759Y005260D02*
X003977Y005260D01*
X003977Y005303D02*
X004759Y005303D01*
X004759Y005346D02*
X003977Y005346D01*
X003977Y005389D02*
X004759Y005389D01*
X004759Y005432D02*
X003977Y005432D01*
X003977Y005475D02*
X004759Y005475D01*
X004759Y005518D02*
X003977Y005518D01*
X003977Y005561D02*
X004759Y005561D01*
X004759Y005604D02*
X003977Y005604D01*
X003977Y005647D02*
X004759Y005647D01*
X004759Y005690D02*
X003977Y005690D01*
X003977Y005733D02*
X004759Y005733D01*
D17*
X005894Y003407D03*
X007794Y003407D03*
D18*
X012234Y003638D02*
X012492Y003638D01*
X012234Y003638D02*
X012234Y004436D01*
X012492Y004436D01*
X012492Y003638D01*
X012492Y003679D02*
X012234Y003679D01*
X012234Y003720D02*
X012492Y003720D01*
X012492Y003761D02*
X012234Y003761D01*
X012234Y003802D02*
X012492Y003802D01*
X012492Y003843D02*
X012234Y003843D01*
X012234Y003884D02*
X012492Y003884D01*
X012492Y003925D02*
X012234Y003925D01*
X012234Y003966D02*
X012492Y003966D01*
X012492Y004007D02*
X012234Y004007D01*
X012234Y004048D02*
X012492Y004048D01*
X012492Y004089D02*
X012234Y004089D01*
X012234Y004130D02*
X012492Y004130D01*
X012492Y004171D02*
X012234Y004171D01*
X012234Y004212D02*
X012492Y004212D01*
X012492Y004253D02*
X012234Y004253D01*
X012234Y004294D02*
X012492Y004294D01*
X012492Y004335D02*
X012234Y004335D01*
X012234Y004376D02*
X012492Y004376D01*
X012492Y004417D02*
X012234Y004417D01*
X012734Y003638D02*
X012992Y003638D01*
X012734Y003638D02*
X012734Y004436D01*
X012992Y004436D01*
X012992Y003638D01*
X012992Y003679D02*
X012734Y003679D01*
X012734Y003720D02*
X012992Y003720D01*
X012992Y003761D02*
X012734Y003761D01*
X012734Y003802D02*
X012992Y003802D01*
X012992Y003843D02*
X012734Y003843D01*
X012734Y003884D02*
X012992Y003884D01*
X012992Y003925D02*
X012734Y003925D01*
X012734Y003966D02*
X012992Y003966D01*
X012992Y004007D02*
X012734Y004007D01*
X012734Y004048D02*
X012992Y004048D01*
X012992Y004089D02*
X012734Y004089D01*
X012734Y004130D02*
X012992Y004130D01*
X012992Y004171D02*
X012734Y004171D01*
X012734Y004212D02*
X012992Y004212D01*
X012992Y004253D02*
X012734Y004253D01*
X012734Y004294D02*
X012992Y004294D01*
X012992Y004335D02*
X012734Y004335D01*
X012734Y004376D02*
X012992Y004376D01*
X012992Y004417D02*
X012734Y004417D01*
X013234Y003638D02*
X013492Y003638D01*
X013234Y003638D02*
X013234Y004436D01*
X013492Y004436D01*
X013492Y003638D01*
X013492Y003679D02*
X013234Y003679D01*
X013234Y003720D02*
X013492Y003720D01*
X013492Y003761D02*
X013234Y003761D01*
X013234Y003802D02*
X013492Y003802D01*
X013492Y003843D02*
X013234Y003843D01*
X013234Y003884D02*
X013492Y003884D01*
X013492Y003925D02*
X013234Y003925D01*
X013234Y003966D02*
X013492Y003966D01*
X013492Y004007D02*
X013234Y004007D01*
X013234Y004048D02*
X013492Y004048D01*
X013492Y004089D02*
X013234Y004089D01*
X013234Y004130D02*
X013492Y004130D01*
X013492Y004171D02*
X013234Y004171D01*
X013234Y004212D02*
X013492Y004212D01*
X013492Y004253D02*
X013234Y004253D01*
X013234Y004294D02*
X013492Y004294D01*
X013492Y004335D02*
X013234Y004335D01*
X013234Y004376D02*
X013492Y004376D01*
X013492Y004417D02*
X013234Y004417D01*
X013734Y003638D02*
X013992Y003638D01*
X013734Y003638D02*
X013734Y004436D01*
X013992Y004436D01*
X013992Y003638D01*
X013992Y003679D02*
X013734Y003679D01*
X013734Y003720D02*
X013992Y003720D01*
X013992Y003761D02*
X013734Y003761D01*
X013734Y003802D02*
X013992Y003802D01*
X013992Y003843D02*
X013734Y003843D01*
X013734Y003884D02*
X013992Y003884D01*
X013992Y003925D02*
X013734Y003925D01*
X013734Y003966D02*
X013992Y003966D01*
X013992Y004007D02*
X013734Y004007D01*
X013734Y004048D02*
X013992Y004048D01*
X013992Y004089D02*
X013734Y004089D01*
X013734Y004130D02*
X013992Y004130D01*
X013992Y004171D02*
X013734Y004171D01*
X013734Y004212D02*
X013992Y004212D01*
X013992Y004253D02*
X013734Y004253D01*
X013734Y004294D02*
X013992Y004294D01*
X013992Y004335D02*
X013734Y004335D01*
X013734Y004376D02*
X013992Y004376D01*
X013992Y004417D02*
X013734Y004417D01*
X014234Y003638D02*
X014492Y003638D01*
X014234Y003638D02*
X014234Y004436D01*
X014492Y004436D01*
X014492Y003638D01*
X014492Y003679D02*
X014234Y003679D01*
X014234Y003720D02*
X014492Y003720D01*
X014492Y003761D02*
X014234Y003761D01*
X014234Y003802D02*
X014492Y003802D01*
X014492Y003843D02*
X014234Y003843D01*
X014234Y003884D02*
X014492Y003884D01*
X014492Y003925D02*
X014234Y003925D01*
X014234Y003966D02*
X014492Y003966D01*
X014492Y004007D02*
X014234Y004007D01*
X014234Y004048D02*
X014492Y004048D01*
X014492Y004089D02*
X014234Y004089D01*
X014234Y004130D02*
X014492Y004130D01*
X014492Y004171D02*
X014234Y004171D01*
X014234Y004212D02*
X014492Y004212D01*
X014492Y004253D02*
X014234Y004253D01*
X014234Y004294D02*
X014492Y004294D01*
X014492Y004335D02*
X014234Y004335D01*
X014234Y004376D02*
X014492Y004376D01*
X014492Y004417D02*
X014234Y004417D01*
X014734Y003638D02*
X014992Y003638D01*
X014734Y003638D02*
X014734Y004436D01*
X014992Y004436D01*
X014992Y003638D01*
X014992Y003679D02*
X014734Y003679D01*
X014734Y003720D02*
X014992Y003720D01*
X014992Y003761D02*
X014734Y003761D01*
X014734Y003802D02*
X014992Y003802D01*
X014992Y003843D02*
X014734Y003843D01*
X014734Y003884D02*
X014992Y003884D01*
X014992Y003925D02*
X014734Y003925D01*
X014734Y003966D02*
X014992Y003966D01*
X014992Y004007D02*
X014734Y004007D01*
X014734Y004048D02*
X014992Y004048D01*
X014992Y004089D02*
X014734Y004089D01*
X014734Y004130D02*
X014992Y004130D01*
X014992Y004171D02*
X014734Y004171D01*
X014734Y004212D02*
X014992Y004212D01*
X014992Y004253D02*
X014734Y004253D01*
X014734Y004294D02*
X014992Y004294D01*
X014992Y004335D02*
X014734Y004335D01*
X014734Y004376D02*
X014992Y004376D01*
X014992Y004417D02*
X014734Y004417D01*
X015234Y003638D02*
X015492Y003638D01*
X015234Y003638D02*
X015234Y004436D01*
X015492Y004436D01*
X015492Y003638D01*
X015492Y003679D02*
X015234Y003679D01*
X015234Y003720D02*
X015492Y003720D01*
X015492Y003761D02*
X015234Y003761D01*
X015234Y003802D02*
X015492Y003802D01*
X015492Y003843D02*
X015234Y003843D01*
X015234Y003884D02*
X015492Y003884D01*
X015492Y003925D02*
X015234Y003925D01*
X015234Y003966D02*
X015492Y003966D01*
X015492Y004007D02*
X015234Y004007D01*
X015234Y004048D02*
X015492Y004048D01*
X015492Y004089D02*
X015234Y004089D01*
X015234Y004130D02*
X015492Y004130D01*
X015492Y004171D02*
X015234Y004171D01*
X015234Y004212D02*
X015492Y004212D01*
X015492Y004253D02*
X015234Y004253D01*
X015234Y004294D02*
X015492Y004294D01*
X015492Y004335D02*
X015234Y004335D01*
X015234Y004376D02*
X015492Y004376D01*
X015492Y004417D02*
X015234Y004417D01*
X015734Y003638D02*
X015992Y003638D01*
X015734Y003638D02*
X015734Y004436D01*
X015992Y004436D01*
X015992Y003638D01*
X015992Y003679D02*
X015734Y003679D01*
X015734Y003720D02*
X015992Y003720D01*
X015992Y003761D02*
X015734Y003761D01*
X015734Y003802D02*
X015992Y003802D01*
X015992Y003843D02*
X015734Y003843D01*
X015734Y003884D02*
X015992Y003884D01*
X015992Y003925D02*
X015734Y003925D01*
X015734Y003966D02*
X015992Y003966D01*
X015992Y004007D02*
X015734Y004007D01*
X015734Y004048D02*
X015992Y004048D01*
X015992Y004089D02*
X015734Y004089D01*
X015734Y004130D02*
X015992Y004130D01*
X015992Y004171D02*
X015734Y004171D01*
X015734Y004212D02*
X015992Y004212D01*
X015992Y004253D02*
X015734Y004253D01*
X015734Y004294D02*
X015992Y004294D01*
X015992Y004335D02*
X015734Y004335D01*
X015734Y004376D02*
X015992Y004376D01*
X015992Y004417D02*
X015734Y004417D01*
X015734Y006058D02*
X015992Y006058D01*
X015734Y006058D02*
X015734Y006856D01*
X015992Y006856D01*
X015992Y006058D01*
X015992Y006099D02*
X015734Y006099D01*
X015734Y006140D02*
X015992Y006140D01*
X015992Y006181D02*
X015734Y006181D01*
X015734Y006222D02*
X015992Y006222D01*
X015992Y006263D02*
X015734Y006263D01*
X015734Y006304D02*
X015992Y006304D01*
X015992Y006345D02*
X015734Y006345D01*
X015734Y006386D02*
X015992Y006386D01*
X015992Y006427D02*
X015734Y006427D01*
X015734Y006468D02*
X015992Y006468D01*
X015992Y006509D02*
X015734Y006509D01*
X015734Y006550D02*
X015992Y006550D01*
X015992Y006591D02*
X015734Y006591D01*
X015734Y006632D02*
X015992Y006632D01*
X015992Y006673D02*
X015734Y006673D01*
X015734Y006714D02*
X015992Y006714D01*
X015992Y006755D02*
X015734Y006755D01*
X015734Y006796D02*
X015992Y006796D01*
X015992Y006837D02*
X015734Y006837D01*
X015492Y006058D02*
X015234Y006058D01*
X015234Y006856D01*
X015492Y006856D01*
X015492Y006058D01*
X015492Y006099D02*
X015234Y006099D01*
X015234Y006140D02*
X015492Y006140D01*
X015492Y006181D02*
X015234Y006181D01*
X015234Y006222D02*
X015492Y006222D01*
X015492Y006263D02*
X015234Y006263D01*
X015234Y006304D02*
X015492Y006304D01*
X015492Y006345D02*
X015234Y006345D01*
X015234Y006386D02*
X015492Y006386D01*
X015492Y006427D02*
X015234Y006427D01*
X015234Y006468D02*
X015492Y006468D01*
X015492Y006509D02*
X015234Y006509D01*
X015234Y006550D02*
X015492Y006550D01*
X015492Y006591D02*
X015234Y006591D01*
X015234Y006632D02*
X015492Y006632D01*
X015492Y006673D02*
X015234Y006673D01*
X015234Y006714D02*
X015492Y006714D01*
X015492Y006755D02*
X015234Y006755D01*
X015234Y006796D02*
X015492Y006796D01*
X015492Y006837D02*
X015234Y006837D01*
X014992Y006058D02*
X014734Y006058D01*
X014734Y006856D01*
X014992Y006856D01*
X014992Y006058D01*
X014992Y006099D02*
X014734Y006099D01*
X014734Y006140D02*
X014992Y006140D01*
X014992Y006181D02*
X014734Y006181D01*
X014734Y006222D02*
X014992Y006222D01*
X014992Y006263D02*
X014734Y006263D01*
X014734Y006304D02*
X014992Y006304D01*
X014992Y006345D02*
X014734Y006345D01*
X014734Y006386D02*
X014992Y006386D01*
X014992Y006427D02*
X014734Y006427D01*
X014734Y006468D02*
X014992Y006468D01*
X014992Y006509D02*
X014734Y006509D01*
X014734Y006550D02*
X014992Y006550D01*
X014992Y006591D02*
X014734Y006591D01*
X014734Y006632D02*
X014992Y006632D01*
X014992Y006673D02*
X014734Y006673D01*
X014734Y006714D02*
X014992Y006714D01*
X014992Y006755D02*
X014734Y006755D01*
X014734Y006796D02*
X014992Y006796D01*
X014992Y006837D02*
X014734Y006837D01*
X014492Y006058D02*
X014234Y006058D01*
X014234Y006856D01*
X014492Y006856D01*
X014492Y006058D01*
X014492Y006099D02*
X014234Y006099D01*
X014234Y006140D02*
X014492Y006140D01*
X014492Y006181D02*
X014234Y006181D01*
X014234Y006222D02*
X014492Y006222D01*
X014492Y006263D02*
X014234Y006263D01*
X014234Y006304D02*
X014492Y006304D01*
X014492Y006345D02*
X014234Y006345D01*
X014234Y006386D02*
X014492Y006386D01*
X014492Y006427D02*
X014234Y006427D01*
X014234Y006468D02*
X014492Y006468D01*
X014492Y006509D02*
X014234Y006509D01*
X014234Y006550D02*
X014492Y006550D01*
X014492Y006591D02*
X014234Y006591D01*
X014234Y006632D02*
X014492Y006632D01*
X014492Y006673D02*
X014234Y006673D01*
X014234Y006714D02*
X014492Y006714D01*
X014492Y006755D02*
X014234Y006755D01*
X014234Y006796D02*
X014492Y006796D01*
X014492Y006837D02*
X014234Y006837D01*
X013992Y006058D02*
X013734Y006058D01*
X013734Y006856D01*
X013992Y006856D01*
X013992Y006058D01*
X013992Y006099D02*
X013734Y006099D01*
X013734Y006140D02*
X013992Y006140D01*
X013992Y006181D02*
X013734Y006181D01*
X013734Y006222D02*
X013992Y006222D01*
X013992Y006263D02*
X013734Y006263D01*
X013734Y006304D02*
X013992Y006304D01*
X013992Y006345D02*
X013734Y006345D01*
X013734Y006386D02*
X013992Y006386D01*
X013992Y006427D02*
X013734Y006427D01*
X013734Y006468D02*
X013992Y006468D01*
X013992Y006509D02*
X013734Y006509D01*
X013734Y006550D02*
X013992Y006550D01*
X013992Y006591D02*
X013734Y006591D01*
X013734Y006632D02*
X013992Y006632D01*
X013992Y006673D02*
X013734Y006673D01*
X013734Y006714D02*
X013992Y006714D01*
X013992Y006755D02*
X013734Y006755D01*
X013734Y006796D02*
X013992Y006796D01*
X013992Y006837D02*
X013734Y006837D01*
X013492Y006058D02*
X013234Y006058D01*
X013234Y006856D01*
X013492Y006856D01*
X013492Y006058D01*
X013492Y006099D02*
X013234Y006099D01*
X013234Y006140D02*
X013492Y006140D01*
X013492Y006181D02*
X013234Y006181D01*
X013234Y006222D02*
X013492Y006222D01*
X013492Y006263D02*
X013234Y006263D01*
X013234Y006304D02*
X013492Y006304D01*
X013492Y006345D02*
X013234Y006345D01*
X013234Y006386D02*
X013492Y006386D01*
X013492Y006427D02*
X013234Y006427D01*
X013234Y006468D02*
X013492Y006468D01*
X013492Y006509D02*
X013234Y006509D01*
X013234Y006550D02*
X013492Y006550D01*
X013492Y006591D02*
X013234Y006591D01*
X013234Y006632D02*
X013492Y006632D01*
X013492Y006673D02*
X013234Y006673D01*
X013234Y006714D02*
X013492Y006714D01*
X013492Y006755D02*
X013234Y006755D01*
X013234Y006796D02*
X013492Y006796D01*
X013492Y006837D02*
X013234Y006837D01*
X012992Y006058D02*
X012734Y006058D01*
X012734Y006856D01*
X012992Y006856D01*
X012992Y006058D01*
X012992Y006099D02*
X012734Y006099D01*
X012734Y006140D02*
X012992Y006140D01*
X012992Y006181D02*
X012734Y006181D01*
X012734Y006222D02*
X012992Y006222D01*
X012992Y006263D02*
X012734Y006263D01*
X012734Y006304D02*
X012992Y006304D01*
X012992Y006345D02*
X012734Y006345D01*
X012734Y006386D02*
X012992Y006386D01*
X012992Y006427D02*
X012734Y006427D01*
X012734Y006468D02*
X012992Y006468D01*
X012992Y006509D02*
X012734Y006509D01*
X012734Y006550D02*
X012992Y006550D01*
X012992Y006591D02*
X012734Y006591D01*
X012734Y006632D02*
X012992Y006632D01*
X012992Y006673D02*
X012734Y006673D01*
X012734Y006714D02*
X012992Y006714D01*
X012992Y006755D02*
X012734Y006755D01*
X012734Y006796D02*
X012992Y006796D01*
X012992Y006837D02*
X012734Y006837D01*
X012492Y006058D02*
X012234Y006058D01*
X012234Y006856D01*
X012492Y006856D01*
X012492Y006058D01*
X012492Y006099D02*
X012234Y006099D01*
X012234Y006140D02*
X012492Y006140D01*
X012492Y006181D02*
X012234Y006181D01*
X012234Y006222D02*
X012492Y006222D01*
X012492Y006263D02*
X012234Y006263D01*
X012234Y006304D02*
X012492Y006304D01*
X012492Y006345D02*
X012234Y006345D01*
X012234Y006386D02*
X012492Y006386D01*
X012492Y006427D02*
X012234Y006427D01*
X012234Y006468D02*
X012492Y006468D01*
X012492Y006509D02*
X012234Y006509D01*
X012234Y006550D02*
X012492Y006550D01*
X012492Y006591D02*
X012234Y006591D01*
X012234Y006632D02*
X012492Y006632D01*
X012492Y006673D02*
X012234Y006673D01*
X012234Y006714D02*
X012492Y006714D01*
X012492Y006755D02*
X012234Y006755D01*
X012234Y006796D02*
X012492Y006796D01*
X012492Y006837D02*
X012234Y006837D01*
X009972Y012961D02*
X009714Y012961D01*
X009972Y012961D02*
X009972Y012163D01*
X009714Y012163D01*
X009714Y012961D01*
X009714Y012204D02*
X009972Y012204D01*
X009972Y012245D02*
X009714Y012245D01*
X009714Y012286D02*
X009972Y012286D01*
X009972Y012327D02*
X009714Y012327D01*
X009714Y012368D02*
X009972Y012368D01*
X009972Y012409D02*
X009714Y012409D01*
X009714Y012450D02*
X009972Y012450D01*
X009972Y012491D02*
X009714Y012491D01*
X009714Y012532D02*
X009972Y012532D01*
X009972Y012573D02*
X009714Y012573D01*
X009714Y012614D02*
X009972Y012614D01*
X009972Y012655D02*
X009714Y012655D01*
X009714Y012696D02*
X009972Y012696D01*
X009972Y012737D02*
X009714Y012737D01*
X009714Y012778D02*
X009972Y012778D01*
X009972Y012819D02*
X009714Y012819D01*
X009714Y012860D02*
X009972Y012860D01*
X009972Y012901D02*
X009714Y012901D01*
X009714Y012942D02*
X009972Y012942D01*
X009472Y012961D02*
X009214Y012961D01*
X009472Y012961D02*
X009472Y012163D01*
X009214Y012163D01*
X009214Y012961D01*
X009214Y012204D02*
X009472Y012204D01*
X009472Y012245D02*
X009214Y012245D01*
X009214Y012286D02*
X009472Y012286D01*
X009472Y012327D02*
X009214Y012327D01*
X009214Y012368D02*
X009472Y012368D01*
X009472Y012409D02*
X009214Y012409D01*
X009214Y012450D02*
X009472Y012450D01*
X009472Y012491D02*
X009214Y012491D01*
X009214Y012532D02*
X009472Y012532D01*
X009472Y012573D02*
X009214Y012573D01*
X009214Y012614D02*
X009472Y012614D01*
X009472Y012655D02*
X009214Y012655D01*
X009214Y012696D02*
X009472Y012696D01*
X009472Y012737D02*
X009214Y012737D01*
X009214Y012778D02*
X009472Y012778D01*
X009472Y012819D02*
X009214Y012819D01*
X009214Y012860D02*
X009472Y012860D01*
X009472Y012901D02*
X009214Y012901D01*
X009214Y012942D02*
X009472Y012942D01*
X008972Y012961D02*
X008714Y012961D01*
X008972Y012961D02*
X008972Y012163D01*
X008714Y012163D01*
X008714Y012961D01*
X008714Y012204D02*
X008972Y012204D01*
X008972Y012245D02*
X008714Y012245D01*
X008714Y012286D02*
X008972Y012286D01*
X008972Y012327D02*
X008714Y012327D01*
X008714Y012368D02*
X008972Y012368D01*
X008972Y012409D02*
X008714Y012409D01*
X008714Y012450D02*
X008972Y012450D01*
X008972Y012491D02*
X008714Y012491D01*
X008714Y012532D02*
X008972Y012532D01*
X008972Y012573D02*
X008714Y012573D01*
X008714Y012614D02*
X008972Y012614D01*
X008972Y012655D02*
X008714Y012655D01*
X008714Y012696D02*
X008972Y012696D01*
X008972Y012737D02*
X008714Y012737D01*
X008714Y012778D02*
X008972Y012778D01*
X008972Y012819D02*
X008714Y012819D01*
X008714Y012860D02*
X008972Y012860D01*
X008972Y012901D02*
X008714Y012901D01*
X008714Y012942D02*
X008972Y012942D01*
X008472Y012961D02*
X008214Y012961D01*
X008472Y012961D02*
X008472Y012163D01*
X008214Y012163D01*
X008214Y012961D01*
X008214Y012204D02*
X008472Y012204D01*
X008472Y012245D02*
X008214Y012245D01*
X008214Y012286D02*
X008472Y012286D01*
X008472Y012327D02*
X008214Y012327D01*
X008214Y012368D02*
X008472Y012368D01*
X008472Y012409D02*
X008214Y012409D01*
X008214Y012450D02*
X008472Y012450D01*
X008472Y012491D02*
X008214Y012491D01*
X008214Y012532D02*
X008472Y012532D01*
X008472Y012573D02*
X008214Y012573D01*
X008214Y012614D02*
X008472Y012614D01*
X008472Y012655D02*
X008214Y012655D01*
X008214Y012696D02*
X008472Y012696D01*
X008472Y012737D02*
X008214Y012737D01*
X008214Y012778D02*
X008472Y012778D01*
X008472Y012819D02*
X008214Y012819D01*
X008214Y012860D02*
X008472Y012860D01*
X008472Y012901D02*
X008214Y012901D01*
X008214Y012942D02*
X008472Y012942D01*
X005622Y012931D02*
X005364Y012931D01*
X005622Y012931D02*
X005622Y012133D01*
X005364Y012133D01*
X005364Y012931D01*
X005364Y012174D02*
X005622Y012174D01*
X005622Y012215D02*
X005364Y012215D01*
X005364Y012256D02*
X005622Y012256D01*
X005622Y012297D02*
X005364Y012297D01*
X005364Y012338D02*
X005622Y012338D01*
X005622Y012379D02*
X005364Y012379D01*
X005364Y012420D02*
X005622Y012420D01*
X005622Y012461D02*
X005364Y012461D01*
X005364Y012502D02*
X005622Y012502D01*
X005622Y012543D02*
X005364Y012543D01*
X005364Y012584D02*
X005622Y012584D01*
X005622Y012625D02*
X005364Y012625D01*
X005364Y012666D02*
X005622Y012666D01*
X005622Y012707D02*
X005364Y012707D01*
X005364Y012748D02*
X005622Y012748D01*
X005622Y012789D02*
X005364Y012789D01*
X005364Y012830D02*
X005622Y012830D01*
X005622Y012871D02*
X005364Y012871D01*
X005364Y012912D02*
X005622Y012912D01*
X005122Y012931D02*
X004864Y012931D01*
X005122Y012931D02*
X005122Y012133D01*
X004864Y012133D01*
X004864Y012931D01*
X004864Y012174D02*
X005122Y012174D01*
X005122Y012215D02*
X004864Y012215D01*
X004864Y012256D02*
X005122Y012256D01*
X005122Y012297D02*
X004864Y012297D01*
X004864Y012338D02*
X005122Y012338D01*
X005122Y012379D02*
X004864Y012379D01*
X004864Y012420D02*
X005122Y012420D01*
X005122Y012461D02*
X004864Y012461D01*
X004864Y012502D02*
X005122Y012502D01*
X005122Y012543D02*
X004864Y012543D01*
X004864Y012584D02*
X005122Y012584D01*
X005122Y012625D02*
X004864Y012625D01*
X004864Y012666D02*
X005122Y012666D01*
X005122Y012707D02*
X004864Y012707D01*
X004864Y012748D02*
X005122Y012748D01*
X005122Y012789D02*
X004864Y012789D01*
X004864Y012830D02*
X005122Y012830D01*
X005122Y012871D02*
X004864Y012871D01*
X004864Y012912D02*
X005122Y012912D01*
X004622Y012931D02*
X004364Y012931D01*
X004622Y012931D02*
X004622Y012133D01*
X004364Y012133D01*
X004364Y012931D01*
X004364Y012174D02*
X004622Y012174D01*
X004622Y012215D02*
X004364Y012215D01*
X004364Y012256D02*
X004622Y012256D01*
X004622Y012297D02*
X004364Y012297D01*
X004364Y012338D02*
X004622Y012338D01*
X004622Y012379D02*
X004364Y012379D01*
X004364Y012420D02*
X004622Y012420D01*
X004622Y012461D02*
X004364Y012461D01*
X004364Y012502D02*
X004622Y012502D01*
X004622Y012543D02*
X004364Y012543D01*
X004364Y012584D02*
X004622Y012584D01*
X004622Y012625D02*
X004364Y012625D01*
X004364Y012666D02*
X004622Y012666D01*
X004622Y012707D02*
X004364Y012707D01*
X004364Y012748D02*
X004622Y012748D01*
X004622Y012789D02*
X004364Y012789D01*
X004364Y012830D02*
X004622Y012830D01*
X004622Y012871D02*
X004364Y012871D01*
X004364Y012912D02*
X004622Y012912D01*
X004122Y012931D02*
X003864Y012931D01*
X004122Y012931D02*
X004122Y012133D01*
X003864Y012133D01*
X003864Y012931D01*
X003864Y012174D02*
X004122Y012174D01*
X004122Y012215D02*
X003864Y012215D01*
X003864Y012256D02*
X004122Y012256D01*
X004122Y012297D02*
X003864Y012297D01*
X003864Y012338D02*
X004122Y012338D01*
X004122Y012379D02*
X003864Y012379D01*
X003864Y012420D02*
X004122Y012420D01*
X004122Y012461D02*
X003864Y012461D01*
X003864Y012502D02*
X004122Y012502D01*
X004122Y012543D02*
X003864Y012543D01*
X003864Y012584D02*
X004122Y012584D01*
X004122Y012625D02*
X003864Y012625D01*
X003864Y012666D02*
X004122Y012666D01*
X004122Y012707D02*
X003864Y012707D01*
X003864Y012748D02*
X004122Y012748D01*
X004122Y012789D02*
X003864Y012789D01*
X003864Y012830D02*
X004122Y012830D01*
X004122Y012871D02*
X003864Y012871D01*
X003864Y012912D02*
X004122Y012912D01*
X004122Y015431D02*
X003864Y015431D01*
X004122Y015431D02*
X004122Y014633D01*
X003864Y014633D01*
X003864Y015431D01*
X003864Y014674D02*
X004122Y014674D01*
X004122Y014715D02*
X003864Y014715D01*
X003864Y014756D02*
X004122Y014756D01*
X004122Y014797D02*
X003864Y014797D01*
X003864Y014838D02*
X004122Y014838D01*
X004122Y014879D02*
X003864Y014879D01*
X003864Y014920D02*
X004122Y014920D01*
X004122Y014961D02*
X003864Y014961D01*
X003864Y015002D02*
X004122Y015002D01*
X004122Y015043D02*
X003864Y015043D01*
X003864Y015084D02*
X004122Y015084D01*
X004122Y015125D02*
X003864Y015125D01*
X003864Y015166D02*
X004122Y015166D01*
X004122Y015207D02*
X003864Y015207D01*
X003864Y015248D02*
X004122Y015248D01*
X004122Y015289D02*
X003864Y015289D01*
X003864Y015330D02*
X004122Y015330D01*
X004122Y015371D02*
X003864Y015371D01*
X003864Y015412D02*
X004122Y015412D01*
X004364Y015431D02*
X004622Y015431D01*
X004622Y014633D01*
X004364Y014633D01*
X004364Y015431D01*
X004364Y014674D02*
X004622Y014674D01*
X004622Y014715D02*
X004364Y014715D01*
X004364Y014756D02*
X004622Y014756D01*
X004622Y014797D02*
X004364Y014797D01*
X004364Y014838D02*
X004622Y014838D01*
X004622Y014879D02*
X004364Y014879D01*
X004364Y014920D02*
X004622Y014920D01*
X004622Y014961D02*
X004364Y014961D01*
X004364Y015002D02*
X004622Y015002D01*
X004622Y015043D02*
X004364Y015043D01*
X004364Y015084D02*
X004622Y015084D01*
X004622Y015125D02*
X004364Y015125D01*
X004364Y015166D02*
X004622Y015166D01*
X004622Y015207D02*
X004364Y015207D01*
X004364Y015248D02*
X004622Y015248D01*
X004622Y015289D02*
X004364Y015289D01*
X004364Y015330D02*
X004622Y015330D01*
X004622Y015371D02*
X004364Y015371D01*
X004364Y015412D02*
X004622Y015412D01*
X004864Y015431D02*
X005122Y015431D01*
X005122Y014633D01*
X004864Y014633D01*
X004864Y015431D01*
X004864Y014674D02*
X005122Y014674D01*
X005122Y014715D02*
X004864Y014715D01*
X004864Y014756D02*
X005122Y014756D01*
X005122Y014797D02*
X004864Y014797D01*
X004864Y014838D02*
X005122Y014838D01*
X005122Y014879D02*
X004864Y014879D01*
X004864Y014920D02*
X005122Y014920D01*
X005122Y014961D02*
X004864Y014961D01*
X004864Y015002D02*
X005122Y015002D01*
X005122Y015043D02*
X004864Y015043D01*
X004864Y015084D02*
X005122Y015084D01*
X005122Y015125D02*
X004864Y015125D01*
X004864Y015166D02*
X005122Y015166D01*
X005122Y015207D02*
X004864Y015207D01*
X004864Y015248D02*
X005122Y015248D01*
X005122Y015289D02*
X004864Y015289D01*
X004864Y015330D02*
X005122Y015330D01*
X005122Y015371D02*
X004864Y015371D01*
X004864Y015412D02*
X005122Y015412D01*
X005364Y015431D02*
X005622Y015431D01*
X005622Y014633D01*
X005364Y014633D01*
X005364Y015431D01*
X005364Y014674D02*
X005622Y014674D01*
X005622Y014715D02*
X005364Y014715D01*
X005364Y014756D02*
X005622Y014756D01*
X005622Y014797D02*
X005364Y014797D01*
X005364Y014838D02*
X005622Y014838D01*
X005622Y014879D02*
X005364Y014879D01*
X005364Y014920D02*
X005622Y014920D01*
X005622Y014961D02*
X005364Y014961D01*
X005364Y015002D02*
X005622Y015002D01*
X005622Y015043D02*
X005364Y015043D01*
X005364Y015084D02*
X005622Y015084D01*
X005622Y015125D02*
X005364Y015125D01*
X005364Y015166D02*
X005622Y015166D01*
X005622Y015207D02*
X005364Y015207D01*
X005364Y015248D02*
X005622Y015248D01*
X005622Y015289D02*
X005364Y015289D01*
X005364Y015330D02*
X005622Y015330D01*
X005622Y015371D02*
X005364Y015371D01*
X005364Y015412D02*
X005622Y015412D01*
X008214Y015461D02*
X008472Y015461D01*
X008472Y014663D01*
X008214Y014663D01*
X008214Y015461D01*
X008214Y014704D02*
X008472Y014704D01*
X008472Y014745D02*
X008214Y014745D01*
X008214Y014786D02*
X008472Y014786D01*
X008472Y014827D02*
X008214Y014827D01*
X008214Y014868D02*
X008472Y014868D01*
X008472Y014909D02*
X008214Y014909D01*
X008214Y014950D02*
X008472Y014950D01*
X008472Y014991D02*
X008214Y014991D01*
X008214Y015032D02*
X008472Y015032D01*
X008472Y015073D02*
X008214Y015073D01*
X008214Y015114D02*
X008472Y015114D01*
X008472Y015155D02*
X008214Y015155D01*
X008214Y015196D02*
X008472Y015196D01*
X008472Y015237D02*
X008214Y015237D01*
X008214Y015278D02*
X008472Y015278D01*
X008472Y015319D02*
X008214Y015319D01*
X008214Y015360D02*
X008472Y015360D01*
X008472Y015401D02*
X008214Y015401D01*
X008214Y015442D02*
X008472Y015442D01*
X008714Y015461D02*
X008972Y015461D01*
X008972Y014663D01*
X008714Y014663D01*
X008714Y015461D01*
X008714Y014704D02*
X008972Y014704D01*
X008972Y014745D02*
X008714Y014745D01*
X008714Y014786D02*
X008972Y014786D01*
X008972Y014827D02*
X008714Y014827D01*
X008714Y014868D02*
X008972Y014868D01*
X008972Y014909D02*
X008714Y014909D01*
X008714Y014950D02*
X008972Y014950D01*
X008972Y014991D02*
X008714Y014991D01*
X008714Y015032D02*
X008972Y015032D01*
X008972Y015073D02*
X008714Y015073D01*
X008714Y015114D02*
X008972Y015114D01*
X008972Y015155D02*
X008714Y015155D01*
X008714Y015196D02*
X008972Y015196D01*
X008972Y015237D02*
X008714Y015237D01*
X008714Y015278D02*
X008972Y015278D01*
X008972Y015319D02*
X008714Y015319D01*
X008714Y015360D02*
X008972Y015360D01*
X008972Y015401D02*
X008714Y015401D01*
X008714Y015442D02*
X008972Y015442D01*
X009214Y015461D02*
X009472Y015461D01*
X009472Y014663D01*
X009214Y014663D01*
X009214Y015461D01*
X009214Y014704D02*
X009472Y014704D01*
X009472Y014745D02*
X009214Y014745D01*
X009214Y014786D02*
X009472Y014786D01*
X009472Y014827D02*
X009214Y014827D01*
X009214Y014868D02*
X009472Y014868D01*
X009472Y014909D02*
X009214Y014909D01*
X009214Y014950D02*
X009472Y014950D01*
X009472Y014991D02*
X009214Y014991D01*
X009214Y015032D02*
X009472Y015032D01*
X009472Y015073D02*
X009214Y015073D01*
X009214Y015114D02*
X009472Y015114D01*
X009472Y015155D02*
X009214Y015155D01*
X009214Y015196D02*
X009472Y015196D01*
X009472Y015237D02*
X009214Y015237D01*
X009214Y015278D02*
X009472Y015278D01*
X009472Y015319D02*
X009214Y015319D01*
X009214Y015360D02*
X009472Y015360D01*
X009472Y015401D02*
X009214Y015401D01*
X009214Y015442D02*
X009472Y015442D01*
X009714Y015461D02*
X009972Y015461D01*
X009972Y014663D01*
X009714Y014663D01*
X009714Y015461D01*
X009714Y014704D02*
X009972Y014704D01*
X009972Y014745D02*
X009714Y014745D01*
X009714Y014786D02*
X009972Y014786D01*
X009972Y014827D02*
X009714Y014827D01*
X009714Y014868D02*
X009972Y014868D01*
X009972Y014909D02*
X009714Y014909D01*
X009714Y014950D02*
X009972Y014950D01*
X009972Y014991D02*
X009714Y014991D01*
X009714Y015032D02*
X009972Y015032D01*
X009972Y015073D02*
X009714Y015073D01*
X009714Y015114D02*
X009972Y015114D01*
X009972Y015155D02*
X009714Y015155D01*
X009714Y015196D02*
X009972Y015196D01*
X009972Y015237D02*
X009714Y015237D01*
X009714Y015278D02*
X009972Y015278D01*
X009972Y015319D02*
X009714Y015319D01*
X009714Y015360D02*
X009972Y015360D01*
X009972Y015401D02*
X009714Y015401D01*
X009714Y015442D02*
X009972Y015442D01*
X017854Y017071D02*
X018112Y017071D01*
X018112Y016273D01*
X017854Y016273D01*
X017854Y017071D01*
X017854Y016314D02*
X018112Y016314D01*
X018112Y016355D02*
X017854Y016355D01*
X017854Y016396D02*
X018112Y016396D01*
X018112Y016437D02*
X017854Y016437D01*
X017854Y016478D02*
X018112Y016478D01*
X018112Y016519D02*
X017854Y016519D01*
X017854Y016560D02*
X018112Y016560D01*
X018112Y016601D02*
X017854Y016601D01*
X017854Y016642D02*
X018112Y016642D01*
X018112Y016683D02*
X017854Y016683D01*
X017854Y016724D02*
X018112Y016724D01*
X018112Y016765D02*
X017854Y016765D01*
X017854Y016806D02*
X018112Y016806D01*
X018112Y016847D02*
X017854Y016847D01*
X017854Y016888D02*
X018112Y016888D01*
X018112Y016929D02*
X017854Y016929D01*
X017854Y016970D02*
X018112Y016970D01*
X018112Y017011D02*
X017854Y017011D01*
X017854Y017052D02*
X018112Y017052D01*
X018354Y017071D02*
X018612Y017071D01*
X018612Y016273D01*
X018354Y016273D01*
X018354Y017071D01*
X018354Y016314D02*
X018612Y016314D01*
X018612Y016355D02*
X018354Y016355D01*
X018354Y016396D02*
X018612Y016396D01*
X018612Y016437D02*
X018354Y016437D01*
X018354Y016478D02*
X018612Y016478D01*
X018612Y016519D02*
X018354Y016519D01*
X018354Y016560D02*
X018612Y016560D01*
X018612Y016601D02*
X018354Y016601D01*
X018354Y016642D02*
X018612Y016642D01*
X018612Y016683D02*
X018354Y016683D01*
X018354Y016724D02*
X018612Y016724D01*
X018612Y016765D02*
X018354Y016765D01*
X018354Y016806D02*
X018612Y016806D01*
X018612Y016847D02*
X018354Y016847D01*
X018354Y016888D02*
X018612Y016888D01*
X018612Y016929D02*
X018354Y016929D01*
X018354Y016970D02*
X018612Y016970D01*
X018612Y017011D02*
X018354Y017011D01*
X018354Y017052D02*
X018612Y017052D01*
X018854Y017071D02*
X019112Y017071D01*
X019112Y016273D01*
X018854Y016273D01*
X018854Y017071D01*
X018854Y016314D02*
X019112Y016314D01*
X019112Y016355D02*
X018854Y016355D01*
X018854Y016396D02*
X019112Y016396D01*
X019112Y016437D02*
X018854Y016437D01*
X018854Y016478D02*
X019112Y016478D01*
X019112Y016519D02*
X018854Y016519D01*
X018854Y016560D02*
X019112Y016560D01*
X019112Y016601D02*
X018854Y016601D01*
X018854Y016642D02*
X019112Y016642D01*
X019112Y016683D02*
X018854Y016683D01*
X018854Y016724D02*
X019112Y016724D01*
X019112Y016765D02*
X018854Y016765D01*
X018854Y016806D02*
X019112Y016806D01*
X019112Y016847D02*
X018854Y016847D01*
X018854Y016888D02*
X019112Y016888D01*
X019112Y016929D02*
X018854Y016929D01*
X018854Y016970D02*
X019112Y016970D01*
X019112Y017011D02*
X018854Y017011D01*
X018854Y017052D02*
X019112Y017052D01*
X019354Y017071D02*
X019612Y017071D01*
X019612Y016273D01*
X019354Y016273D01*
X019354Y017071D01*
X019354Y016314D02*
X019612Y016314D01*
X019612Y016355D02*
X019354Y016355D01*
X019354Y016396D02*
X019612Y016396D01*
X019612Y016437D02*
X019354Y016437D01*
X019354Y016478D02*
X019612Y016478D01*
X019612Y016519D02*
X019354Y016519D01*
X019354Y016560D02*
X019612Y016560D01*
X019612Y016601D02*
X019354Y016601D01*
X019354Y016642D02*
X019612Y016642D01*
X019612Y016683D02*
X019354Y016683D01*
X019354Y016724D02*
X019612Y016724D01*
X019612Y016765D02*
X019354Y016765D01*
X019354Y016806D02*
X019612Y016806D01*
X019612Y016847D02*
X019354Y016847D01*
X019354Y016888D02*
X019612Y016888D01*
X019612Y016929D02*
X019354Y016929D01*
X019354Y016970D02*
X019612Y016970D01*
X019612Y017011D02*
X019354Y017011D01*
X019354Y017052D02*
X019612Y017052D01*
X019612Y014571D02*
X019354Y014571D01*
X019612Y014571D02*
X019612Y013773D01*
X019354Y013773D01*
X019354Y014571D01*
X019354Y013814D02*
X019612Y013814D01*
X019612Y013855D02*
X019354Y013855D01*
X019354Y013896D02*
X019612Y013896D01*
X019612Y013937D02*
X019354Y013937D01*
X019354Y013978D02*
X019612Y013978D01*
X019612Y014019D02*
X019354Y014019D01*
X019354Y014060D02*
X019612Y014060D01*
X019612Y014101D02*
X019354Y014101D01*
X019354Y014142D02*
X019612Y014142D01*
X019612Y014183D02*
X019354Y014183D01*
X019354Y014224D02*
X019612Y014224D01*
X019612Y014265D02*
X019354Y014265D01*
X019354Y014306D02*
X019612Y014306D01*
X019612Y014347D02*
X019354Y014347D01*
X019354Y014388D02*
X019612Y014388D01*
X019612Y014429D02*
X019354Y014429D01*
X019354Y014470D02*
X019612Y014470D01*
X019612Y014511D02*
X019354Y014511D01*
X019354Y014552D02*
X019612Y014552D01*
X019112Y014571D02*
X018854Y014571D01*
X019112Y014571D02*
X019112Y013773D01*
X018854Y013773D01*
X018854Y014571D01*
X018854Y013814D02*
X019112Y013814D01*
X019112Y013855D02*
X018854Y013855D01*
X018854Y013896D02*
X019112Y013896D01*
X019112Y013937D02*
X018854Y013937D01*
X018854Y013978D02*
X019112Y013978D01*
X019112Y014019D02*
X018854Y014019D01*
X018854Y014060D02*
X019112Y014060D01*
X019112Y014101D02*
X018854Y014101D01*
X018854Y014142D02*
X019112Y014142D01*
X019112Y014183D02*
X018854Y014183D01*
X018854Y014224D02*
X019112Y014224D01*
X019112Y014265D02*
X018854Y014265D01*
X018854Y014306D02*
X019112Y014306D01*
X019112Y014347D02*
X018854Y014347D01*
X018854Y014388D02*
X019112Y014388D01*
X019112Y014429D02*
X018854Y014429D01*
X018854Y014470D02*
X019112Y014470D01*
X019112Y014511D02*
X018854Y014511D01*
X018854Y014552D02*
X019112Y014552D01*
X018612Y014571D02*
X018354Y014571D01*
X018612Y014571D02*
X018612Y013773D01*
X018354Y013773D01*
X018354Y014571D01*
X018354Y013814D02*
X018612Y013814D01*
X018612Y013855D02*
X018354Y013855D01*
X018354Y013896D02*
X018612Y013896D01*
X018612Y013937D02*
X018354Y013937D01*
X018354Y013978D02*
X018612Y013978D01*
X018612Y014019D02*
X018354Y014019D01*
X018354Y014060D02*
X018612Y014060D01*
X018612Y014101D02*
X018354Y014101D01*
X018354Y014142D02*
X018612Y014142D01*
X018612Y014183D02*
X018354Y014183D01*
X018354Y014224D02*
X018612Y014224D01*
X018612Y014265D02*
X018354Y014265D01*
X018354Y014306D02*
X018612Y014306D01*
X018612Y014347D02*
X018354Y014347D01*
X018354Y014388D02*
X018612Y014388D01*
X018612Y014429D02*
X018354Y014429D01*
X018354Y014470D02*
X018612Y014470D01*
X018612Y014511D02*
X018354Y014511D01*
X018354Y014552D02*
X018612Y014552D01*
X018112Y014571D02*
X017854Y014571D01*
X018112Y014571D02*
X018112Y013773D01*
X017854Y013773D01*
X017854Y014571D01*
X017854Y013814D02*
X018112Y013814D01*
X018112Y013855D02*
X017854Y013855D01*
X017854Y013896D02*
X018112Y013896D01*
X018112Y013937D02*
X017854Y013937D01*
X017854Y013978D02*
X018112Y013978D01*
X018112Y014019D02*
X017854Y014019D01*
X017854Y014060D02*
X018112Y014060D01*
X018112Y014101D02*
X017854Y014101D01*
X017854Y014142D02*
X018112Y014142D01*
X018112Y014183D02*
X017854Y014183D01*
X017854Y014224D02*
X018112Y014224D01*
X018112Y014265D02*
X017854Y014265D01*
X017854Y014306D02*
X018112Y014306D01*
X018112Y014347D02*
X017854Y014347D01*
X017854Y014388D02*
X018112Y014388D01*
X018112Y014429D02*
X017854Y014429D01*
X017854Y014470D02*
X018112Y014470D01*
X018112Y014511D02*
X017854Y014511D01*
X017854Y014552D02*
X018112Y014552D01*
D19*
X009869Y008238D02*
X009651Y008238D01*
X009651Y008736D01*
X009869Y008736D01*
X009869Y008238D01*
X009869Y008279D02*
X009651Y008279D01*
X009651Y008320D02*
X009869Y008320D01*
X009869Y008361D02*
X009651Y008361D01*
X009651Y008402D02*
X009869Y008402D01*
X009869Y008443D02*
X009651Y008443D01*
X009651Y008484D02*
X009869Y008484D01*
X009869Y008525D02*
X009651Y008525D01*
X009651Y008566D02*
X009869Y008566D01*
X009869Y008607D02*
X009651Y008607D01*
X009651Y008648D02*
X009869Y008648D01*
X009869Y008689D02*
X009651Y008689D01*
X009651Y008730D02*
X009869Y008730D01*
X009554Y008238D02*
X009336Y008238D01*
X009336Y008736D01*
X009554Y008736D01*
X009554Y008238D01*
X009554Y008279D02*
X009336Y008279D01*
X009336Y008320D02*
X009554Y008320D01*
X009554Y008361D02*
X009336Y008361D01*
X009336Y008402D02*
X009554Y008402D01*
X009554Y008443D02*
X009336Y008443D01*
X009336Y008484D02*
X009554Y008484D01*
X009554Y008525D02*
X009336Y008525D01*
X009336Y008566D02*
X009554Y008566D01*
X009554Y008607D02*
X009336Y008607D01*
X009336Y008648D02*
X009554Y008648D01*
X009554Y008689D02*
X009336Y008689D01*
X009336Y008730D02*
X009554Y008730D01*
X009239Y008238D02*
X009021Y008238D01*
X009021Y008736D01*
X009239Y008736D01*
X009239Y008238D01*
X009239Y008279D02*
X009021Y008279D01*
X009021Y008320D02*
X009239Y008320D01*
X009239Y008361D02*
X009021Y008361D01*
X009021Y008402D02*
X009239Y008402D01*
X009239Y008443D02*
X009021Y008443D01*
X009021Y008484D02*
X009239Y008484D01*
X009239Y008525D02*
X009021Y008525D01*
X009021Y008566D02*
X009239Y008566D01*
X009239Y008607D02*
X009021Y008607D01*
X009021Y008648D02*
X009239Y008648D01*
X009239Y008689D02*
X009021Y008689D01*
X009021Y008730D02*
X009239Y008730D01*
X008924Y008238D02*
X008706Y008238D01*
X008706Y008736D01*
X008924Y008736D01*
X008924Y008238D01*
X008924Y008279D02*
X008706Y008279D01*
X008706Y008320D02*
X008924Y008320D01*
X008924Y008361D02*
X008706Y008361D01*
X008706Y008402D02*
X008924Y008402D01*
X008924Y008443D02*
X008706Y008443D01*
X008706Y008484D02*
X008924Y008484D01*
X008924Y008525D02*
X008706Y008525D01*
X008706Y008566D02*
X008924Y008566D01*
X008924Y008607D02*
X008706Y008607D01*
X008706Y008648D02*
X008924Y008648D01*
X008924Y008689D02*
X008706Y008689D01*
X008706Y008730D02*
X008924Y008730D01*
X008609Y008238D02*
X008391Y008238D01*
X008391Y008736D01*
X008609Y008736D01*
X008609Y008238D01*
X008609Y008279D02*
X008391Y008279D01*
X008391Y008320D02*
X008609Y008320D01*
X008609Y008361D02*
X008391Y008361D01*
X008391Y008402D02*
X008609Y008402D01*
X008609Y008443D02*
X008391Y008443D01*
X008391Y008484D02*
X008609Y008484D01*
X008609Y008525D02*
X008391Y008525D01*
X008391Y008566D02*
X008609Y008566D01*
X008609Y008607D02*
X008391Y008607D01*
X008391Y008648D02*
X008609Y008648D01*
X008609Y008689D02*
X008391Y008689D01*
X008391Y008730D02*
X008609Y008730D01*
X008294Y008238D02*
X008076Y008238D01*
X008076Y008736D01*
X008294Y008736D01*
X008294Y008238D01*
X008294Y008279D02*
X008076Y008279D01*
X008076Y008320D02*
X008294Y008320D01*
X008294Y008361D02*
X008076Y008361D01*
X008076Y008402D02*
X008294Y008402D01*
X008294Y008443D02*
X008076Y008443D01*
X008076Y008484D02*
X008294Y008484D01*
X008294Y008525D02*
X008076Y008525D01*
X008076Y008566D02*
X008294Y008566D01*
X008294Y008607D02*
X008076Y008607D01*
X008076Y008648D02*
X008294Y008648D01*
X008294Y008689D02*
X008076Y008689D01*
X008076Y008730D02*
X008294Y008730D01*
X007979Y008238D02*
X007761Y008238D01*
X007761Y008736D01*
X007979Y008736D01*
X007979Y008238D01*
X007979Y008279D02*
X007761Y008279D01*
X007761Y008320D02*
X007979Y008320D01*
X007979Y008361D02*
X007761Y008361D01*
X007761Y008402D02*
X007979Y008402D01*
X007979Y008443D02*
X007761Y008443D01*
X007761Y008484D02*
X007979Y008484D01*
X007979Y008525D02*
X007761Y008525D01*
X007761Y008566D02*
X007979Y008566D01*
X007979Y008607D02*
X007761Y008607D01*
X007761Y008648D02*
X007979Y008648D01*
X007979Y008689D02*
X007761Y008689D01*
X007761Y008730D02*
X007979Y008730D01*
X007664Y008238D02*
X007446Y008238D01*
X007446Y008736D01*
X007664Y008736D01*
X007664Y008238D01*
X007664Y008279D02*
X007446Y008279D01*
X007446Y008320D02*
X007664Y008320D01*
X007664Y008361D02*
X007446Y008361D01*
X007446Y008402D02*
X007664Y008402D01*
X007664Y008443D02*
X007446Y008443D01*
X007446Y008484D02*
X007664Y008484D01*
X007664Y008525D02*
X007446Y008525D01*
X007446Y008566D02*
X007664Y008566D01*
X007664Y008607D02*
X007446Y008607D01*
X007446Y008648D02*
X007664Y008648D01*
X007664Y008689D02*
X007446Y008689D01*
X007446Y008730D02*
X007664Y008730D01*
X007217Y007790D02*
X006719Y007790D01*
X006719Y008008D01*
X007217Y008008D01*
X007217Y007790D01*
X007217Y007831D02*
X006719Y007831D01*
X006719Y007872D02*
X007217Y007872D01*
X007217Y007913D02*
X006719Y007913D01*
X006719Y007954D02*
X007217Y007954D01*
X007217Y007995D02*
X006719Y007995D01*
X006719Y007475D02*
X007217Y007475D01*
X006719Y007475D02*
X006719Y007693D01*
X007217Y007693D01*
X007217Y007475D01*
X007217Y007516D02*
X006719Y007516D01*
X006719Y007557D02*
X007217Y007557D01*
X007217Y007598D02*
X006719Y007598D01*
X006719Y007639D02*
X007217Y007639D01*
X007217Y007680D02*
X006719Y007680D01*
X006719Y007160D02*
X007217Y007160D01*
X006719Y007160D02*
X006719Y007378D01*
X007217Y007378D01*
X007217Y007160D01*
X007217Y007201D02*
X006719Y007201D01*
X006719Y007242D02*
X007217Y007242D01*
X007217Y007283D02*
X006719Y007283D01*
X006719Y007324D02*
X007217Y007324D01*
X007217Y007365D02*
X006719Y007365D01*
X006719Y006845D02*
X007217Y006845D01*
X006719Y006845D02*
X006719Y007063D01*
X007217Y007063D01*
X007217Y006845D01*
X007217Y006886D02*
X006719Y006886D01*
X006719Y006927D02*
X007217Y006927D01*
X007217Y006968D02*
X006719Y006968D01*
X006719Y007009D02*
X007217Y007009D01*
X007217Y007050D02*
X006719Y007050D01*
X006719Y006530D02*
X007217Y006530D01*
X006719Y006530D02*
X006719Y006748D01*
X007217Y006748D01*
X007217Y006530D01*
X007217Y006571D02*
X006719Y006571D01*
X006719Y006612D02*
X007217Y006612D01*
X007217Y006653D02*
X006719Y006653D01*
X006719Y006694D02*
X007217Y006694D01*
X007217Y006735D02*
X006719Y006735D01*
X006719Y006215D02*
X007217Y006215D01*
X006719Y006215D02*
X006719Y006433D01*
X007217Y006433D01*
X007217Y006215D01*
X007217Y006256D02*
X006719Y006256D01*
X006719Y006297D02*
X007217Y006297D01*
X007217Y006338D02*
X006719Y006338D01*
X006719Y006379D02*
X007217Y006379D01*
X007217Y006420D02*
X006719Y006420D01*
X006719Y005900D02*
X007217Y005900D01*
X006719Y005900D02*
X006719Y006118D01*
X007217Y006118D01*
X007217Y005900D01*
X007217Y005941D02*
X006719Y005941D01*
X006719Y005982D02*
X007217Y005982D01*
X007217Y006023D02*
X006719Y006023D01*
X006719Y006064D02*
X007217Y006064D01*
X007217Y006105D02*
X006719Y006105D01*
X006719Y005585D02*
X007217Y005585D01*
X006719Y005585D02*
X006719Y005803D01*
X007217Y005803D01*
X007217Y005585D01*
X007217Y005626D02*
X006719Y005626D01*
X006719Y005667D02*
X007217Y005667D01*
X007217Y005708D02*
X006719Y005708D01*
X006719Y005749D02*
X007217Y005749D01*
X007217Y005790D02*
X006719Y005790D01*
X007446Y004858D02*
X007664Y004858D01*
X007446Y004858D02*
X007446Y005356D01*
X007664Y005356D01*
X007664Y004858D01*
X007664Y004899D02*
X007446Y004899D01*
X007446Y004940D02*
X007664Y004940D01*
X007664Y004981D02*
X007446Y004981D01*
X007446Y005022D02*
X007664Y005022D01*
X007664Y005063D02*
X007446Y005063D01*
X007446Y005104D02*
X007664Y005104D01*
X007664Y005145D02*
X007446Y005145D01*
X007446Y005186D02*
X007664Y005186D01*
X007664Y005227D02*
X007446Y005227D01*
X007446Y005268D02*
X007664Y005268D01*
X007664Y005309D02*
X007446Y005309D01*
X007446Y005350D02*
X007664Y005350D01*
X007761Y004858D02*
X007979Y004858D01*
X007761Y004858D02*
X007761Y005356D01*
X007979Y005356D01*
X007979Y004858D01*
X007979Y004899D02*
X007761Y004899D01*
X007761Y004940D02*
X007979Y004940D01*
X007979Y004981D02*
X007761Y004981D01*
X007761Y005022D02*
X007979Y005022D01*
X007979Y005063D02*
X007761Y005063D01*
X007761Y005104D02*
X007979Y005104D01*
X007979Y005145D02*
X007761Y005145D01*
X007761Y005186D02*
X007979Y005186D01*
X007979Y005227D02*
X007761Y005227D01*
X007761Y005268D02*
X007979Y005268D01*
X007979Y005309D02*
X007761Y005309D01*
X007761Y005350D02*
X007979Y005350D01*
X008076Y004858D02*
X008294Y004858D01*
X008076Y004858D02*
X008076Y005356D01*
X008294Y005356D01*
X008294Y004858D01*
X008294Y004899D02*
X008076Y004899D01*
X008076Y004940D02*
X008294Y004940D01*
X008294Y004981D02*
X008076Y004981D01*
X008076Y005022D02*
X008294Y005022D01*
X008294Y005063D02*
X008076Y005063D01*
X008076Y005104D02*
X008294Y005104D01*
X008294Y005145D02*
X008076Y005145D01*
X008076Y005186D02*
X008294Y005186D01*
X008294Y005227D02*
X008076Y005227D01*
X008076Y005268D02*
X008294Y005268D01*
X008294Y005309D02*
X008076Y005309D01*
X008076Y005350D02*
X008294Y005350D01*
X008391Y004858D02*
X008609Y004858D01*
X008391Y004858D02*
X008391Y005356D01*
X008609Y005356D01*
X008609Y004858D01*
X008609Y004899D02*
X008391Y004899D01*
X008391Y004940D02*
X008609Y004940D01*
X008609Y004981D02*
X008391Y004981D01*
X008391Y005022D02*
X008609Y005022D01*
X008609Y005063D02*
X008391Y005063D01*
X008391Y005104D02*
X008609Y005104D01*
X008609Y005145D02*
X008391Y005145D01*
X008391Y005186D02*
X008609Y005186D01*
X008609Y005227D02*
X008391Y005227D01*
X008391Y005268D02*
X008609Y005268D01*
X008609Y005309D02*
X008391Y005309D01*
X008391Y005350D02*
X008609Y005350D01*
X008706Y004858D02*
X008924Y004858D01*
X008706Y004858D02*
X008706Y005356D01*
X008924Y005356D01*
X008924Y004858D01*
X008924Y004899D02*
X008706Y004899D01*
X008706Y004940D02*
X008924Y004940D01*
X008924Y004981D02*
X008706Y004981D01*
X008706Y005022D02*
X008924Y005022D01*
X008924Y005063D02*
X008706Y005063D01*
X008706Y005104D02*
X008924Y005104D01*
X008924Y005145D02*
X008706Y005145D01*
X008706Y005186D02*
X008924Y005186D01*
X008924Y005227D02*
X008706Y005227D01*
X008706Y005268D02*
X008924Y005268D01*
X008924Y005309D02*
X008706Y005309D01*
X008706Y005350D02*
X008924Y005350D01*
X009021Y004858D02*
X009239Y004858D01*
X009021Y004858D02*
X009021Y005356D01*
X009239Y005356D01*
X009239Y004858D01*
X009239Y004899D02*
X009021Y004899D01*
X009021Y004940D02*
X009239Y004940D01*
X009239Y004981D02*
X009021Y004981D01*
X009021Y005022D02*
X009239Y005022D01*
X009239Y005063D02*
X009021Y005063D01*
X009021Y005104D02*
X009239Y005104D01*
X009239Y005145D02*
X009021Y005145D01*
X009021Y005186D02*
X009239Y005186D01*
X009239Y005227D02*
X009021Y005227D01*
X009021Y005268D02*
X009239Y005268D01*
X009239Y005309D02*
X009021Y005309D01*
X009021Y005350D02*
X009239Y005350D01*
X009336Y004858D02*
X009554Y004858D01*
X009336Y004858D02*
X009336Y005356D01*
X009554Y005356D01*
X009554Y004858D01*
X009554Y004899D02*
X009336Y004899D01*
X009336Y004940D02*
X009554Y004940D01*
X009554Y004981D02*
X009336Y004981D01*
X009336Y005022D02*
X009554Y005022D01*
X009554Y005063D02*
X009336Y005063D01*
X009336Y005104D02*
X009554Y005104D01*
X009554Y005145D02*
X009336Y005145D01*
X009336Y005186D02*
X009554Y005186D01*
X009554Y005227D02*
X009336Y005227D01*
X009336Y005268D02*
X009554Y005268D01*
X009554Y005309D02*
X009336Y005309D01*
X009336Y005350D02*
X009554Y005350D01*
X009651Y004858D02*
X009869Y004858D01*
X009651Y004858D02*
X009651Y005356D01*
X009869Y005356D01*
X009869Y004858D01*
X009869Y004899D02*
X009651Y004899D01*
X009651Y004940D02*
X009869Y004940D01*
X009869Y004981D02*
X009651Y004981D01*
X009651Y005022D02*
X009869Y005022D01*
X009869Y005063D02*
X009651Y005063D01*
X009651Y005104D02*
X009869Y005104D01*
X009869Y005145D02*
X009651Y005145D01*
X009651Y005186D02*
X009869Y005186D01*
X009869Y005227D02*
X009651Y005227D01*
X009651Y005268D02*
X009869Y005268D01*
X009869Y005309D02*
X009651Y005309D01*
X009651Y005350D02*
X009869Y005350D01*
X010099Y005585D02*
X010597Y005585D01*
X010099Y005585D02*
X010099Y005803D01*
X010597Y005803D01*
X010597Y005585D01*
X010597Y005626D02*
X010099Y005626D01*
X010099Y005667D02*
X010597Y005667D01*
X010597Y005708D02*
X010099Y005708D01*
X010099Y005749D02*
X010597Y005749D01*
X010597Y005790D02*
X010099Y005790D01*
X010099Y005900D02*
X010597Y005900D01*
X010099Y005900D02*
X010099Y006118D01*
X010597Y006118D01*
X010597Y005900D01*
X010597Y005941D02*
X010099Y005941D01*
X010099Y005982D02*
X010597Y005982D01*
X010597Y006023D02*
X010099Y006023D01*
X010099Y006064D02*
X010597Y006064D01*
X010597Y006105D02*
X010099Y006105D01*
X010099Y006215D02*
X010597Y006215D01*
X010099Y006215D02*
X010099Y006433D01*
X010597Y006433D01*
X010597Y006215D01*
X010597Y006256D02*
X010099Y006256D01*
X010099Y006297D02*
X010597Y006297D01*
X010597Y006338D02*
X010099Y006338D01*
X010099Y006379D02*
X010597Y006379D01*
X010597Y006420D02*
X010099Y006420D01*
X010099Y006530D02*
X010597Y006530D01*
X010099Y006530D02*
X010099Y006748D01*
X010597Y006748D01*
X010597Y006530D01*
X010597Y006571D02*
X010099Y006571D01*
X010099Y006612D02*
X010597Y006612D01*
X010597Y006653D02*
X010099Y006653D01*
X010099Y006694D02*
X010597Y006694D01*
X010597Y006735D02*
X010099Y006735D01*
X010099Y006845D02*
X010597Y006845D01*
X010099Y006845D02*
X010099Y007063D01*
X010597Y007063D01*
X010597Y006845D01*
X010597Y006886D02*
X010099Y006886D01*
X010099Y006927D02*
X010597Y006927D01*
X010597Y006968D02*
X010099Y006968D01*
X010099Y007009D02*
X010597Y007009D01*
X010597Y007050D02*
X010099Y007050D01*
X010099Y007160D02*
X010597Y007160D01*
X010099Y007160D02*
X010099Y007378D01*
X010597Y007378D01*
X010597Y007160D01*
X010597Y007201D02*
X010099Y007201D01*
X010099Y007242D02*
X010597Y007242D01*
X010597Y007283D02*
X010099Y007283D01*
X010099Y007324D02*
X010597Y007324D01*
X010597Y007365D02*
X010099Y007365D01*
X010099Y007475D02*
X010597Y007475D01*
X010099Y007475D02*
X010099Y007693D01*
X010597Y007693D01*
X010597Y007475D01*
X010597Y007516D02*
X010099Y007516D01*
X010099Y007557D02*
X010597Y007557D01*
X010597Y007598D02*
X010099Y007598D01*
X010099Y007639D02*
X010597Y007639D01*
X010597Y007680D02*
X010099Y007680D01*
X010099Y007790D02*
X010597Y007790D01*
X010099Y007790D02*
X010099Y008008D01*
X010597Y008008D01*
X010597Y007790D01*
X010597Y007831D02*
X010099Y007831D01*
X010099Y007872D02*
X010597Y007872D01*
X010597Y007913D02*
X010099Y007913D01*
X010099Y007954D02*
X010597Y007954D01*
X010597Y007995D02*
X010099Y007995D01*
D20*
X002369Y018173D03*
D21*
X006370Y019187D03*
X011370Y019178D03*
X011373Y018182D03*
X016373Y015182D03*
X018232Y017916D03*
X016371Y012182D03*
X018233Y011922D03*
X015583Y007652D03*
X014483Y007652D03*
X016883Y006995D03*
X016883Y005895D03*
X016883Y004795D03*
X016883Y003698D03*
X013283Y002852D03*
X012183Y002852D03*
X011083Y002852D03*
X009983Y002852D03*
X002983Y002582D03*
X002983Y004185D03*
X002983Y005288D03*
X002983Y006785D03*
X002983Y007889D03*
X002982Y009582D03*
D22*
X012300Y015505D02*
X012886Y015505D01*
X012886Y014719D01*
X012300Y014719D01*
X012300Y015505D01*
X012300Y014762D02*
X012886Y014762D01*
X012886Y014805D02*
X012300Y014805D01*
X012300Y014848D02*
X012886Y014848D01*
X012886Y014891D02*
X012300Y014891D01*
X012300Y014934D02*
X012886Y014934D01*
X012886Y014977D02*
X012300Y014977D01*
X012300Y015020D02*
X012886Y015020D01*
X012886Y015063D02*
X012300Y015063D01*
X012300Y015106D02*
X012886Y015106D01*
X012886Y015149D02*
X012300Y015149D01*
X012300Y015192D02*
X012886Y015192D01*
X012886Y015235D02*
X012300Y015235D01*
X012300Y015278D02*
X012886Y015278D01*
X012886Y015321D02*
X012300Y015321D01*
X012300Y015364D02*
X012886Y015364D01*
X012886Y015407D02*
X012300Y015407D01*
X012300Y015450D02*
X012886Y015450D01*
X012886Y015493D02*
X012300Y015493D01*
X013200Y015505D02*
X013786Y015505D01*
X013786Y014719D01*
X013200Y014719D01*
X013200Y015505D01*
X013200Y014762D02*
X013786Y014762D01*
X013786Y014805D02*
X013200Y014805D01*
X013200Y014848D02*
X013786Y014848D01*
X013786Y014891D02*
X013200Y014891D01*
X013200Y014934D02*
X013786Y014934D01*
X013786Y014977D02*
X013200Y014977D01*
X013200Y015020D02*
X013786Y015020D01*
X013786Y015063D02*
X013200Y015063D01*
X013200Y015106D02*
X013786Y015106D01*
X013786Y015149D02*
X013200Y015149D01*
X013200Y015192D02*
X013786Y015192D01*
X013786Y015235D02*
X013200Y015235D01*
X013200Y015278D02*
X013786Y015278D01*
X013786Y015321D02*
X013200Y015321D01*
X013200Y015364D02*
X013786Y015364D01*
X013786Y015407D02*
X013200Y015407D01*
X013200Y015450D02*
X013786Y015450D01*
X013786Y015493D02*
X013200Y015493D01*
X014100Y015505D02*
X014686Y015505D01*
X014686Y014719D01*
X014100Y014719D01*
X014100Y015505D01*
X014100Y014762D02*
X014686Y014762D01*
X014686Y014805D02*
X014100Y014805D01*
X014100Y014848D02*
X014686Y014848D01*
X014686Y014891D02*
X014100Y014891D01*
X014100Y014934D02*
X014686Y014934D01*
X014686Y014977D02*
X014100Y014977D01*
X014100Y015020D02*
X014686Y015020D01*
X014686Y015063D02*
X014100Y015063D01*
X014100Y015106D02*
X014686Y015106D01*
X014686Y015149D02*
X014100Y015149D01*
X014100Y015192D02*
X014686Y015192D01*
X014686Y015235D02*
X014100Y015235D01*
X014100Y015278D02*
X014686Y015278D01*
X014686Y015321D02*
X014100Y015321D01*
X014100Y015364D02*
X014686Y015364D01*
X014686Y015407D02*
X014100Y015407D01*
X014100Y015450D02*
X014686Y015450D01*
X014686Y015493D02*
X014100Y015493D01*
D23*
X014253Y013027D02*
X012753Y013027D01*
X014253Y013027D02*
X014253Y012237D01*
X012753Y012237D01*
X012753Y013027D01*
X012753Y012277D02*
X014253Y012277D01*
X014253Y012317D02*
X012753Y012317D01*
X012753Y012357D02*
X014253Y012357D01*
X014253Y012397D02*
X012753Y012397D01*
X012753Y012437D02*
X014253Y012437D01*
X014253Y012477D02*
X012753Y012477D01*
X012753Y012517D02*
X014253Y012517D01*
X014253Y012557D02*
X012753Y012557D01*
X012753Y012597D02*
X014253Y012597D01*
X014253Y012637D02*
X012753Y012637D01*
X012753Y012677D02*
X014253Y012677D01*
X014253Y012717D02*
X012753Y012717D01*
X012753Y012757D02*
X014253Y012757D01*
X014253Y012797D02*
X012753Y012797D01*
X012753Y012837D02*
X014253Y012837D01*
X014253Y012877D02*
X012753Y012877D01*
X012753Y012917D02*
X014253Y012917D01*
X014253Y012957D02*
X012753Y012957D01*
X012753Y012997D02*
X014253Y012997D01*
D24*
X015529Y013072D02*
X015529Y013502D01*
X015529Y013072D02*
X015137Y013072D01*
X015137Y013502D01*
X015529Y013502D01*
X015529Y013114D02*
X015137Y013114D01*
X015137Y013156D02*
X015529Y013156D01*
X015529Y013198D02*
X015137Y013198D01*
X015137Y013240D02*
X015529Y013240D01*
X015529Y013282D02*
X015137Y013282D01*
X015137Y013324D02*
X015529Y013324D01*
X015529Y013366D02*
X015137Y013366D01*
X015137Y013408D02*
X015529Y013408D01*
X015529Y013450D02*
X015137Y013450D01*
X015137Y013492D02*
X015529Y013492D01*
X015529Y013741D02*
X015529Y014171D01*
X015529Y013741D02*
X015137Y013741D01*
X015137Y014171D01*
X015529Y014171D01*
X015529Y013783D02*
X015137Y013783D01*
X015137Y013825D02*
X015529Y013825D01*
X015529Y013867D02*
X015137Y013867D01*
X015137Y013909D02*
X015529Y013909D01*
X015529Y013951D02*
X015137Y013951D01*
X015137Y013993D02*
X015529Y013993D01*
X015529Y014035D02*
X015137Y014035D01*
X015137Y014077D02*
X015529Y014077D01*
X015529Y014119D02*
X015137Y014119D01*
X015137Y014161D02*
X015529Y014161D01*
X015529Y014372D02*
X015529Y014802D01*
X015529Y014372D02*
X015137Y014372D01*
X015137Y014802D01*
X015529Y014802D01*
X015529Y014414D02*
X015137Y014414D01*
X015137Y014456D02*
X015529Y014456D01*
X015529Y014498D02*
X015137Y014498D01*
X015137Y014540D02*
X015529Y014540D01*
X015529Y014582D02*
X015137Y014582D01*
X015137Y014624D02*
X015529Y014624D01*
X015529Y014666D02*
X015137Y014666D01*
X015137Y014708D02*
X015529Y014708D01*
X015529Y014750D02*
X015137Y014750D01*
X015137Y014792D02*
X015529Y014792D01*
X015529Y015041D02*
X015529Y015471D01*
X015529Y015041D02*
X015137Y015041D01*
X015137Y015471D01*
X015529Y015471D01*
X015529Y015083D02*
X015137Y015083D01*
X015137Y015125D02*
X015529Y015125D01*
X015529Y015167D02*
X015137Y015167D01*
X015137Y015209D02*
X015529Y015209D01*
X015529Y015251D02*
X015137Y015251D01*
X015137Y015293D02*
X015529Y015293D01*
X015529Y015335D02*
X015137Y015335D01*
X015137Y015377D02*
X015529Y015377D01*
X015529Y015419D02*
X015137Y015419D01*
X015137Y015461D02*
X015529Y015461D01*
X007529Y013671D02*
X007529Y013241D01*
X007137Y013241D01*
X007137Y013671D01*
X007529Y013671D01*
X007529Y013283D02*
X007137Y013283D01*
X007137Y013325D02*
X007529Y013325D01*
X007529Y013367D02*
X007137Y013367D01*
X007137Y013409D02*
X007529Y013409D01*
X007529Y013451D02*
X007137Y013451D01*
X007137Y013493D02*
X007529Y013493D01*
X007529Y013535D02*
X007137Y013535D01*
X007137Y013577D02*
X007529Y013577D01*
X007529Y013619D02*
X007137Y013619D01*
X007137Y013661D02*
X007529Y013661D01*
X007529Y013002D02*
X007529Y012572D01*
X007137Y012572D01*
X007137Y013002D01*
X007529Y013002D01*
X007529Y012614D02*
X007137Y012614D01*
X007137Y012656D02*
X007529Y012656D01*
X007529Y012698D02*
X007137Y012698D01*
X007137Y012740D02*
X007529Y012740D01*
X007529Y012782D02*
X007137Y012782D01*
X007137Y012824D02*
X007529Y012824D01*
X007529Y012866D02*
X007137Y012866D01*
X007137Y012908D02*
X007529Y012908D01*
X007529Y012950D02*
X007137Y012950D01*
X007137Y012992D02*
X007529Y012992D01*
X002737Y012902D02*
X002737Y012472D01*
X002737Y012902D02*
X003129Y012902D01*
X003129Y012472D01*
X002737Y012472D01*
X002737Y012514D02*
X003129Y012514D01*
X003129Y012556D02*
X002737Y012556D01*
X002737Y012598D02*
X003129Y012598D01*
X003129Y012640D02*
X002737Y012640D01*
X002737Y012682D02*
X003129Y012682D01*
X003129Y012724D02*
X002737Y012724D01*
X002737Y012766D02*
X003129Y012766D01*
X003129Y012808D02*
X002737Y012808D01*
X002737Y012850D02*
X003129Y012850D01*
X003129Y012892D02*
X002737Y012892D01*
X002737Y013141D02*
X002737Y013571D01*
X003129Y013571D01*
X003129Y013141D01*
X002737Y013141D01*
X002737Y013183D02*
X003129Y013183D01*
X003129Y013225D02*
X002737Y013225D01*
X002737Y013267D02*
X003129Y013267D01*
X003129Y013309D02*
X002737Y013309D01*
X002737Y013351D02*
X003129Y013351D01*
X003129Y013393D02*
X002737Y013393D01*
X002737Y013435D02*
X003129Y013435D01*
X003129Y013477D02*
X002737Y013477D01*
X002737Y013519D02*
X003129Y013519D01*
X003129Y013561D02*
X002737Y013561D01*
M02*
