G75*
G70*
%OFA0B0*%
%FSLAX24Y24*%
%IPPOS*%
%LPD*%
%AMOC8*
5,1,8,0,0,1.08239X$1,22.5*
%
%ADD10C,0.0000*%
%ADD11C,0.1300*%
%ADD12C,0.0100*%
%ADD13C,0.0120*%
%ADD14OC8,0.0640*%
%ADD15C,0.0560*%
%ADD16C,0.0640*%
%ADD17R,0.0640X0.0640*%
%ADD18C,0.0040*%
%ADD19C,0.0041*%
%ADD20C,0.0040*%
%ADD21C,0.0044*%
D10*
X000873Y001262D02*
X000875Y001312D01*
X000881Y001362D01*
X000891Y001411D01*
X000905Y001459D01*
X000922Y001506D01*
X000943Y001551D01*
X000968Y001595D01*
X000996Y001636D01*
X001028Y001675D01*
X001062Y001712D01*
X001099Y001746D01*
X001139Y001776D01*
X001181Y001803D01*
X001225Y001827D01*
X001271Y001848D01*
X001318Y001864D01*
X001366Y001877D01*
X001416Y001886D01*
X001465Y001891D01*
X001516Y001892D01*
X001566Y001889D01*
X001615Y001882D01*
X001664Y001871D01*
X001712Y001856D01*
X001758Y001838D01*
X001803Y001816D01*
X001846Y001790D01*
X001887Y001761D01*
X001926Y001729D01*
X001962Y001694D01*
X001994Y001656D01*
X002024Y001616D01*
X002051Y001573D01*
X002074Y001529D01*
X002093Y001483D01*
X002109Y001435D01*
X002121Y001386D01*
X002129Y001337D01*
X002133Y001287D01*
X002133Y001237D01*
X002129Y001187D01*
X002121Y001138D01*
X002109Y001089D01*
X002093Y001041D01*
X002074Y000995D01*
X002051Y000951D01*
X002024Y000908D01*
X001994Y000868D01*
X001962Y000830D01*
X001926Y000795D01*
X001887Y000763D01*
X001846Y000734D01*
X001803Y000708D01*
X001758Y000686D01*
X001712Y000668D01*
X001664Y000653D01*
X001615Y000642D01*
X001566Y000635D01*
X001516Y000632D01*
X001465Y000633D01*
X001416Y000638D01*
X001366Y000647D01*
X001318Y000660D01*
X001271Y000676D01*
X001225Y000697D01*
X001181Y000721D01*
X001139Y000748D01*
X001099Y000778D01*
X001062Y000812D01*
X001028Y000849D01*
X000996Y000888D01*
X000968Y000929D01*
X000943Y000973D01*
X000922Y001018D01*
X000905Y001065D01*
X000891Y001113D01*
X000881Y001162D01*
X000875Y001212D01*
X000873Y001262D01*
X017663Y008992D02*
X017665Y009042D01*
X017671Y009092D01*
X017681Y009141D01*
X017695Y009189D01*
X017712Y009236D01*
X017733Y009281D01*
X017758Y009325D01*
X017786Y009366D01*
X017818Y009405D01*
X017852Y009442D01*
X017889Y009476D01*
X017929Y009506D01*
X017971Y009533D01*
X018015Y009557D01*
X018061Y009578D01*
X018108Y009594D01*
X018156Y009607D01*
X018206Y009616D01*
X018255Y009621D01*
X018306Y009622D01*
X018356Y009619D01*
X018405Y009612D01*
X018454Y009601D01*
X018502Y009586D01*
X018548Y009568D01*
X018593Y009546D01*
X018636Y009520D01*
X018677Y009491D01*
X018716Y009459D01*
X018752Y009424D01*
X018784Y009386D01*
X018814Y009346D01*
X018841Y009303D01*
X018864Y009259D01*
X018883Y009213D01*
X018899Y009165D01*
X018911Y009116D01*
X018919Y009067D01*
X018923Y009017D01*
X018923Y008967D01*
X018919Y008917D01*
X018911Y008868D01*
X018899Y008819D01*
X018883Y008771D01*
X018864Y008725D01*
X018841Y008681D01*
X018814Y008638D01*
X018784Y008598D01*
X018752Y008560D01*
X018716Y008525D01*
X018677Y008493D01*
X018636Y008464D01*
X018593Y008438D01*
X018548Y008416D01*
X018502Y008398D01*
X018454Y008383D01*
X018405Y008372D01*
X018356Y008365D01*
X018306Y008362D01*
X018255Y008363D01*
X018206Y008368D01*
X018156Y008377D01*
X018108Y008390D01*
X018061Y008406D01*
X018015Y008427D01*
X017971Y008451D01*
X017929Y008478D01*
X017889Y008508D01*
X017852Y008542D01*
X017818Y008579D01*
X017786Y008618D01*
X017758Y008659D01*
X017733Y008703D01*
X017712Y008748D01*
X017695Y008795D01*
X017681Y008843D01*
X017671Y008892D01*
X017665Y008942D01*
X017663Y008992D01*
X000573Y012032D02*
X000575Y012082D01*
X000581Y012132D01*
X000591Y012181D01*
X000605Y012229D01*
X000622Y012276D01*
X000643Y012321D01*
X000668Y012365D01*
X000696Y012406D01*
X000728Y012445D01*
X000762Y012482D01*
X000799Y012516D01*
X000839Y012546D01*
X000881Y012573D01*
X000925Y012597D01*
X000971Y012618D01*
X001018Y012634D01*
X001066Y012647D01*
X001116Y012656D01*
X001165Y012661D01*
X001216Y012662D01*
X001266Y012659D01*
X001315Y012652D01*
X001364Y012641D01*
X001412Y012626D01*
X001458Y012608D01*
X001503Y012586D01*
X001546Y012560D01*
X001587Y012531D01*
X001626Y012499D01*
X001662Y012464D01*
X001694Y012426D01*
X001724Y012386D01*
X001751Y012343D01*
X001774Y012299D01*
X001793Y012253D01*
X001809Y012205D01*
X001821Y012156D01*
X001829Y012107D01*
X001833Y012057D01*
X001833Y012007D01*
X001829Y011957D01*
X001821Y011908D01*
X001809Y011859D01*
X001793Y011811D01*
X001774Y011765D01*
X001751Y011721D01*
X001724Y011678D01*
X001694Y011638D01*
X001662Y011600D01*
X001626Y011565D01*
X001587Y011533D01*
X001546Y011504D01*
X001503Y011478D01*
X001458Y011456D01*
X001412Y011438D01*
X001364Y011423D01*
X001315Y011412D01*
X001266Y011405D01*
X001216Y011402D01*
X001165Y011403D01*
X001116Y011408D01*
X001066Y011417D01*
X001018Y011430D01*
X000971Y011446D01*
X000925Y011467D01*
X000881Y011491D01*
X000839Y011518D01*
X000799Y011548D01*
X000762Y011582D01*
X000728Y011619D01*
X000696Y011658D01*
X000668Y011699D01*
X000643Y011743D01*
X000622Y011788D01*
X000605Y011835D01*
X000591Y011883D01*
X000581Y011932D01*
X000575Y011982D01*
X000573Y012032D01*
X015493Y018952D02*
X015495Y019002D01*
X015501Y019052D01*
X015511Y019101D01*
X015525Y019149D01*
X015542Y019196D01*
X015563Y019241D01*
X015588Y019285D01*
X015616Y019326D01*
X015648Y019365D01*
X015682Y019402D01*
X015719Y019436D01*
X015759Y019466D01*
X015801Y019493D01*
X015845Y019517D01*
X015891Y019538D01*
X015938Y019554D01*
X015986Y019567D01*
X016036Y019576D01*
X016085Y019581D01*
X016136Y019582D01*
X016186Y019579D01*
X016235Y019572D01*
X016284Y019561D01*
X016332Y019546D01*
X016378Y019528D01*
X016423Y019506D01*
X016466Y019480D01*
X016507Y019451D01*
X016546Y019419D01*
X016582Y019384D01*
X016614Y019346D01*
X016644Y019306D01*
X016671Y019263D01*
X016694Y019219D01*
X016713Y019173D01*
X016729Y019125D01*
X016741Y019076D01*
X016749Y019027D01*
X016753Y018977D01*
X016753Y018927D01*
X016749Y018877D01*
X016741Y018828D01*
X016729Y018779D01*
X016713Y018731D01*
X016694Y018685D01*
X016671Y018641D01*
X016644Y018598D01*
X016614Y018558D01*
X016582Y018520D01*
X016546Y018485D01*
X016507Y018453D01*
X016466Y018424D01*
X016423Y018398D01*
X016378Y018376D01*
X016332Y018358D01*
X016284Y018343D01*
X016235Y018332D01*
X016186Y018325D01*
X016136Y018322D01*
X016085Y018323D01*
X016036Y018328D01*
X015986Y018337D01*
X015938Y018350D01*
X015891Y018366D01*
X015845Y018387D01*
X015801Y018411D01*
X015759Y018438D01*
X015719Y018468D01*
X015682Y018502D01*
X015648Y018539D01*
X015616Y018578D01*
X015588Y018619D01*
X015563Y018663D01*
X015542Y018708D01*
X015525Y018755D01*
X015511Y018803D01*
X015501Y018852D01*
X015495Y018902D01*
X015493Y018952D01*
D11*
X016123Y018952D03*
X001203Y012032D03*
X018293Y008992D03*
X001503Y001262D03*
D12*
X000333Y000222D02*
X000333Y019822D01*
X017533Y019822D01*
X019933Y019822D01*
X019933Y011122D01*
X019933Y000222D01*
X000333Y000222D01*
D13*
X017533Y011122D02*
X017533Y019822D01*
X017533Y011122D02*
X019933Y011122D01*
D14*
X019233Y011922D03*
X019233Y012922D03*
X018233Y012922D03*
X016371Y013182D03*
X016371Y014182D03*
X016373Y016182D03*
X015363Y016182D03*
X014363Y016182D03*
X013363Y016182D03*
X012363Y016182D03*
X011363Y016182D03*
X010363Y016182D03*
X009363Y016182D03*
X008363Y016182D03*
X007363Y016182D03*
X006363Y016182D03*
X005363Y016182D03*
X004363Y016182D03*
X003363Y016182D03*
X003363Y017182D03*
X004363Y017182D03*
X005363Y017182D03*
X006363Y017182D03*
X007363Y017182D03*
X008363Y017182D03*
X009363Y017182D03*
X010363Y017182D03*
X011363Y017182D03*
X012363Y017182D03*
X013363Y017182D03*
X014363Y017182D03*
X015363Y017182D03*
X016373Y017182D03*
X014373Y018182D03*
X013373Y018182D03*
X012373Y018182D03*
X012370Y019178D03*
X013370Y019178D03*
X014370Y019178D03*
X018232Y018916D03*
X019232Y018916D03*
X019232Y017916D03*
X009370Y019187D03*
X008370Y019187D03*
X007370Y019187D03*
X004369Y019173D03*
X003369Y019173D03*
X002369Y019173D03*
X003369Y018173D03*
X004369Y018173D03*
X014483Y009652D03*
X015583Y009652D03*
X015583Y008652D03*
X014483Y008652D03*
X017883Y006995D03*
X018883Y006995D03*
X018883Y005895D03*
X017883Y005895D03*
X017883Y004795D03*
X018883Y004795D03*
X018883Y003698D03*
X017883Y003698D03*
X017878Y001852D03*
X016878Y001852D03*
X016878Y000852D03*
X017878Y000852D03*
X018878Y000852D03*
X018878Y001852D03*
X013283Y001852D03*
X012183Y001852D03*
X011083Y001852D03*
X009983Y001852D03*
X009983Y000852D03*
X011083Y000852D03*
X012183Y000852D03*
X013283Y000852D03*
X001983Y002582D03*
X000983Y002582D03*
X000983Y004185D03*
X001983Y004185D03*
X001983Y005288D03*
X000983Y005288D03*
X000983Y006785D03*
X001983Y006785D03*
X001983Y007889D03*
X000983Y007889D03*
X000982Y009582D03*
X001982Y009582D03*
D15*
X005894Y003407D03*
X007794Y003407D03*
D16*
X002369Y018173D03*
D17*
X006370Y019187D03*
X011370Y019178D03*
X011373Y018182D03*
X016373Y015182D03*
X018232Y017916D03*
X016371Y012182D03*
X018233Y011922D03*
X015583Y007652D03*
X014483Y007652D03*
X016883Y006995D03*
X016883Y005895D03*
X016883Y004795D03*
X016883Y003698D03*
X013283Y002852D03*
X012183Y002852D03*
X011083Y002852D03*
X009983Y002852D03*
X002983Y002582D03*
X002983Y004185D03*
X002983Y005288D03*
X002983Y006785D03*
X002983Y007889D03*
X002982Y009582D03*
D18*
X003903Y011907D02*
X004363Y011907D01*
X003903Y011907D02*
X003903Y012537D01*
X004363Y012537D01*
X004363Y011907D01*
X004363Y011946D02*
X003903Y011946D01*
X003903Y011985D02*
X004363Y011985D01*
X004363Y012024D02*
X003903Y012024D01*
X003903Y012063D02*
X004363Y012063D01*
X004363Y012102D02*
X003903Y012102D01*
X003903Y012141D02*
X004363Y012141D01*
X004363Y012180D02*
X003903Y012180D01*
X003903Y012219D02*
X004363Y012219D01*
X004363Y012258D02*
X003903Y012258D01*
X003903Y012297D02*
X004363Y012297D01*
X004363Y012336D02*
X003903Y012336D01*
X003903Y012375D02*
X004363Y012375D01*
X004363Y012414D02*
X003903Y012414D01*
X003903Y012453D02*
X004363Y012453D01*
X004363Y012492D02*
X003903Y012492D01*
X003903Y012531D02*
X004363Y012531D01*
X004503Y011907D02*
X004963Y011907D01*
X004503Y011907D02*
X004503Y012537D01*
X004963Y012537D01*
X004963Y011907D01*
X004963Y011946D02*
X004503Y011946D01*
X004503Y011985D02*
X004963Y011985D01*
X004963Y012024D02*
X004503Y012024D01*
X004503Y012063D02*
X004963Y012063D01*
X004963Y012102D02*
X004503Y012102D01*
X004503Y012141D02*
X004963Y012141D01*
X004963Y012180D02*
X004503Y012180D01*
X004503Y012219D02*
X004963Y012219D01*
X004963Y012258D02*
X004503Y012258D01*
X004503Y012297D02*
X004963Y012297D01*
X004963Y012336D02*
X004503Y012336D01*
X004503Y012375D02*
X004963Y012375D01*
X004963Y012414D02*
X004503Y012414D01*
X004503Y012453D02*
X004963Y012453D01*
X004963Y012492D02*
X004503Y012492D01*
X004503Y012531D02*
X004963Y012531D01*
X005103Y011907D02*
X005563Y011907D01*
X005103Y011907D02*
X005103Y012537D01*
X005563Y012537D01*
X005563Y011907D01*
X005563Y011946D02*
X005103Y011946D01*
X005103Y011985D02*
X005563Y011985D01*
X005563Y012024D02*
X005103Y012024D01*
X005103Y012063D02*
X005563Y012063D01*
X005563Y012102D02*
X005103Y012102D01*
X005103Y012141D02*
X005563Y012141D01*
X005563Y012180D02*
X005103Y012180D01*
X005103Y012219D02*
X005563Y012219D01*
X005563Y012258D02*
X005103Y012258D01*
X005103Y012297D02*
X005563Y012297D01*
X005563Y012336D02*
X005103Y012336D01*
X005103Y012375D02*
X005563Y012375D01*
X005563Y012414D02*
X005103Y012414D01*
X005103Y012453D02*
X005563Y012453D01*
X005563Y012492D02*
X005103Y012492D01*
X005103Y012531D02*
X005563Y012531D01*
X008203Y011907D02*
X008663Y011907D01*
X008203Y011907D02*
X008203Y012537D01*
X008663Y012537D01*
X008663Y011907D01*
X008663Y011946D02*
X008203Y011946D01*
X008203Y011985D02*
X008663Y011985D01*
X008663Y012024D02*
X008203Y012024D01*
X008203Y012063D02*
X008663Y012063D01*
X008663Y012102D02*
X008203Y012102D01*
X008203Y012141D02*
X008663Y012141D01*
X008663Y012180D02*
X008203Y012180D01*
X008203Y012219D02*
X008663Y012219D01*
X008663Y012258D02*
X008203Y012258D01*
X008203Y012297D02*
X008663Y012297D01*
X008663Y012336D02*
X008203Y012336D01*
X008203Y012375D02*
X008663Y012375D01*
X008663Y012414D02*
X008203Y012414D01*
X008203Y012453D02*
X008663Y012453D01*
X008663Y012492D02*
X008203Y012492D01*
X008203Y012531D02*
X008663Y012531D01*
X008803Y011907D02*
X009263Y011907D01*
X008803Y011907D02*
X008803Y012537D01*
X009263Y012537D01*
X009263Y011907D01*
X009263Y011946D02*
X008803Y011946D01*
X008803Y011985D02*
X009263Y011985D01*
X009263Y012024D02*
X008803Y012024D01*
X008803Y012063D02*
X009263Y012063D01*
X009263Y012102D02*
X008803Y012102D01*
X008803Y012141D02*
X009263Y012141D01*
X009263Y012180D02*
X008803Y012180D01*
X008803Y012219D02*
X009263Y012219D01*
X009263Y012258D02*
X008803Y012258D01*
X008803Y012297D02*
X009263Y012297D01*
X009263Y012336D02*
X008803Y012336D01*
X008803Y012375D02*
X009263Y012375D01*
X009263Y012414D02*
X008803Y012414D01*
X008803Y012453D02*
X009263Y012453D01*
X009263Y012492D02*
X008803Y012492D01*
X008803Y012531D02*
X009263Y012531D01*
X009403Y011907D02*
X009863Y011907D01*
X009403Y011907D02*
X009403Y012537D01*
X009863Y012537D01*
X009863Y011907D01*
X009863Y011946D02*
X009403Y011946D01*
X009403Y011985D02*
X009863Y011985D01*
X009863Y012024D02*
X009403Y012024D01*
X009403Y012063D02*
X009863Y012063D01*
X009863Y012102D02*
X009403Y012102D01*
X009403Y012141D02*
X009863Y012141D01*
X009863Y012180D02*
X009403Y012180D01*
X009403Y012219D02*
X009863Y012219D01*
X009863Y012258D02*
X009403Y012258D01*
X009403Y012297D02*
X009863Y012297D01*
X009863Y012336D02*
X009403Y012336D01*
X009403Y012375D02*
X009863Y012375D01*
X009863Y012414D02*
X009403Y012414D01*
X009403Y012453D02*
X009863Y012453D01*
X009863Y012492D02*
X009403Y012492D01*
X009403Y012531D02*
X009863Y012531D01*
D19*
X018349Y015367D02*
X018349Y015485D01*
X018349Y015367D02*
X018113Y015367D01*
X018113Y015485D01*
X018349Y015485D01*
X018349Y015407D02*
X018113Y015407D01*
X018113Y015447D02*
X018349Y015447D01*
X018349Y015564D02*
X018349Y015682D01*
X018349Y015564D02*
X018113Y015564D01*
X018113Y015682D01*
X018349Y015682D01*
X018349Y015604D02*
X018113Y015604D01*
X018113Y015644D02*
X018349Y015644D01*
X018349Y015761D02*
X018349Y015879D01*
X018349Y015761D02*
X018113Y015761D01*
X018113Y015879D01*
X018349Y015879D01*
X018349Y015801D02*
X018113Y015801D01*
X018113Y015841D02*
X018349Y015841D01*
X018349Y015958D02*
X018349Y016076D01*
X018349Y015958D02*
X018113Y015958D01*
X018113Y016076D01*
X018349Y016076D01*
X018349Y015998D02*
X018113Y015998D01*
X018113Y016038D02*
X018349Y016038D01*
X018428Y016391D02*
X018546Y016391D01*
X018546Y016155D01*
X018428Y016155D01*
X018428Y016391D01*
X018428Y016195D02*
X018546Y016195D01*
X018546Y016235D02*
X018428Y016235D01*
X018428Y016275D02*
X018546Y016275D01*
X018546Y016315D02*
X018428Y016315D01*
X018428Y016355D02*
X018546Y016355D01*
X018625Y016391D02*
X018743Y016391D01*
X018743Y016155D01*
X018625Y016155D01*
X018625Y016391D01*
X018625Y016195D02*
X018743Y016195D01*
X018743Y016235D02*
X018625Y016235D01*
X018625Y016275D02*
X018743Y016275D01*
X018743Y016315D02*
X018625Y016315D01*
X018625Y016355D02*
X018743Y016355D01*
X018822Y016391D02*
X018940Y016391D01*
X018940Y016155D01*
X018822Y016155D01*
X018822Y016391D01*
X018822Y016195D02*
X018940Y016195D01*
X018940Y016235D02*
X018822Y016235D01*
X018822Y016275D02*
X018940Y016275D01*
X018940Y016315D02*
X018822Y016315D01*
X018822Y016355D02*
X018940Y016355D01*
X019019Y016391D02*
X019137Y016391D01*
X019137Y016155D01*
X019019Y016155D01*
X019019Y016391D01*
X019019Y016195D02*
X019137Y016195D01*
X019137Y016235D02*
X019019Y016235D01*
X019019Y016275D02*
X019137Y016275D01*
X019137Y016315D02*
X019019Y016315D01*
X019019Y016355D02*
X019137Y016355D01*
X019216Y016076D02*
X019216Y015958D01*
X019216Y016076D02*
X019452Y016076D01*
X019452Y015958D01*
X019216Y015958D01*
X019216Y015998D02*
X019452Y015998D01*
X019452Y016038D02*
X019216Y016038D01*
X019216Y015879D02*
X019216Y015761D01*
X019216Y015879D02*
X019452Y015879D01*
X019452Y015761D01*
X019216Y015761D01*
X019216Y015801D02*
X019452Y015801D01*
X019452Y015841D02*
X019216Y015841D01*
X019216Y015682D02*
X019216Y015564D01*
X019216Y015682D02*
X019452Y015682D01*
X019452Y015564D01*
X019216Y015564D01*
X019216Y015604D02*
X019452Y015604D01*
X019452Y015644D02*
X019216Y015644D01*
X019216Y015485D02*
X019216Y015367D01*
X019216Y015485D02*
X019452Y015485D01*
X019452Y015367D01*
X019216Y015367D01*
X019216Y015407D02*
X019452Y015407D01*
X019452Y015447D02*
X019216Y015447D01*
X019137Y015053D02*
X019019Y015053D01*
X019019Y015289D01*
X019137Y015289D01*
X019137Y015053D01*
X019137Y015093D02*
X019019Y015093D01*
X019019Y015133D02*
X019137Y015133D01*
X019137Y015173D02*
X019019Y015173D01*
X019019Y015213D02*
X019137Y015213D01*
X019137Y015253D02*
X019019Y015253D01*
X018940Y015053D02*
X018822Y015053D01*
X018822Y015289D01*
X018940Y015289D01*
X018940Y015053D01*
X018940Y015093D02*
X018822Y015093D01*
X018822Y015133D02*
X018940Y015133D01*
X018940Y015173D02*
X018822Y015173D01*
X018822Y015213D02*
X018940Y015213D01*
X018940Y015253D02*
X018822Y015253D01*
X018743Y015053D02*
X018625Y015053D01*
X018625Y015289D01*
X018743Y015289D01*
X018743Y015053D01*
X018743Y015093D02*
X018625Y015093D01*
X018625Y015133D02*
X018743Y015133D01*
X018743Y015173D02*
X018625Y015173D01*
X018625Y015213D02*
X018743Y015213D01*
X018743Y015253D02*
X018625Y015253D01*
X018546Y015053D02*
X018428Y015053D01*
X018428Y015289D01*
X018546Y015289D01*
X018546Y015053D01*
X018546Y015093D02*
X018428Y015093D01*
X018428Y015133D02*
X018546Y015133D01*
X018546Y015173D02*
X018428Y015173D01*
X018428Y015213D02*
X018546Y015213D01*
X018546Y015253D02*
X018428Y015253D01*
D20*
X018516Y013338D02*
X017886Y013338D01*
X017886Y014046D01*
X018516Y014046D01*
X018516Y013338D01*
X018516Y013377D02*
X017886Y013377D01*
X017886Y013416D02*
X018516Y013416D01*
X018516Y013455D02*
X017886Y013455D01*
X017886Y013494D02*
X018516Y013494D01*
X018516Y013533D02*
X017886Y013533D01*
X017886Y013572D02*
X018516Y013572D01*
X018516Y013611D02*
X017886Y013611D01*
X017886Y013650D02*
X018516Y013650D01*
X018516Y013689D02*
X017886Y013689D01*
X017886Y013728D02*
X018516Y013728D01*
X018516Y013767D02*
X017886Y013767D01*
X017886Y013806D02*
X018516Y013806D01*
X018516Y013845D02*
X017886Y013845D01*
X017886Y013884D02*
X018516Y013884D01*
X018516Y013923D02*
X017886Y013923D01*
X017886Y013962D02*
X018516Y013962D01*
X018516Y014001D02*
X017886Y014001D01*
X017886Y014040D02*
X018516Y014040D01*
X018989Y013338D02*
X019619Y013338D01*
X018989Y013338D02*
X018989Y014046D01*
X019619Y014046D01*
X019619Y013338D01*
X019619Y013377D02*
X018989Y013377D01*
X018989Y013416D02*
X019619Y013416D01*
X019619Y013455D02*
X018989Y013455D01*
X018989Y013494D02*
X019619Y013494D01*
X019619Y013533D02*
X018989Y013533D01*
X018989Y013572D02*
X019619Y013572D01*
X019619Y013611D02*
X018989Y013611D01*
X018989Y013650D02*
X019619Y013650D01*
X019619Y013689D02*
X018989Y013689D01*
X018989Y013728D02*
X019619Y013728D01*
X019619Y013767D02*
X018989Y013767D01*
X018989Y013806D02*
X019619Y013806D01*
X019619Y013845D02*
X018989Y013845D01*
X018989Y013884D02*
X019619Y013884D01*
X019619Y013923D02*
X018989Y013923D01*
X018989Y013962D02*
X019619Y013962D01*
X019619Y014001D02*
X018989Y014001D01*
X018989Y014040D02*
X019619Y014040D01*
X019679Y017356D02*
X019049Y017356D01*
X019679Y017356D02*
X019679Y016648D01*
X019049Y016648D01*
X019049Y017356D01*
X019049Y016687D02*
X019679Y016687D01*
X019679Y016726D02*
X019049Y016726D01*
X019049Y016765D02*
X019679Y016765D01*
X019679Y016804D02*
X019049Y016804D01*
X019049Y016843D02*
X019679Y016843D01*
X019679Y016882D02*
X019049Y016882D01*
X019049Y016921D02*
X019679Y016921D01*
X019679Y016960D02*
X019049Y016960D01*
X019049Y016999D02*
X019679Y016999D01*
X019679Y017038D02*
X019049Y017038D01*
X019049Y017077D02*
X019679Y017077D01*
X019679Y017116D02*
X019049Y017116D01*
X019049Y017155D02*
X019679Y017155D01*
X019679Y017194D02*
X019049Y017194D01*
X019049Y017233D02*
X019679Y017233D01*
X019679Y017272D02*
X019049Y017272D01*
X019049Y017311D02*
X019679Y017311D01*
X019679Y017350D02*
X019049Y017350D01*
X018576Y017356D02*
X017946Y017356D01*
X018576Y017356D02*
X018576Y016648D01*
X017946Y016648D01*
X017946Y017356D01*
X017946Y016687D02*
X018576Y016687D01*
X018576Y016726D02*
X017946Y016726D01*
X017946Y016765D02*
X018576Y016765D01*
X018576Y016804D02*
X017946Y016804D01*
X017946Y016843D02*
X018576Y016843D01*
X018576Y016882D02*
X017946Y016882D01*
X017946Y016921D02*
X018576Y016921D01*
X018576Y016960D02*
X017946Y016960D01*
X017946Y016999D02*
X018576Y016999D01*
X018576Y017038D02*
X017946Y017038D01*
X017946Y017077D02*
X018576Y017077D01*
X018576Y017116D02*
X017946Y017116D01*
X017946Y017155D02*
X018576Y017155D01*
X018576Y017194D02*
X017946Y017194D01*
X017946Y017233D02*
X018576Y017233D01*
X018576Y017272D02*
X017946Y017272D01*
X017946Y017311D02*
X018576Y017311D01*
X018576Y017350D02*
X017946Y017350D01*
D21*
X017885Y014885D02*
X018393Y014885D01*
X018393Y014259D01*
X017885Y014259D01*
X017885Y014885D01*
X017885Y014302D02*
X018393Y014302D01*
X018393Y014345D02*
X017885Y014345D01*
X017885Y014388D02*
X018393Y014388D01*
X018393Y014431D02*
X017885Y014431D01*
X017885Y014474D02*
X018393Y014474D01*
X018393Y014517D02*
X017885Y014517D01*
X017885Y014560D02*
X018393Y014560D01*
X018393Y014603D02*
X017885Y014603D01*
X017885Y014646D02*
X018393Y014646D01*
X018393Y014689D02*
X017885Y014689D01*
X017885Y014732D02*
X018393Y014732D01*
X018393Y014775D02*
X017885Y014775D01*
X017885Y014818D02*
X018393Y014818D01*
X018393Y014861D02*
X017885Y014861D01*
X018672Y014885D02*
X019180Y014885D01*
X019180Y014259D01*
X018672Y014259D01*
X018672Y014885D01*
X018672Y014302D02*
X019180Y014302D01*
X019180Y014345D02*
X018672Y014345D01*
X018672Y014388D02*
X019180Y014388D01*
X019180Y014431D02*
X018672Y014431D01*
X018672Y014474D02*
X019180Y014474D01*
X019180Y014517D02*
X018672Y014517D01*
X018672Y014560D02*
X019180Y014560D01*
X019180Y014603D02*
X018672Y014603D01*
X018672Y014646D02*
X019180Y014646D01*
X019180Y014689D02*
X018672Y014689D01*
X018672Y014732D02*
X019180Y014732D01*
X019180Y014775D02*
X018672Y014775D01*
X018672Y014818D02*
X019180Y014818D01*
X019180Y014861D02*
X018672Y014861D01*
M02*
