%
M48
M72
T01C0.0120
T02C0.0200
T03C0.0320
T04C0.0400
T05C0.1260
%
T01
X8131Y7795
X5769Y7874
X14431Y3228
X13013Y8661
X8446Y8976
X8840Y5354
X12935Y5591
X10021Y5039
X10809Y5039
X15061Y1260
X9155Y3858
X9943Y3228
X13958Y1969
X9391Y6772
X11439Y5827
X14982Y5276
X13328Y5276
X8840Y7717
X10572Y7008
X11596Y7402
X10179Y8031
X11596Y7008
X11517Y6535
X14509Y5591
X7265Y4409
X13328Y4882
X7817Y7638
X7344Y7638
X7580Y4409
X12462Y4409
X8919Y4173
X14746Y4646
X12069Y4409
X10021Y4331
X9155Y7795
X12777Y7638
X13801Y5039
X9549Y6220
X6950Y8661
X5376Y8976
X9470Y7717
X14903Y6850
X15061Y5591
X8683Y8740
X10572Y8661
X6084Y7165
X7533Y7118
X7444Y5529
X8218Y1171
X13407Y4409
X13722Y2992
X15454Y5591
X15927Y5118
X14982Y2205
X14037Y4409
X12698Y8425
X7157Y6105
X9549Y5906
X6006Y787
X4509Y787
X3486Y1732
X4740Y17423
X13181Y13769
X14630Y13391
X8268Y11502
X3858Y11502
X10661Y11439
X13559Y14336
X5559Y17486
X2472Y15911
X2031Y15344
X1528Y17864
X5496Y16541
X12488Y14273
X11669Y13076
X8772Y12887
X9906Y16478
X11102Y13391
X9717Y13895
X10598Y17234
X8835Y13391
X4866Y12950
X5559Y16226
X8142Y16478
X2661Y13580
X3354Y14273
X9465Y16415
X10850Y15407
X11165Y14714
X3291Y12509
X10094Y12069
X7502Y9213
X17600Y15090
X18200Y15640
X17600Y15800
X17830Y14850
X18380Y15390
X18410Y17010
X19170Y14530
X18680Y15750
T02
X9108Y6236
X8478Y6236
X8478Y5417
X12383Y5291
X6063Y12761
X4047Y12950
T03
X7462Y3185
X5562Y3185
T04
X16545Y630
X16545Y1630
X17545Y630
X17545Y1630
X18545Y630
X18545Y1630
X2036Y17951
X3036Y17951
X4036Y17951
X2036Y18951
X3036Y18951
X4036Y18951
X2650Y9360
X1650Y9360
X650Y9360
X2650Y2360
X1650Y2360
X650Y2360
X16550Y6773
X17550Y6773
X18550Y6773
X16550Y5673
X17550Y5673
X18550Y5673
X16550Y4573
X17550Y4573
X18550Y4573
X16550Y3477
X17550Y3477
X18550Y3477
X2650Y5067
X1650Y5067
X650Y5067
X2650Y3963
X1650Y3963
X650Y3963
X2650Y6563
X1650Y6563
X650Y6563
X2650Y7667
X1650Y7667
X650Y7667
X14150Y7430
X14150Y8430
X14150Y9430
X15250Y7430
X15250Y8430
X15250Y9430
X9650Y2630
X9650Y1630
X9650Y630
X10750Y2630
X10750Y1630
X10750Y630
X11850Y2630
X11850Y1630
X11850Y630
X12950Y2630
X12950Y1630
X12950Y630
X16038Y11960
X16038Y12960
X16038Y13960
X6037Y18965
X7037Y18965
X8037Y18965
X9037Y18965
X11037Y18956
X12037Y18956
X13037Y18956
X14037Y18956
X15030Y15960
X14030Y15960
X13030Y15960
X12030Y15960
X11030Y15960
X10030Y15960
X15030Y16960
X14030Y16960
X13030Y16960
X12030Y16960
X11030Y16960
X10030Y16960
X9030Y15960
X9030Y16960
X8030Y15960
X7030Y15960
X6030Y15960
X5030Y15960
X4030Y15960
X3030Y15960
X8030Y16960
X7030Y16960
X6030Y16960
X5030Y16960
X4030Y16960
X3030Y16960
X16040Y14960
X16040Y15960
X16040Y16960
X11040Y17960
X12040Y17960
X13040Y17960
X14040Y17960
X17900Y11700
X17900Y12700
X18900Y11700
X18900Y12700
X17899Y17695
X17899Y18695
X18899Y17695
X18899Y18695
T05
X15790Y18730
X17960Y8770
X870Y11810
X1170Y1040
M30
