G75*
G70*
%OFA0B0*%
%FSLAX24Y24*%
%IPPOS*%
%LPD*%
%AMOC8*
5,1,8,0,0,1.08239X$1,22.5*
%
%ADD10C,0.0000*%
%ADD11C,0.0100*%
%ADD12C,0.0120*%
%ADD13C,0.0050*%
D10*
X000873Y001262D02*
X000875Y001312D01*
X000881Y001362D01*
X000891Y001411D01*
X000905Y001459D01*
X000922Y001506D01*
X000943Y001551D01*
X000968Y001595D01*
X000996Y001636D01*
X001028Y001675D01*
X001062Y001712D01*
X001099Y001746D01*
X001139Y001776D01*
X001181Y001803D01*
X001225Y001827D01*
X001271Y001848D01*
X001318Y001864D01*
X001366Y001877D01*
X001416Y001886D01*
X001465Y001891D01*
X001516Y001892D01*
X001566Y001889D01*
X001615Y001882D01*
X001664Y001871D01*
X001712Y001856D01*
X001758Y001838D01*
X001803Y001816D01*
X001846Y001790D01*
X001887Y001761D01*
X001926Y001729D01*
X001962Y001694D01*
X001994Y001656D01*
X002024Y001616D01*
X002051Y001573D01*
X002074Y001529D01*
X002093Y001483D01*
X002109Y001435D01*
X002121Y001386D01*
X002129Y001337D01*
X002133Y001287D01*
X002133Y001237D01*
X002129Y001187D01*
X002121Y001138D01*
X002109Y001089D01*
X002093Y001041D01*
X002074Y000995D01*
X002051Y000951D01*
X002024Y000908D01*
X001994Y000868D01*
X001962Y000830D01*
X001926Y000795D01*
X001887Y000763D01*
X001846Y000734D01*
X001803Y000708D01*
X001758Y000686D01*
X001712Y000668D01*
X001664Y000653D01*
X001615Y000642D01*
X001566Y000635D01*
X001516Y000632D01*
X001465Y000633D01*
X001416Y000638D01*
X001366Y000647D01*
X001318Y000660D01*
X001271Y000676D01*
X001225Y000697D01*
X001181Y000721D01*
X001139Y000748D01*
X001099Y000778D01*
X001062Y000812D01*
X001028Y000849D01*
X000996Y000888D01*
X000968Y000929D01*
X000943Y000973D01*
X000922Y001018D01*
X000905Y001065D01*
X000891Y001113D01*
X000881Y001162D01*
X000875Y001212D01*
X000873Y001262D01*
X017663Y008992D02*
X017665Y009042D01*
X017671Y009092D01*
X017681Y009141D01*
X017695Y009189D01*
X017712Y009236D01*
X017733Y009281D01*
X017758Y009325D01*
X017786Y009366D01*
X017818Y009405D01*
X017852Y009442D01*
X017889Y009476D01*
X017929Y009506D01*
X017971Y009533D01*
X018015Y009557D01*
X018061Y009578D01*
X018108Y009594D01*
X018156Y009607D01*
X018206Y009616D01*
X018255Y009621D01*
X018306Y009622D01*
X018356Y009619D01*
X018405Y009612D01*
X018454Y009601D01*
X018502Y009586D01*
X018548Y009568D01*
X018593Y009546D01*
X018636Y009520D01*
X018677Y009491D01*
X018716Y009459D01*
X018752Y009424D01*
X018784Y009386D01*
X018814Y009346D01*
X018841Y009303D01*
X018864Y009259D01*
X018883Y009213D01*
X018899Y009165D01*
X018911Y009116D01*
X018919Y009067D01*
X018923Y009017D01*
X018923Y008967D01*
X018919Y008917D01*
X018911Y008868D01*
X018899Y008819D01*
X018883Y008771D01*
X018864Y008725D01*
X018841Y008681D01*
X018814Y008638D01*
X018784Y008598D01*
X018752Y008560D01*
X018716Y008525D01*
X018677Y008493D01*
X018636Y008464D01*
X018593Y008438D01*
X018548Y008416D01*
X018502Y008398D01*
X018454Y008383D01*
X018405Y008372D01*
X018356Y008365D01*
X018306Y008362D01*
X018255Y008363D01*
X018206Y008368D01*
X018156Y008377D01*
X018108Y008390D01*
X018061Y008406D01*
X018015Y008427D01*
X017971Y008451D01*
X017929Y008478D01*
X017889Y008508D01*
X017852Y008542D01*
X017818Y008579D01*
X017786Y008618D01*
X017758Y008659D01*
X017733Y008703D01*
X017712Y008748D01*
X017695Y008795D01*
X017681Y008843D01*
X017671Y008892D01*
X017665Y008942D01*
X017663Y008992D01*
X000573Y012032D02*
X000575Y012082D01*
X000581Y012132D01*
X000591Y012181D01*
X000605Y012229D01*
X000622Y012276D01*
X000643Y012321D01*
X000668Y012365D01*
X000696Y012406D01*
X000728Y012445D01*
X000762Y012482D01*
X000799Y012516D01*
X000839Y012546D01*
X000881Y012573D01*
X000925Y012597D01*
X000971Y012618D01*
X001018Y012634D01*
X001066Y012647D01*
X001116Y012656D01*
X001165Y012661D01*
X001216Y012662D01*
X001266Y012659D01*
X001315Y012652D01*
X001364Y012641D01*
X001412Y012626D01*
X001458Y012608D01*
X001503Y012586D01*
X001546Y012560D01*
X001587Y012531D01*
X001626Y012499D01*
X001662Y012464D01*
X001694Y012426D01*
X001724Y012386D01*
X001751Y012343D01*
X001774Y012299D01*
X001793Y012253D01*
X001809Y012205D01*
X001821Y012156D01*
X001829Y012107D01*
X001833Y012057D01*
X001833Y012007D01*
X001829Y011957D01*
X001821Y011908D01*
X001809Y011859D01*
X001793Y011811D01*
X001774Y011765D01*
X001751Y011721D01*
X001724Y011678D01*
X001694Y011638D01*
X001662Y011600D01*
X001626Y011565D01*
X001587Y011533D01*
X001546Y011504D01*
X001503Y011478D01*
X001458Y011456D01*
X001412Y011438D01*
X001364Y011423D01*
X001315Y011412D01*
X001266Y011405D01*
X001216Y011402D01*
X001165Y011403D01*
X001116Y011408D01*
X001066Y011417D01*
X001018Y011430D01*
X000971Y011446D01*
X000925Y011467D01*
X000881Y011491D01*
X000839Y011518D01*
X000799Y011548D01*
X000762Y011582D01*
X000728Y011619D01*
X000696Y011658D01*
X000668Y011699D01*
X000643Y011743D01*
X000622Y011788D01*
X000605Y011835D01*
X000591Y011883D01*
X000581Y011932D01*
X000575Y011982D01*
X000573Y012032D01*
X015493Y018952D02*
X015495Y019002D01*
X015501Y019052D01*
X015511Y019101D01*
X015525Y019149D01*
X015542Y019196D01*
X015563Y019241D01*
X015588Y019285D01*
X015616Y019326D01*
X015648Y019365D01*
X015682Y019402D01*
X015719Y019436D01*
X015759Y019466D01*
X015801Y019493D01*
X015845Y019517D01*
X015891Y019538D01*
X015938Y019554D01*
X015986Y019567D01*
X016036Y019576D01*
X016085Y019581D01*
X016136Y019582D01*
X016186Y019579D01*
X016235Y019572D01*
X016284Y019561D01*
X016332Y019546D01*
X016378Y019528D01*
X016423Y019506D01*
X016466Y019480D01*
X016507Y019451D01*
X016546Y019419D01*
X016582Y019384D01*
X016614Y019346D01*
X016644Y019306D01*
X016671Y019263D01*
X016694Y019219D01*
X016713Y019173D01*
X016729Y019125D01*
X016741Y019076D01*
X016749Y019027D01*
X016753Y018977D01*
X016753Y018927D01*
X016749Y018877D01*
X016741Y018828D01*
X016729Y018779D01*
X016713Y018731D01*
X016694Y018685D01*
X016671Y018641D01*
X016644Y018598D01*
X016614Y018558D01*
X016582Y018520D01*
X016546Y018485D01*
X016507Y018453D01*
X016466Y018424D01*
X016423Y018398D01*
X016378Y018376D01*
X016332Y018358D01*
X016284Y018343D01*
X016235Y018332D01*
X016186Y018325D01*
X016136Y018322D01*
X016085Y018323D01*
X016036Y018328D01*
X015986Y018337D01*
X015938Y018350D01*
X015891Y018366D01*
X015845Y018387D01*
X015801Y018411D01*
X015759Y018438D01*
X015719Y018468D01*
X015682Y018502D01*
X015648Y018539D01*
X015616Y018578D01*
X015588Y018619D01*
X015563Y018663D01*
X015542Y018708D01*
X015525Y018755D01*
X015511Y018803D01*
X015501Y018852D01*
X015495Y018902D01*
X015493Y018952D01*
D11*
X000333Y019822D02*
X000333Y000222D01*
X019933Y000222D01*
X019933Y011122D01*
X017533Y011122D01*
X017533Y019822D01*
X019933Y019822D01*
X019933Y011122D01*
X019933Y019822D01*
X017533Y019822D01*
X000333Y019822D01*
X000333Y011122D01*
X016933Y011122D01*
X016933Y019822D01*
X000333Y019822D01*
X000433Y010122D02*
X000433Y000222D01*
X019433Y000222D01*
X019433Y010122D01*
X000433Y010122D01*
D12*
X017533Y011122D02*
X017533Y019822D01*
X017913Y019612D02*
X017953Y019612D01*
X019483Y019612D01*
X019523Y019612D01*
X019563Y019612D02*
X019483Y019612D01*
X019563Y019612D01*
X019933Y011122D02*
X017533Y011122D01*
D13*
X015626Y011777D02*
X015175Y011777D01*
X015175Y012002D01*
X015250Y012077D01*
X015400Y012077D01*
X015475Y012002D01*
X015475Y011777D01*
X015551Y012237D02*
X015250Y012237D01*
X015175Y012312D01*
X015175Y012462D01*
X015250Y012537D01*
X015551Y012537D01*
X015626Y012462D01*
X015626Y012312D01*
X015551Y012237D01*
X015626Y012697D02*
X015175Y012697D01*
X015175Y012998D02*
X015626Y012998D01*
X015475Y012848D01*
X015626Y012697D01*
X015628Y013977D02*
X015177Y013977D01*
X015177Y014202D01*
X015252Y014277D01*
X015402Y014277D01*
X015477Y014202D01*
X015477Y013977D01*
X015628Y014437D02*
X015177Y014437D01*
X015477Y014587D02*
X015628Y014737D01*
X015177Y014737D01*
X015177Y014897D02*
X015327Y015048D01*
X015177Y015198D01*
X015628Y015198D01*
X015628Y014897D02*
X015177Y014897D01*
X015477Y014587D02*
X015628Y014437D01*
X008606Y018072D02*
X008606Y018522D01*
X008456Y018522D02*
X008756Y018522D01*
X008296Y018447D02*
X008296Y018297D01*
X008220Y018222D01*
X007995Y018222D01*
X007995Y018072D02*
X007995Y018522D01*
X008220Y018522D01*
X008296Y018447D01*
X008145Y018222D02*
X008296Y018072D01*
X007835Y018072D02*
X007835Y018372D01*
X007685Y018522D01*
X007535Y018372D01*
X007535Y018072D01*
X007375Y018147D02*
X007375Y018522D01*
X007535Y018297D02*
X007835Y018297D01*
X007375Y018147D02*
X007300Y018072D01*
X007150Y018072D01*
X007075Y018147D01*
X007075Y018522D01*
X000937Y018473D02*
X000486Y018473D01*
X000486Y018698D01*
X000561Y018773D01*
X000711Y018773D01*
X000786Y018698D01*
X000786Y018473D01*
X000786Y018313D02*
X000862Y018313D01*
X000937Y018238D01*
X000937Y018088D01*
X000862Y018013D01*
X000711Y018088D02*
X000711Y018238D01*
X000786Y018313D01*
X000561Y018313D02*
X000486Y018238D01*
X000486Y018088D01*
X000561Y018013D01*
X000636Y018013D01*
X000711Y018088D01*
X000486Y018933D02*
X000486Y019084D01*
X000486Y019008D02*
X000937Y019008D01*
X000937Y018933D02*
X000937Y019084D01*
X014921Y019096D02*
X014996Y019021D01*
X015297Y019021D01*
X015372Y019096D01*
X015372Y019246D01*
X015297Y019321D01*
X014996Y019321D02*
X014921Y019246D01*
X014921Y019096D01*
X014996Y018861D02*
X014921Y018786D01*
X014921Y018636D01*
X014996Y018561D01*
X014921Y018404D02*
X014921Y018254D01*
X014921Y018329D02*
X015372Y018329D01*
X015372Y018254D02*
X015372Y018404D01*
X015372Y018561D02*
X015071Y018861D01*
X014996Y018861D01*
X015372Y018861D02*
X015372Y018561D01*
X003177Y008962D02*
X003102Y009037D01*
X002952Y009037D01*
X002877Y008962D01*
X002877Y008662D01*
X002952Y008587D01*
X003102Y008587D01*
X003177Y008662D01*
X003510Y008591D02*
X003510Y008366D01*
X003961Y008366D01*
X003961Y008591D01*
X003886Y008667D01*
X003586Y008667D01*
X003510Y008591D01*
X003510Y008206D02*
X003961Y007906D01*
X003961Y008206D02*
X003510Y007906D01*
X003510Y007746D02*
X003510Y007446D01*
X003510Y007596D02*
X003961Y007596D01*
X003889Y007267D02*
X003589Y007267D01*
X003514Y007191D01*
X003514Y006966D01*
X003964Y006966D01*
X003964Y007191D01*
X003889Y007267D01*
X003964Y006806D02*
X003514Y006506D01*
X003589Y006346D02*
X003739Y006346D01*
X003814Y006271D01*
X003814Y006046D01*
X003814Y006196D02*
X003964Y006346D01*
X003964Y006506D02*
X003514Y006806D01*
X003589Y006346D02*
X003514Y006271D01*
X003514Y006046D01*
X003964Y006046D01*
X003886Y005567D02*
X003961Y005491D01*
X003961Y005341D01*
X003886Y005266D01*
X003736Y005266D02*
X003661Y005416D01*
X003661Y005491D01*
X003736Y005567D01*
X003886Y005567D01*
X003736Y005266D02*
X003511Y005266D01*
X003511Y005567D01*
X003511Y005106D02*
X003961Y005106D01*
X003511Y004806D01*
X003961Y004806D01*
X003961Y004649D02*
X003961Y004499D01*
X003961Y004574D02*
X003511Y004574D01*
X003511Y004499D02*
X003511Y004649D01*
X003514Y004367D02*
X003589Y004216D01*
X003739Y004066D01*
X003739Y004291D01*
X003814Y004367D01*
X003889Y004367D01*
X003964Y004291D01*
X003964Y004141D01*
X003889Y004066D01*
X003739Y004066D01*
X003964Y003906D02*
X003514Y003906D01*
X003514Y003606D02*
X003964Y003906D01*
X003964Y003606D02*
X003514Y003606D01*
X003514Y003449D02*
X003514Y003299D01*
X003514Y003374D02*
X003964Y003374D01*
X003964Y003299D02*
X003964Y003449D01*
X003502Y002037D02*
X003352Y002037D01*
X003277Y001962D01*
X003277Y001662D01*
X003352Y001587D01*
X003502Y001587D01*
X003577Y001662D01*
X003577Y001962D01*
X003502Y002037D01*
X003120Y002037D02*
X002970Y002037D01*
X003045Y002037D02*
X003045Y001587D01*
X002970Y001587D02*
X003120Y001587D01*
X002810Y001812D02*
X002735Y001737D01*
X002510Y001737D01*
X002510Y001587D02*
X002510Y002037D01*
X002735Y002037D01*
X002810Y001962D01*
X002810Y001812D01*
X002350Y001812D02*
X002350Y001662D01*
X002275Y001587D01*
X002125Y001587D01*
X002050Y001662D01*
X002050Y001962D01*
X002125Y002037D01*
X002275Y002037D01*
X002350Y001962D01*
X002350Y001812D02*
X002200Y001812D01*
X008927Y001786D02*
X008927Y001486D01*
X008927Y001636D02*
X009378Y001636D01*
X009378Y001946D02*
X009378Y002246D01*
X009378Y002096D02*
X008927Y002096D01*
X009077Y001946D01*
X008927Y001326D02*
X009303Y001326D01*
X009378Y001251D01*
X009378Y001101D01*
X009303Y001026D01*
X008927Y001026D01*
X009002Y000865D02*
X008927Y000790D01*
X008927Y000640D01*
X009002Y000565D01*
X009303Y000565D01*
X009378Y000640D01*
X009378Y000790D01*
X009303Y000865D01*
X009002Y000865D01*
X013927Y000790D02*
X014002Y000865D01*
X014303Y000865D01*
X014378Y000790D01*
X014378Y000640D01*
X014303Y000565D01*
X014002Y000565D01*
X013927Y000640D01*
X013927Y000790D01*
X013927Y001026D02*
X014303Y001026D01*
X014378Y001101D01*
X014378Y001251D01*
X014303Y001326D01*
X013927Y001326D01*
X013927Y001486D02*
X013927Y001786D01*
X013927Y001636D02*
X014378Y001636D01*
X014152Y001946D02*
X014152Y002246D01*
X013927Y002171D02*
X014152Y001946D01*
X014378Y002171D02*
X013927Y002171D01*
X015767Y001936D02*
X015767Y001711D01*
X016218Y001711D01*
X016067Y001711D02*
X016067Y001936D01*
X015992Y002011D01*
X015842Y002011D01*
X015767Y001936D01*
X015842Y001551D02*
X015767Y001476D01*
X015767Y001326D01*
X015842Y001251D01*
X015917Y001251D01*
X015992Y001326D01*
X015992Y001476D01*
X016067Y001551D01*
X016143Y001551D01*
X016218Y001476D01*
X016218Y001326D01*
X016143Y001251D01*
X016143Y001091D02*
X016218Y001016D01*
X016218Y000866D01*
X016143Y000791D01*
X015842Y000791D01*
X015767Y000866D01*
X015767Y001016D01*
X015842Y001091D01*
X015767Y000634D02*
X015767Y000484D01*
X015767Y000559D02*
X016218Y000559D01*
X016218Y000484D02*
X016218Y000634D01*
X017378Y002643D02*
X017528Y002643D01*
X017453Y002643D02*
X017453Y003094D01*
X017378Y003094D02*
X017528Y003094D01*
X017684Y003094D02*
X017985Y002643D01*
X017985Y003094D01*
X018145Y002869D02*
X018445Y002869D01*
X018370Y003094D02*
X018370Y002643D01*
X018145Y002869D02*
X018370Y003094D01*
X017684Y003094D02*
X017684Y002643D01*
X017684Y007540D02*
X017684Y007990D01*
X017985Y007540D01*
X017985Y007990D01*
X018145Y007840D02*
X018295Y007990D01*
X018295Y007540D01*
X018145Y007540D02*
X018445Y007540D01*
X017528Y007540D02*
X017378Y007540D01*
X017453Y007540D02*
X017453Y007990D01*
X017378Y007990D02*
X017528Y007990D01*
X016638Y008082D02*
X016563Y008007D01*
X016262Y008007D01*
X016187Y008082D01*
X016187Y008232D01*
X016262Y008307D01*
X016187Y008467D02*
X016638Y008467D01*
X016638Y008768D01*
X016563Y008307D02*
X016638Y008232D01*
X016638Y008082D01*
X016563Y007847D02*
X016638Y007772D01*
X016638Y007622D01*
X016563Y007547D01*
X016412Y007622D02*
X016412Y007772D01*
X016487Y007847D01*
X016563Y007847D01*
X016262Y007847D02*
X016187Y007772D01*
X016187Y007622D01*
X016262Y007547D01*
X016337Y007547D01*
X016412Y007622D01*
X013838Y007622D02*
X013763Y007547D01*
X013838Y007622D02*
X013838Y007772D01*
X013763Y007847D01*
X013687Y007847D01*
X013612Y007772D01*
X013612Y007622D01*
X013537Y007547D01*
X013462Y007547D01*
X013387Y007622D01*
X013387Y007772D01*
X013462Y007847D01*
X013387Y008007D02*
X013387Y008232D01*
X013462Y008307D01*
X013763Y008307D01*
X013838Y008232D01*
X013838Y008007D01*
X013387Y008007D01*
X013537Y008467D02*
X013387Y008618D01*
X013537Y008768D01*
X013838Y008768D01*
X013612Y008768D02*
X013612Y008467D01*
X013537Y008467D02*
X013838Y008467D01*
X002717Y008662D02*
X002642Y008587D01*
X002416Y008587D01*
X002416Y009037D01*
X002642Y009037D01*
X002717Y008962D01*
X002717Y008662D01*
X002256Y008587D02*
X002256Y008887D01*
X002106Y009037D01*
X001956Y008887D01*
X001956Y008587D01*
X001956Y008812D02*
X002256Y008812D01*
M02*
